<?xml version="1.0" encoding="utf-8"?>
<!-- Generator: Adobe Illustrator 25.2.0, SVG Export Plug-In . SVG Version: 6.00 Build 0)  -->
<svg version="1.1" id="Layer_1" xmlns="http://www.w3.org/2000/svg" xmlns:xlink="http://www.w3.org/1999/xlink" x="0px" y="0px"
	 viewBox="0 0 70.5 65.8" style="enable-background:new 0 0 70.5 65.8;" xml:space="preserve">
<style type="text/css">
	.st0{fill:#FFFFFF;}
	.st1{fill:none;}
</style>
<g>
	<path class="st0" d="M69.2,30.8L69.2,30.8l0-25.3h-51c0-2.3-1.9-4.2-4.2-4.2H1.3v4.2h8.5L13,32.6c-2,1.6-3.2,4-3.2,6.6
		c0,4.7,3.8,8.4,8.5,8.4c0,0,0,0,0,0h51v-4.2h-51c-2.3,0-4.2-1.9-4.2-4.2c0,0,0,0,0,0L69.2,30.8z M54.3,8.7l8.2,16L52.3,30l-8.2-16
		L54.3,8.7z M22,7.9l20,6.1l-2.8,9.1l-3,9.7l-20-6.1L22,7.9z"/>
	<path class="st0" d="M26.8,58.1c0,3.5-2.8,6.4-6.3,6.4c-3.5,0-6.4-2.8-6.4-6.3c0-3.5,2.8-6.4,6.3-6.4c0,0,0,0,0.1,0
		C23.9,51.8,26.7,54.6,26.8,58.1C26.8,58.1,26.8,58.1,26.8,58.1z"/>
	<path class="st0" d="M69.2,58.1c0,3.5-2.8,6.4-6.3,6.4c-3.5,0-6.4-2.8-6.4-6.3c0-3.5,2.8-6.4,6.3-6.4c0,0,0,0,0.1,0
		C66.4,51.8,69.2,54.6,69.2,58.1C69.2,58.1,69.2,58.1,69.2,58.1z"/>
	<path class="st1" d="M22,7.9l20,6.1l-5.7,18.8l-20-6.1L22,7.9z"/>
	<polyline class="st0" points="23,9.7 18.2,25.6 35.3,30.9 37.8,22.6 40.2,15 23,9.7 	"/>
	<rect x="47.6" y="10.3" transform="matrix(0.891 -0.454 0.454 0.891 -2.9758 26.3019)" class="st1" width="11.4" height="18"/>
	<rect x="49.1" y="11.8" transform="matrix(0.891 -0.454 0.454 0.891 -2.9761 26.3)" class="st0" width="8.4" height="15"/>
</g>
</svg>
