<?xml version="1.0" encoding="utf-8"?>
<!-- Generator: Adobe Illustrator 26.0.1, SVG Export Plug-In . SVG Version: 6.00 Build 0)  -->
<svg version="1.1" id="Layer_1" xmlns="http://www.w3.org/2000/svg" xmlns:xlink="http://www.w3.org/1999/xlink" x="0px" y="0px"
	 viewBox="0 0 75 75" style="enable-background:new 0 0 75 75;" xml:space="preserve">
<style type="text/css">
	.st0{fill:#FC8223;}
	.st1{fill:#FFFFFF;}
</style>
<g>
	<g id="Group_2537" transform="translate(1248.431 3428)">
		<circle id="Ellipse_83-2" class="st0" cx="-1210.9" cy="-3390.5" r="35.6"/>
	</g>
	<g id="Group_3819">
		<path id="Path_4195" class="st1" d="M38.6,14.7h7.3c0.9,6.9,4.7,10.7,11.7,11.4v7.3c-4.2,0-8.2-1.4-11.5-3.9c0,0.5,0,0.9,0,1.2
			c0,5.4,0.2,10.7,0,16.1c-0.3,6.8-5.4,12.4-12.1,13.3c-6.7,1-13.1-2.8-15.5-9.1c-2.7-7.3,1-15.4,8.3-18.1c0.9-0.3,1.8-0.6,2.7-0.7
			c1.2-0.1,2.5-0.2,3.7-0.1c0.3,0,0.7,0.4,0.8,0.6c0.1,2.3,0,4.6,0,7c-1.8-0.6-3.7-0.4-5.4,0.5c-2.9,1.6-4.2,5-3.1,8.1
			c1.1,3.1,4.3,5,7.6,4.4c3.2-0.6,5.6-3.4,5.6-6.7c0-6.1,0-12.1,0-18.2C38.6,23.5,38.6,19.2,38.6,14.7"/>
	</g>
</g>
</svg>
