<svg enable-background="new 0 0 75 75" viewBox="0 0 75 75" xmlns="http://www.w3.org/2000/svg"><circle cx="37.53" cy="37.5" fill="#fc8223" r="35.6"/><g fill="#fff" transform="translate(1179.036 3440.806)"><path d="m-1130.1-3418.4c-1.5 0-2.7 1.2-2.7 2.7s1.2 2.7 2.7 2.7 2.7-1.2 2.7-2.7c0-1.5-1.2-2.7-2.7-2.7z"/><path d="m-1119.9-3413c-.4-8.1-4.9-12.5-13-13-2.4-.1-3.1-.1-9.2-.1s-6.8 0-9.2.1c-8.1.4-12.5 4.9-13 13-.1 2.4-.1 3.1-.1 9.2 0 6 0 6.8.1 9.2.4 8.1 4.9 12.5 13 13 2.4.1 3.1.1 9.2.1s6.8 0 9.2-.1c8.1-.4 12.5-4.9 13-13 .1-2.4.1-3.1.1-9.2.1-6.1.1-6.8-.1-9.2zm-4 18.2c-.3 6-3.1 8.9-9.1 9.1-2.4.1-3.1.1-9 .1s-6.7 0-9-.1c-6.1-.3-8.9-3.2-9.1-9.1-.1-2.4-.1-3.1-.1-9s0-6.7.1-9c.3-6 3.1-8.9 9.1-9.1 2.4-.1 3.1-.1 9-.1 6 0 6.7 0 9 .1 6 .3 8.9 3.1 9.1 9.1.1 2.3.1 3.1.1 9s0 6.7-.1 9z"/><path d="m-1142-3415.2c-6.3 0-11.5 5.1-11.5 11.5 0 6.3 5.1 11.5 11.5 11.5s11.5-5.1 11.5-11.5c-.1-6.4-5.2-11.5-11.5-11.5zm0 18.8c-4.1 0-7.4-3.3-7.4-7.4s3.3-7.4 7.4-7.4 7.4 3.3 7.4 7.4c0 2-.8 3.8-2.2 5.2-1.3 1.5-3.2 2.2-5.2 2.2z"/></g></svg>