<svg enable-background="new 0 0 75 75" viewBox="0 0 75 75" xmlns="http://www.w3.org/2000/svg"><g transform="translate(0 34)"><circle cx="37.5" cy="3.5" fill="#fc8223" r="35.6"/><path d="m55.9-4.2c.6 12.9-9 27.2-26 27.2-5 0-9.8-1.4-14-4.1 4.8.6 9.7-.8 13.5-3.8-3.9-.1-7.3-2.6-8.5-6.4 1.4.3 2.8.3 4.2-.1-4.3-.9-7.4-4.7-7.3-9.1 1.3.7 2.7 1.1 4.2 1.2-4-2.7-5.2-8-2.8-12.2 4.6 5.7 11.4 9.1 18.8 9.5-1.2-4.9 1.9-9.9 6.8-11 3.2-.8 6.5.3 8.8 2.7 2-.4 4-1.2 5.8-2.2-.7 2.1-2.1 3.9-4 5.1 1.8-.2 3.6-.7 5.3-1.4-1.4 1.7-3 3.3-4.8 4.6z" fill="#fff"/></g></svg>