<?xml version="1.0" encoding="utf-8"?>
<!-- Generator: Adobe Illustrator 26.0.1, SVG Export Plug-In . SVG Version: 6.00 Build 0)  -->
<svg version="1.1" id="Layer_1" xmlns="http://www.w3.org/2000/svg" xmlns:xlink="http://www.w3.org/1999/xlink" x="0px" y="0px"
	 viewBox="0 0 97 97" style="enable-background:new 0 0 97 97;" xml:space="preserve">
<style type="text/css">
	.st0{fill:#FF8200;}
	.st1{fill:#FFFFFF;}
	.st2{fill:none;}
</style>
<g>
	<circle id="Ellipse_229_00000117670438110897819120000014349426915621472930_" class="st0" cx="48.5" cy="48.5" r="48.5"/>
	<g id="Component_137_1_00000057141802827586947630000008951601434173157256_" transform="translate(142 14)">
		<path id="Path_4128_00000058570962857404740770000003945913968600092313_" class="st1" d="M-97.3,36.6c-0.6-0.1-1.2,0.2-1.3,0.8
			c-0.1,0.6,0.2,1.2,0.8,1.3s1.2-0.2,1.3-0.8S-96.7,36.7-97.3,36.6C-97.3,36.6-97.3,36.6-97.3,36.6z"/>
		<path id="Path_4129_00000153705045325321179810000016380959764146980271_" class="st1" d="M-91.6,36.2c-0.1,0.6,0.2,1.2,0.8,1.3
			s1.2-0.2,1.3-0.8s-0.2-1.2-0.8-1.3C-90.9,35.2-91.5,35.6-91.6,36.2C-91.6,36.2-91.6,36.2-91.6,36.2z"/>
		<path class="st1" d="M-85,53.9c-0.1,0-0.2,0-0.3,0l-1.9-0.4c-0.4-0.1-0.7-0.4-0.8-0.8l-0.1-1.5c-8.7,3.1-18.4-1.2-21.9-9.8
			c-3.6-8.9,0.7-19,9.5-22.6c8.9-3.6,19,0.7,22.6,9.5c0,0,0,0.1,0,0.1c0,0.1,0,0.1,0,0.2c0.1,0.4,0,0.7-0.2,1
			c-0.2,0.3-0.5,0.5-0.9,0.5l-8,1.4c-0.3,0-0.5-0.1-0.6-0.4l-1-5.3c0,0,0-0.1-0.1-0.1c0,0,0,0,0,0c0,0,0,0,0,0c0,0,0,0,0,0
			c0,0,0,0,0,0c0,0,0,0,0,0c0,0,0,0,0,0c-0.1-0.1-0.2-0.2-0.3-0.1c0,0-0.1,0-0.1,0c0,0,0,0-0.1,0c0,0,0,0.1-0.1,0.1l-4.9,5.9
			c0,0,0,0.1-0.1,0.1c-0.2,0.2-0.5,0.4-0.9,0.5c-0.2,0-0.4,0-0.6,0c-0.1,0-0.3-0.1-0.4-0.2l-6.9-3.8c0,0-0.1,0-0.1,0
			c-0.1,0-0.2,0.1-0.2,0.1c-0.1,0.1-0.1,0.2-0.1,0.3l1.8,10c0.1,0.3,0.2,0.6,0.5,0.8l8.1,5.8c0.1,0.1,0.2,0.1,0.4,0.1
			c0,0,0.1,0,0.1,0c0.2-0.1,0.3-0.2,0.3-0.3l4.6-7.1c0.1-0.2,0.4-0.3,0.6-0.2l8.2,1.9c0,0,0,0,0,0c0.7,0.2,1,0.9,0.9,1.6
			c0,0,0,0.1,0,0.1l-0.5-0.1l0.5,0.2c-0.4,0.9-5.9,11.6-6.2,12C-84.2,53.7-84.6,53.9-85,53.9z M-87.6,50c0.1,0,0.2,0,0.3,0.1
			c0.1,0.1,0.2,0.2,0.2,0.4l0.1,2.1l1.9,0.4c0.1,0,0.2,0,0.3-0.1c1.6-3.1,5.8-11.2,6.1-11.9c0.1-0.3,0-0.4-0.2-0.5l-7.9-1.8
			l-4.4,6.7c-0.1,0.3-0.4,0.6-0.8,0.7c-0.2,0.1-0.3,0.1-0.4,0.1c-0.4,0.1-0.8,0-1.1-0.2l-8.1-5.8c-0.5-0.3-0.8-0.8-0.9-1.4l-1.8-10
			c-0.1-0.4,0-0.7,0.2-1c0.2-0.3,0.5-0.5,0.9-0.6c0.2,0,0.4,0,0.7,0c0,0,0.1,0,0.1,0l7,3.8c0.1,0,0.1,0,0.2,0.1c0.1,0,0.1,0,0.2,0
			c0.1,0,0.2-0.1,0.3-0.2l4.9-5.9c0-0.1,0.1-0.2,0.2-0.3c0,0,0,0,0.1,0c0,0,0.1-0.1,0.2-0.1c0.1-0.1,0.2-0.1,0.4-0.2
			c0.5-0.1,1,0.1,1.4,0.5c0,0,0,0,0,0c0,0.1,0.1,0.1,0.1,0.2c0,0,0,0.1,0.1,0.1c0,0.1,0.1,0.2,0.1,0.2l0.9,4.8l7.5-1.3
			c0.1,0,0.2-0.1,0.2-0.1c0.1-0.1,0.1-0.2,0.1-0.3c0,0,0-0.1,0-0.1c-3.4-8.3-13-12.3-21.3-8.9c-8.4,3.4-12.4,13-9,21.3
			c3.4,8.3,13,12.4,21.3,9C-87.7,50-87.6,50-87.6,50z M-88.4,25.7C-88.4,25.7-88.4,25.7-88.4,25.7C-88.4,25.7-88.4,25.7-88.4,25.7z
			 M-88.4,25.7L-88.4,25.7L-88.4,25.7z"/>
		<g id="Rectangle_1427_00000137123893731834181650000014358169786349401731_" transform="translate(16.753 5.321) rotate(13)">
			
				<rect x="-126.4" y="31.2" transform="matrix(2.492084e-06 1 -1 2.492084e-06 -47.5825 154.9512)" class="st2" width="50.2" height="45"/>
			<path class="st1" d="M-79.6,78.8c-0.1,0-0.1,0-0.2,0l-43,0c-0.6,0-1-0.4-1-1l0-48.2c0-0.6,0.5-1,1-1l43,0c0.3,0,0.5,0.1,0.7,0.3
				c0.2,0.2,0.3,0.4,0.3,0.7l0,48.2c0,0.3-0.1,0.5-0.3,0.7C-79.2,78.6-79.4,78.7-79.6,78.8z M-121.7,76.8l41,0l0-46.2l-41,0
				L-121.7,76.8z"/>
		</g>
		<g id="Group_3280_00000000223497590648824900000004635309347635588795_" transform="translate(13.28 0) rotate(13)">
			<path class="st1" d="M-70.3,88.6c-0.9,0.2-1.8-0.4-2.3-0.8c-0.5-0.3-0.9-0.7-1.4-0.7c-0.5,0-0.8,0.2-1.1,0.5
				c-0.5,0.4-1.1,0.9-2.3,0.9c-1.2,0-1.9-0.5-2.3-0.9c-0.4-0.3-0.6-0.5-1.1-0.5c-0.5,0-0.8,0.2-1.1,0.5c-0.5,0.4-1.1,0.9-2.3,0.9
				c-1.2,0-1.9-0.5-2.3-0.9c-0.4-0.3-0.6-0.5-1.1-0.5c-0.5,0-0.8,0.2-1.1,0.5c-0.5,0.4-1.1,0.9-2.3,0.9c-1.2,0-1.9-0.5-2.3-0.9
				c-0.4-0.3-0.6-0.5-1.1-0.5c-0.5,0-0.8,0.2-1.1,0.5c-0.5,0.4-1.1,0.9-2.3,0.9c-1.2,0-1.9-0.5-2.3-0.9c-0.4-0.3-0.6-0.5-1.1-0.5
				c-0.5,0-0.8,0.2-1.1,0.5c-0.5,0.4-1.1,0.9-2.3,0.9c-1.2,0-1.9-0.5-2.3-0.9c-0.4-0.3-0.6-0.5-1.1-0.5c-0.5,0-0.8,0.2-1.1,0.5
				c-0.5,0.4-1.1,0.9-2.3,0.9c-1.2,0-1.9-0.5-2.3-0.9c-0.4-0.3-0.6-0.5-1.1-0.5c-0.5,0-0.8,0.2-1.1,0.5c-0.5,0.4-1.1,0.9-2.4,0.9
				l-0.6,0c-1.5,0-2-0.1-3.2-1.4c-1.3-1.4-1.4-1.9-1.4-3.5l0-0.5c0-1.3,0.5-2,0.8-2.5c0.3-0.4,0.5-0.7,0.5-1.3
				c0-0.6-0.2-0.9-0.5-1.3c-0.4-0.5-0.8-1.2-0.8-2.5c0-1.3,0.5-2,0.8-2.5c0.3-0.4,0.5-0.7,0.5-1.3c0-0.6-0.2-0.9-0.5-1.3
				c-0.4-0.5-0.8-1.2-0.8-2.5c0-1.3,0.5-2,0.8-2.5c0.3-0.4,0.5-0.7,0.5-1.3c0-0.6-0.2-0.9-0.5-1.3c-0.4-0.5-0.8-1.2-0.8-2.5
				c0-1.3,0.5-2,0.8-2.5c0.3-0.4,0.5-0.7,0.5-1.3c0-0.6-0.2-0.9-0.5-1.3c-0.4-0.5-0.8-1.2-0.8-2.5c0-1.3,0.5-2,0.8-2.5
				c0.3-0.4,0.5-0.7,0.5-1.3c0-0.6-0.2-0.9-0.5-1.3c-0.4-0.5-0.8-1.2-0.8-2.5c0-1.3,0.5-2,0.8-2.5c0.3-0.4,0.5-0.7,0.5-1.3
				c0-0.6-0.2-0.9-0.5-1.3c-0.4-0.5-0.8-1.2-0.8-2.5c0-1.3,0.5-1.9,0.8-2.5c0.3-0.4,0.5-0.7,0.5-1.4c0-0.5-0.3-1-0.7-1.5
				c-0.5-0.8-1.5-2.1-0.2-3.5c1.3-1.4,2.6-0.4,3.4,0.1c0.5,0.3,0.9,0.7,1.4,0.7c0.5,0,0.8-0.2,1.1-0.5c0.5-0.4,1.1-0.9,2.3-0.9
				c1.2,0,1.9,0.5,2.3,0.9c0.4,0.3,0.6,0.5,1.1,0.5c0.5,0,0.8-0.2,1.1-0.5c0.5-0.4,1.1-0.9,2.3-0.9c1.2,0,1.9,0.5,2.3,0.9
				c0.4,0.3,0.6,0.5,1.1,0.5c0.5,0,0.8-0.2,1.1-0.5c0.5-0.4,1.1-0.9,2.3-0.9c1.2,0,1.9,0.5,2.3,0.9c0.4,0.3,0.6,0.5,1.1,0.5
				c0.5,0,0.8-0.2,1.1-0.5c0.5-0.4,1.1-0.9,2.4-0.9c1.2,0,1.9,0.5,2.3,0.9c0.4,0.3,0.6,0.5,1.1,0.5c0.5,0,0.8-0.2,1.1-0.5
				c0.5-0.4,1.1-0.9,2.3-0.9c1.2,0,1.9,0.5,2.3,0.9c0.4,0.3,0.6,0.5,1.1,0.5c0.5,0,0.8-0.2,1.1-0.5c0.5-0.4,1.1-0.9,2.3-0.9
				c1.2,0,1.9,0.5,2.4,0.9c0.4,0.3,0.6,0.5,1.1,0.5c0.5,0,0.8-0.2,1.1-0.5c0.5-0.4,1.1-0.9,2.4-0.9l0.6,0c1.5,0,2,0.1,3.2,1.4
				c1.3,1.4,1.4,1.9,1.4,3.5l0,0.5c0,1.3-0.5,2-0.8,2.5c-0.3,0.4-0.5,0.7-0.5,1.3c0,0.6,0.2,0.9,0.5,1.3c0.4,0.5,0.8,1.2,0.8,2.5
				c0,1.3-0.5,2-0.8,2.5c-0.3,0.4-0.5,0.7-0.5,1.3c0,0.6,0.2,0.9,0.5,1.3c0.4,0.5,0.8,1.2,0.8,2.5c0,1.3-0.5,2-0.8,2.5
				c-0.3,0.4-0.5,0.7-0.5,1.3c0,0.6,0.2,0.9,0.5,1.3c0.4,0.5,0.8,1.2,0.8,2.5s-0.5,2-0.8,2.5c-0.3,0.4-0.5,0.7-0.5,1.3
				c0,0.6,0.2,0.9,0.5,1.3c0.4,0.5,0.8,1.2,0.8,2.5c0,1.3-0.5,2-0.8,2.5c-0.3,0.4-0.5,0.7-0.5,1.3c0,0.6,0.2,0.9,0.5,1.3
				c0.4,0.5,0.8,1.2,0.8,2.5c0,1.3-0.5,2-0.8,2.5c-0.3,0.4-0.5,0.7-0.5,1.3c0,0.6,0.2,0.9,0.5,1.3c0.4,0.5,0.8,1.2,0.8,2.5
				c0,1.2-0.5,2-0.9,2.5c-0.4,0.6-0.5,0.7-0.4,1.2c0.2,0.7,0.5,1.2,0.9,1.7c0.5,0.8,1.4,1.9,0,3.4C-69.6,88.3-70,88.5-70.3,88.6z
				 M-74.8,85.2c0.2-0.1,0.5-0.1,0.8-0.1c1.1,0,1.9,0.6,2.5,1c0.2,0.1,0.5,0.4,0.7,0.4c0,0,0,0,0,0l0,0c0.2-0.2,0.2-0.3,0.2-0.3
				c0-0.1-0.2-0.4-0.4-0.6c-0.4-0.5-0.9-1.2-1.2-2.3c-0.4-1.5,0.2-2.3,0.7-2.9c0.3-0.4,0.6-0.8,0.6-1.3c0-0.6-0.2-0.9-0.5-1.3
				c-0.4-0.5-0.8-1.2-0.8-2.5c0-1.3,0.5-2,0.8-2.5c0.3-0.4,0.5-0.7,0.5-1.3c0-0.6-0.2-0.9-0.5-1.3c-0.4-0.5-0.8-1.2-0.8-2.5
				c0-1.3,0.5-2,0.8-2.5c0.3-0.4,0.5-0.7,0.5-1.3c0-0.6-0.2-0.9-0.5-1.3c-0.4-0.5-0.8-1.2-0.8-2.5c0-1.3,0.5-2,0.8-2.5
				c0.3-0.4,0.5-0.7,0.5-1.3c0-0.6-0.2-0.9-0.5-1.3c-0.4-0.5-0.8-1.2-0.8-2.5c0-1.3,0.5-2,0.8-2.5c0.3-0.4,0.5-0.7,0.5-1.3
				c0-0.6-0.2-0.9-0.5-1.3c-0.4-0.5-0.8-1.2-0.8-2.5c0-1.3,0.5-2,0.8-2.5c0.3-0.4,0.5-0.7,0.5-1.3c0-0.6-0.2-0.9-0.5-1.3
				c-0.4-0.5-0.8-1.2-0.8-2.5c0-1.3,0.5-2,0.8-2.5c0.3-0.4,0.5-0.7,0.5-1.3l0-0.5c0-1.2,0-1.2-0.9-2.2c-0.7-0.8-0.7-0.8-1.7-0.8
				l-0.6,0c-0.5,0-0.8,0.2-1.1,0.5c-0.5,0.4-1.1,0.9-2.3,0.9c-1.2,0-1.9-0.5-2.4-0.9c-0.4-0.3-0.6-0.5-1.1-0.5
				c-0.5,0-0.8,0.2-1.1,0.5c-0.5,0.4-1.1,0.9-2.3,0.9c-1.2,0-1.9-0.5-2.4-0.9c-0.4-0.3-0.6-0.5-1.1-0.5c-0.5,0-0.8,0.2-1.1,0.5
				c-0.5,0.4-1.1,0.9-2.3,0.9c-1.2,0-1.9-0.5-2.4-0.9c-0.4-0.3-0.6-0.5-1.1-0.5c-0.5,0-0.8,0.2-1.1,0.5c-0.5,0.4-1.1,0.9-2.3,0.9
				c-1.2,0-1.9-0.5-2.4-0.9c-0.4-0.3-0.6-0.5-1.1-0.5c-0.5,0-0.7,0.2-1.1,0.5c-0.5,0.4-1.1,0.9-2.4,0.9c-1.2,0-1.9-0.5-2.3-0.9
				c-0.4-0.3-0.6-0.5-1.1-0.5c-0.5,0-0.8,0.2-1.1,0.5c-0.5,0.4-1.1,0.9-2.3,0.9c-1.2,0-1.9-0.5-2.3-0.9c-0.4-0.3-0.6-0.5-1.1-0.5
				c-0.5,0-0.7,0.2-1.1,0.5c-0.5,0.4-1.1,0.9-2.3,0.9c-1.1,0-1.9-0.6-2.5-1c-0.2-0.1-0.5-0.4-0.7-0.4c0,0,0,0,0,0
				c-0.1,0.1-0.1,0.2-0.1,0.2c0,0.1,0.3,0.5,0.5,0.8c0.4,0.6,1.1,1.5,1.1,2.6c0,1.3-0.5,1.9-0.8,2.5c-0.3,0.4-0.5,0.7-0.5,1.3
				s0.2,0.9,0.5,1.3c0.4,0.5,0.8,1.2,0.8,2.5c0,1.3-0.5,2-0.8,2.5c-0.3,0.4-0.5,0.7-0.5,1.3c0,0.6,0.2,0.9,0.5,1.4
				c0.4,0.5,0.8,1.2,0.8,2.5c0,1.3-0.5,2-0.8,2.5c-0.3,0.4-0.5,0.7-0.5,1.3c0,0.6,0.2,0.9,0.5,1.3c0.4,0.5,0.8,1.2,0.8,2.5
				c0,1.3-0.5,2-0.8,2.5c-0.3,0.4-0.5,0.7-0.5,1.3c0,0.6,0.2,0.9,0.5,1.3c0.4,0.5,0.8,1.2,0.8,2.5c0,1.3-0.5,2-0.8,2.5
				c-0.3,0.4-0.5,0.7-0.5,1.3c0,0.6,0.2,0.9,0.5,1.3c0.4,0.5,0.8,1.2,0.8,2.5c0,1.3-0.5,2-0.8,2.5c-0.3,0.4-0.5,0.7-0.5,1.3
				c0,0.6,0.2,0.9,0.5,1.3c0.4,0.5,0.8,1.2,0.8,2.5c0,1.3-0.5,2-0.8,2.5c-0.3,0.4-0.5,0.7-0.5,1.3l0,0.5c0,1.2,0,1.2,0.9,2.2
				c0.7,0.8,0.7,0.8,1.7,0.8l0.6,0c0.5,0,0.8-0.2,1.2-0.5c0.5-0.4,1.1-0.9,2.3-0.9c1.2,0,1.9,0.5,2.4,0.9c0.4,0.3,0.6,0.5,1.1,0.5
				c0.5,0,0.8-0.2,1.1-0.5c0.5-0.4,1.1-0.9,2.3-0.9c1.2,0,1.9,0.5,2.4,0.9c0.4,0.3,0.6,0.5,1.1,0.5c0.5,0,0.8-0.2,1.1-0.5
				c0.5-0.4,1.1-0.9,2.3-0.9c1.2,0,1.9,0.5,2.3,0.9c0.4,0.3,0.6,0.5,1.1,0.5c0.5,0,0.8-0.2,1.1-0.5c0.5-0.4,1.1-0.9,2.3-0.9
				c1.2,0,1.9,0.5,2.3,0.9c0.4,0.3,0.6,0.5,1.1,0.5c0.5,0,0.8-0.2,1.1-0.5c0.5-0.4,1.1-0.9,2.3-0.9c1.2,0,1.9,0.5,2.4,0.9
				c0.4,0.3,0.6,0.5,1.1,0.5c0.5,0,0.7-0.2,1.1-0.5c0.5-0.4,1.1-0.9,2.3-0.9c1.2,0,1.9,0.5,2.3,0.9c0.4,0.3,0.6,0.5,1.1,0.5
				c0.5,0,0.8-0.2,1.1-0.5C-76,85.7-75.5,85.4-74.8,85.2z"/>
		</g>
	</g>
</g>
</svg>
