<svg enable-background="new 0 0 39.8 85.1" viewBox="0 0 39.8 85.1" xmlns="http://www.w3.org/2000/svg"><g transform="matrix(.99254615 -.12186934 .12186934 .99254615 2914.038 1638.522)"><ellipse cx="-2697.2" cy="-1900.2" fill="#fff" rx="2.3" ry="2.3" transform="matrix(-.9925 -.1219 .1219 -.9925 -5142.7446 -4115.0005)"/><path d="m-2695.1-1912.9-3.2-4.8 5.7-1zm-1.5-4.1 1.3 2 1-2.4z" fill="#fc8323"/><circle cx="-2688" cy="-1927.6" fill="#fff" r="1.2"/><path d="m-2674.2-1927.8 1.7 2.8 1.3-2.7z" fill="#fc8323"/><path d="m-2672.5-1924-2.6-4.4 4.7.2zm-.8-3.3.7 1.2.6-1.2z" fill="#fc8323"/><ellipse cx="-2678.7" cy="-1959.2" fill="#fff" rx="2.3" ry="2.3" transform="matrix(-.9925 -.1219 .1219 -.9925 -5098.7461 -4230.231)"/><path d="m-2690-1943.5-2.1-7.4 7.9 2.5zm-.6-5.9 1.1 4.1 3.3-2.7z" fill="#fc8323"/><circle cx="-2680.5" cy="-1909.4" fill="#fc8323" r="1.2"/><path d="m-2669.8-1907.2-.8-4.5 4.5 2zm.6-2.8.2 1.2 1-.7z" fill="#fff"/><circle cx="-2663.5" cy="-1945.1" fill="#fc8323" r="1.2"/><path d="m-2659.2-1957.2-7.4-1.9 4.8-6zm-5.7-2.5 4.1 1-1.5-4.4z" fill="#fff"/><circle cx="-2665.6" cy="-1968.6" fill="#fff" r="1.2"/><g fill="#fc8323"><circle cx="-2688.6" cy="-1970.2" r="1.2"/><circle cx="-2667.8" cy="-1898.2" r="1.2"/><circle cx="-2672.2" cy="-1976.4" r="1.2"/></g></g></svg>