<svg enable-background="new 0 0 115.8 1809.2" viewBox="0 0 115.8 1809.2" xmlns="http://www.w3.org/2000/svg" xmlns:xlink="http://www.w3.org/1999/xlink"><clipPath id="a"><path d="m1.8 0h114v1809.2h-114z"/></clipPath><clipPath id="b"><path d="m71.9 56.7c0 41.1-33.3 74.4-74.4 74.4s-74.4-33.3-74.4-74.4 33.3-74.4 74.4-74.4 74.4 33.3 74.4 74.4zm-74.4-58.2c-32.1 0-58.2 26.1-58.2 58.2s26.1 58.2 58.2 58.2 58.2-26.1 58.2-58.2c0-32.2-26.1-58.2-58.2-58.2z"/></clipPath><g clip-path="url(#a)"><g opacity=".75" transform="translate(72.818 -1078.462)"><g fill="none"><g transform="translate(-266.661 907.174)"><path d="m224.3 237.5c-8.4-9.5-7.7-24.8-7.5-27.4 5.8-3.6 7.7-11.2 4.1-17s-11.2-7.7-17-4.1-7.7 11.2-4.1 17c1.1 1.8 2.7 3.3 4.5 4.4.2 3.1.7 18-7.5 27.2-9.2 10.4-6.9 16.1-6.9 16.1 13 6.5 28.3 6.5 41.2 0 .1-.1 2.4-5.8-6.8-16.2z"/><g stroke="#8b8989" stroke-width=".75"><circle cx="210.4" cy="199.5" r="12.4" stroke-miterlimit="10"/><path d="m211.6 211.9c-5.1-1.5-8.4-6.7-8.4-12.4 0-5.8 4.1-10.9 9.8-12.1" stroke-linecap="round" stroke-linejoin="round"/><path d="m219.9 230.3c-3.8-9-3.1-19-3-20.5" stroke-miterlimit="10"/><path d="m204.4 210.2c.2 2.8.8 18-7.5 27.3-9.2 10.4-6.9 16.1-6.9 16.1 10.9 5.5 23.5 6.3 34.9 2.6" stroke-miterlimit="10"/><path d="m219.9 240.2c-.2-.3-.5-.6-.8-.9-9.2-10.4-7.4-27.8-7.4-27.8" stroke-miterlimit="10"/><path d="m221.2 241.7c-5.6 2.3-15.6 4.4-25.6-2.7" stroke-miterlimit="10"/></g></g><g stroke="#8b8989" stroke-miterlimit="10" stroke-width=".75" transform="matrix(-.5 .8660254 -.8660254 -.5 86.431 1296.601)"><path d="m54 106 193.6-1.8c0-.8 2.8-6.9 2.8-6.9l-.2-14.6-2.9-7.1-193.6 1.7-30.6 13.9z"/><path d="m217.3 75.8.3 28.9"/><path d="m220.2 75.8.3 28.8"/><path d="m233.7 75.6.3 28.9"/><path d="m230.9 75.7.3 28.8"/><path d="m250.3 82.6-16.5.2"/><path d="m217.4 82.9c-52.1.5-160 1.5-160 1.5"/><path d="m250.4 96.9-16.2.2"/><path d="m217.5 97.3c-52.1.5-160 1.5-160 1.5"/><path d="m51.4 78.2 6.4 6.3-7.1 6.8 7.2 7.5-6.1 6.3"/><path d="m57.4 84.4-24.1 4.9"/><path d="m57.5 98.8-24.2-5"/><path d="m31.6 87.4 2.2 1.9-2.1 2.1 2.2 2.4-2.1 1.4"/></g><g transform="translate(-245.782 942.868)"><path d="m224.3 237.5c-8.4-9.5-7.7-24.8-7.5-27.4 5.8-3.6 7.7-11.2 4.1-17s-11.2-7.7-17-4.1-7.7 11.2-4.1 17c1.1 1.8 2.7 3.3 4.5 4.4.2 3.1.7 18-7.5 27.2-9.2 10.4-6.9 16.1-6.9 16.1 13 6.5 28.3 6.5 41.2 0 .1-.1 2.4-5.8-6.8-16.2z"/><g stroke="#8b8989" stroke-width=".75"><circle cx="210.4" cy="199.5" r="12.4" stroke-miterlimit="10"/><path d="m211.6 211.9c-5.1-1.5-8.4-6.7-8.4-12.4 0-5.8 4.1-10.9 9.8-12.1" stroke-linecap="round" stroke-linejoin="round"/><path d="m204.4 210.2c.2 2.8.8 18-7.5 27.3-9.2 10.4-6.9 16.1-6.9 16.1 13 6.5 28.3 6.5 41.2 0 0 0 2.3-5.8-6.9-16.1-8.7-9.8-7.6-25.8-7.4-27.6" stroke-miterlimit="10"/><path d="m226.2 255.8s1.5-6.8-7-16.5c-9.2-10.4-7.4-27.8-7.4-27.8" stroke-miterlimit="10"/><path d="m225.8 239.4s-15.1 10.3-30.2-.4" stroke-miterlimit="10"/></g></g><g stroke="#8b8989" stroke-miterlimit="10" stroke-width=".75" transform="translate(20.262 1555.751)"><path d="m-76.1 33.5 17.3-48.9c.5-1.3 1.9-2 3.2-1.5l48.8 17.3c1.3.5 2 1.9 1.5 3.2l-17.3 48.9c-.5 1.3-1.9 2-3.2 1.5l-48.9-17.3c-1.2-.5-1.9-1.9-1.4-3.2z"/><g transform="translate(11.933 11.933)"><circle cx="-72.6" cy="16.1" r="4.3"/><circle cx="-52.6" cy="6.6" r="4.3"/><circle cx="-62.2" cy="-13.4" r="4.3"/><circle cx="-43.1" cy="26.6" r="4.3"/><circle cx="-32.6" cy="-3" r="4.3"/></g></g><g stroke="#8b8989" stroke-width=".7504" transform="matrix(.545 .839 -.839 .545 349.474 2037.807)"><g stroke-miterlimit="10.0094"><g transform="translate(40.847 391.7)"><path d="m-26.7 98.1 102.2 109.1"/><path d="m-1 74.1 102.2 109"/></g><path d="m40.2 463.3c.7.7.8 1.9.2 2.7-1.3 1.9-4.4 5.8-12.2 13.1-7.3 6.8-11.4 9.8-13.5 11.1-1.1.7-2.5.5-3.4-.5l-9.1-9.7 28.5-26.7z"/><path d="m152.4 583c.4.4.4 1 .2 1.4-.9 1.5-3.6 5.5-12.6 13.9s-13.1 10.9-14.7 11.7c-.5.2-1.1.1-1.4-.3l-8.5-9.1c-.5-.5-.4-1.3.1-1.7.1-.1.2-.1.2-.2 1.8-1 5.7-3.9 13.9-11.5s11.2-11.3 12.4-13.1c.4-.6 1.1-.7 1.7-.4.1.1.2.1.2.2z"/><path d="m31.2 448-34.4 32.2c-.7.7-1 1.7-.7 2.7.2.8 1.1 1.3 1.9 1 .2-.1.4-.2.6-.3l36-33.7c.6-.6.6-1.5.1-2.1-.2-.2-.4-.3-.6-.4-1-.4-2.1-.2-2.9.6z"/><path d="m152.5 582.9c3.9-2.1 6.7-2.8 7.9-1.6 2.4 2.6-4.5 13-15.4 23.2s-21.7 16.5-24.2 13.9c-1.2-1.2-.2-4.2 2.4-8.2"/><g transform="translate(106.359 463.984)"><path d="m12.2 131.9-33-35.2-3.8-14c-.4-1.6-.4-3.4.2-4.9.9-2.3 2.8-4.1 5.1-4.9h.1c1.7-.5 3.4-.5 5.1 0l13.7 4.7 33 35.2"/><path d="m-20.8 96.7s5.4-10.3 20.4-19.1"/></g><g transform="translate(44.501 395.07)"><path d="m-6.3 74.1 39.9 42.6 3.8 14c.4 1.6.4 3.4-.2 4.9-.9 2.3-2.8 4.1-5.1 4.9h-.1c-1.7.5-3.4.5-5.1 0l-13.7-4.7-39.9-42.6"/><path d="m33.6 116.7s-5.4 10.3-20.4 19.1"/></g><path d="m121 594.7-1.9-2c-.9-1-1.2-2.4-.8-3.7l2.3-6.9c.5-1.6 1.8-2.9 3.4-3.5l7.9-2.7c1.3-.4 2.7-.1 3.7.9l2.2 2.3"/></g><path d="m71.3 535.6s8.5 3 10.7 11.9" stroke-linecap="round" stroke-linejoin="round" stroke-miterlimit="4.0038"/><path d="m82.3 527.3c1.7 4 4.7 7.2 8.5 9.1" stroke-linecap="round" stroke-linejoin="round" stroke-miterlimit="4.0038"/><path d="m46.8 518.8s4.9-3.5 5.9-8.3 9.5-11.2 13.6-11.3" stroke-miterlimit="10.0094"/><path d="m75.2 535.9 47.1 43.4-40.3-49.8" stroke-miterlimit="10.0094"/></g></g><g transform="translate(-404.438 2291.465)"><g transform="translate(332.866 419.404)"><circle cx="11.7" cy="70.9" fill="none" r="88.6" stroke="#8b8989" stroke-miterlimit="10" stroke-width=".75"/><g transform="translate(14.219 14.219)"><g clip-path="url(#b)"><g fill="none" stroke="#8b8989" stroke-miterlimit="10" stroke-width=".75" transform="translate(-13.733 -14.4)"><path d="m-76.9 70.9h177.2"/><path d="m11.7-17.7v177.2"/><path d="m-51 8.2 125.4 125.4"/><path d="m74.4 8.2-125.4 125.4"/><path d="m-70.2 104.8 163.8-67.8"/><path d="m-22.2-11 67.8 163.8"/><path d="m-70.2 37 163.8 67.8"/><path d="m45.6-11-67.8 163.8"/><path d="m-75.2 88.2 173.8-34.6"/><path d="m-5.6-16 34.6 173.8"/><path d="m-62 21.7 147.4 98.4"/><path d="m60.9-2.8-98.4 147.4"/><path d="m-62 120.1 147.4-98.4"/><path d="m-37.5-2.8 98.4 147.4"/><path d="m-75.2 53.6 173.8 34.6"/><path d="m29-16-34.6 173.8"/></g></g><path d="m71.9 56.7c0 41.1-33.3 74.4-74.4 74.4s-74.4-33.3-74.4-74.4 33.3-74.4 74.4-74.4 74.4 33.3 74.4 74.4zm-74.4-58.2c-32.1 0-58.2 26.1-58.2 58.2s26.1 58.2 58.2 58.2 58.2-26.1 58.2-58.2c0-32.2-26.1-58.2-58.2-58.2z" fill="none" stroke="#8b8989" stroke-miterlimit="10" stroke-width=".75"/></g><path d="m86.1 70.9c0 41.1-33.3 74.4-74.4 74.4s-74.4-33.3-74.4-74.4 33.3-74.4 74.4-74.4 74.4 33.3 74.4 74.4zm-74.4-58.2c-32.1 0-58.2 26.1-58.2 58.2s26.1 58.2 58.2 58.2 58.2-26.1 58.2-58.2-26-58.2-58.2-58.2z" fill="none" stroke="#8b8989" stroke-miterlimit="10" stroke-width=".75"/></g><g transform="translate(41.694 44.006)"><path d="m322.7 426.5-16 6.7 5.8 1.5-17.8 17.8-7.9 2.5-7.4 7.4 7.7-.5-.5 7.7 7.4-7.4 2.5-7.9 17.8-17.8 1.5 5.8z" fill="none"/><path d="m322.7 426.5-16 6.7 5.8 1.5-17.8 17.8-7.9 2.5-7.4 7.4 7.7-.5-.5 7.7 7.4-7.4 2.5-7.9 17.8-17.8 1.5 5.8zm1.4-1.4-.7 1.7-6.7 16-.8 2-.6-2.1-1.2-4.6-16.8 16.8-2.5 7.7-.1.2-.1.1-7.4 7.4-1.4 1.4.1-2 .4-6.9-6.9.4-2 .1 1.4-1.4 7.4-7.4.1-.1.2-.1 7.7-2.5 16.8-16.8-4.6-1.2-2.1-.6 2-.8 16-6.7z" fill="#8b8989"/></g><g fill="none" stroke="#8b8989" stroke-miterlimit="10" stroke-width=".75"><path d="m320.8 496.8c-2.6-12.1 5.2-24.1 17.3-26.6 1.5-.3 3.1-.5 4.6-.5.7 0 1.4 0 2.1.1"/><path d="m364.7 487.5c2.6 12.1-5.2 24.1-17.3 26.6-1.5.3-3.1.5-4.6.5-.7 0-1.4 0-2.1-.1"/></g></g><g fill="none" stroke="#8b8989" stroke-miterlimit="10.0085" stroke-width=".7503" transform="matrix(.485 -.875 .875 .485 -24.5322 1696.58051)"><path d="m-21-32.8 14.4-40.7c.5-1.3 1.9-2 3.2-1.5l40.7 14.4c1.3.5 2 1.9 1.5 3.2l-14.4 40.7c-.5 1.3-1.9 2-3.2 1.5l-40.7-14.4c-1.2-.5-1.9-1.9-1.5-3.2z"/><g transform="translate(10.115 10.115)"><circle cx="-18.1" cy="-47.1" r="3.7"/><circle cx="-1.2" cy="-55.2" r="3.7"/><circle cx="-9.3" cy="-72.2" r="3.7"/><circle cx="6.9" cy="-38.3" r="3.7"/><circle cx="15.8" cy="-63.3" r="3.7"/></g></g><g fill="none" transform="translate(-254.417 1895.287)"><path d="m224.3 237.5c-8.4-9.5-7.7-24.8-7.5-27.4 5.8-3.6 7.7-11.2 4.1-17s-11.2-7.7-17-4.1-7.7 11.2-4.1 17c1.1 1.8 2.7 3.3 4.5 4.4.2 3.1.7 18-7.5 27.2-9.2 10.4-6.9 16.1-6.9 16.1 13 6.5 28.3 6.5 41.2 0 .1-.1 2.4-5.8-6.8-16.2z"/><g stroke="#8b8989" stroke-width=".75"><circle cx="210.4" cy="199.5" r="12.4" stroke-miterlimit="10"/><path d="m211.6 211.9c-5.1-1.5-8.4-6.7-8.4-12.4 0-5.8 4.1-10.9 9.8-12.1" stroke-linecap="round" stroke-linejoin="round"/><path d="m204.4 210.2c.2 2.8.8 18-7.5 27.3-9.2 10.4-6.9 16.1-6.9 16.1 13 6.5 28.3 6.5 41.2 0 0 0 2.3-5.8-6.9-16.1-8.7-9.8-7.6-25.8-7.4-27.6" stroke-miterlimit="10"/><path d="m226.2 255.8s1.5-6.8-7-16.5c-9.2-10.4-7.4-27.8-7.4-27.8" stroke-miterlimit="10"/><path d="m225.8 239.4s-15.1 10.3-30.2-.4" stroke-miterlimit="10"/></g></g></g><g fill="none" stroke="#8b8989" stroke-miterlimit="10" stroke-width=".75" transform="translate(1298.362 2140.35)"><path d="m-1281.9-1370.5h-7.1c-1.8 0-3.6.2-5.3.6-27.2 6.6-27 33.1-27 33.1h-2.2c-.8 0-1.5.7-1.5 1.5v5c0 .8.7 1.5 1.5 1.5h83.1c.8 0 1.5-.7 1.5-1.5v-5c0-.8-.7-1.5-1.5-1.5h-2.2s.2-26.6-27-33.1c-1.7-.4-3.5-.6-5.3-.6z"/><path d="m-1287.6-1383.8h11.2v3.8h-3.7v9.5h-3.8v-9.5h-3.7z"/><path d="m-1289.2-1328.8h14.6v7.4h-14.6z"/><path d="m-1289.2-1321.4h-30.7c-.8 0-1.5.4-1.9 1.1-1.3 2.3-4.3 7.3-7.2 9.9v3.9h94.4v-3.9c-2.9-2.6-5.9-7.6-7.2-9.9-.4-.7-1.1-1.1-1.9-1.1h-30.7"/><path d="m-1242.6-1336.7h-78.7"/><path d="m-1280-1380h-3.9"/><path d="m-1234.7-1310.4h-94.4"/><path d="m-1291.8-1370.3s-16.3 5.5-15.6 33.6"/><path d="m-1272.7-1370.3s16.3 5.5 15.6 33.6"/></g></g></svg>