<svg enable-background="new 0 0 157.8 90" viewBox="0 0 157.8 90" xmlns="http://www.w3.org/2000/svg"><g transform="matrix(.0348995 -.99939083 .99939083 .0348995 -2.427 84.803)"><ellipse cx="22.6" cy="146.6" fill="#fff" rx="4.4" ry="4.4" transform="matrix(-.03490153 -.9994 .9994 -.03490153 -123.1517 174.2561)"/><path d="m20.8 113.8 10.1-1.7-4.4 10.2zm7.6.3-5.1.9 2.9 4.3z" fill="#fc8323"/><circle cx="39.8" cy="95.2" fill="#fff" r="2.2"/><path d="m65.8 94.7 3.1 5.2 2.5-5z" fill="#fc8323"/><path d="m64.9 94.2 7.3.3-3.2 6.5zm5.7 1.2-3.9-.1 2.2 3.6z" fill="#fc8323"/><circle cx="57.3" cy="35.8" fill="#fff" r="4.4"/><path d="m32.5 51.7 14.2 4.4-10.5 8.8zm11.2 5-9-2.8 2.3 8.4z" fill="#fc8323"/><circle cx="54" cy="129.3" fill="#fc8323" r="2.2"/><path d="m.2 117.9 7.9 3.4-6.6 4.4zm4.7 3.7-2.8-1.2.5 2.8z" fill="#fff"/><circle cx="80.8" cy="48" fill="#fc8323" r="2.2"/><path d="m71.5 69.5 8.5-10.7 4.8 14.1zm8-7.6-5.4 6.8 8.4 2.1z" fill="#fff"/><circle cx="81.9" cy="18.2" fill="#fff" r="2.2"/><g fill="#fc8323"><circle cx="38.7" cy="15.1" r="2.2"/><circle cx="61.4" cy="154" r="2.2"/><circle cx="69.5" cy="3.4" r="2.2"/></g><path d="m70.4 122.7 8.1-2.9-1.8 7.7zm6-.5-2.9 1 2.3 1.7z" fill="#fff"/></g></svg>