<svg enable-background="new 0 0 81.7 55.1" viewBox="0 0 81.7 55.1" xmlns="http://www.w3.org/2000/svg"><g transform="matrix(-.8660254 -.5 .5 -.8660254 58.309 157.61)"><ellipse cx="55.5" cy="92.6" fill="#fff" rx="2.3" ry="2.3" transform="matrix(.866 -.5 .5 .866 -38.8439 40.17)"/><path d="m60 118.8 7.6-1.3-3.3 7.6zm5.9.1-4.2.7 2.4 3.5z" fill="#fc8323"/><circle cx="78.2" cy="110.3" fill="#fff" r="1.2"/><path d="m91.3 105 1.7 2.8 1.3-2.7z" fill="#fc8323"/><path d="m90.4 104.4 4.7.2-2.1 4.2zm3.1 1.1h-1.3l.7 1.2z" fill="#fc8323"/><ellipse cx="90.3" cy="81.9" fill="#fff" rx="2.3" ry="2.3" transform="matrix(.866 -.5 .5 .866 -28.8627 56.1044)"/><path d="m69.6 89.4 7.9 2.5-5.9 4.9zm5.9 2.9-4.4-1.4 1.1 4.1z" fill="#fc8323"/><circle cx="45.9" cy="120.6" fill="#fc8323" r="1.2"/><path d="m97.9 118.2 4.5 2-3.8 2.5zm2.5 2.1-1.2-.5.2 1.2z" fill="#fff"/><circle cx="107.8" cy="107.1" fill="#fc8323" r="1.2"/><path d="m113.6 87.5 2.7 7.9-7.4-1.9zm1.1 6.4-1.5-4.4-2.7 3.3z" fill="#fff"/><circle cx="101.2" cy="64.3" fill="#fff" r="1.2"/><g fill="#fc8323"><circle cx="92.9" cy="71" r="1.2"/><circle cx="102.7" cy="87.9" r="1.2"/></g></g></svg>