<svg enable-background="new 0 0 115.8 1809.2" viewBox="0 0 115.8 1809.2" xmlns="http://www.w3.org/2000/svg" xmlns:xlink="http://www.w3.org/1999/xlink"><clipPath id="a"><path d="m0 0h115.2v1809.2h-115.2z"/></clipPath><clipPath id="b"><path d="m-1224.9 95.1c0 30.9-25.1 56-56 56s-56-25.1-56-56 25.1-56 56-56c31 0 56 25.1 56 56zm-56-43.8c-24.2 0-43.8 19.6-43.8 43.8s19.6 43.9 43.8 43.9 43.8-19.6 43.8-43.8c0-24.3-19.6-43.9-43.8-43.9z"/></clipPath><clipPath id="c"><path d="m-1338.9 128.6 32.3 6.4-18.2-10.9s-3.9-1 .2-8c4.2-7 53.3-88.6 53.3-88.6s2.1-1.7 7.7 1.7 30.4 18.2 30.4 18.2l4.5.8v-14l-82.6-25.3z"/></clipPath><clipPath id="d"><path d="m-1338.9 128.6 32.3 6.4-18.2-10.9s-3.9-1 .2-8c4.2-7 53.3-88.6 53.3-88.6s2.1-1.7 7.7 1.7 30.4 18.2 30.4 18.2l4.5.8v-14l-82.6-25.3z"/></clipPath><clipPath id="e"><path d="m-1265.1 145.6-68.1-19.3c-2.1-.6-3.3-2.8-2.7-4.8l28.7-101.1c.6-2.1 2.8-3.3 4.8-2.7l68.1 19.3c2.1.6 3.3 2.8 2.7 4.8l-28.7 101.1c-.5 2.1-2.7 3.3-4.8 2.7z"/></clipPath><g clip-path="url(#a)"><g opacity=".75" transform="translate(72.818 -1078.462)"><g transform="translate(1290.582 2053.966)"><g fill="none" stroke="#8b8989" stroke-miterlimit="10" stroke-width=".75" transform="translate(7.78 86.384)"><path d="m-1289.8-4.4h-7.1c-1.8 0-3.6.2-5.3.6-27.2 6.6-27 33.1-27 33.1h-2.2c-.8 0-1.5.7-1.5 1.5v5c0 .8.7 1.5 1.5 1.5h83.1c.8 0 1.5-.7 1.5-1.5v-5c0-.8-.7-1.5-1.5-1.5h-2.1s.2-26.6-27-33.1c-1.7-.4-3.5-.6-5.3-.6z"/><path d="m-1295.4-17.7h11.2v3.8h-3.7v9.5h-3.8v-9.6h-3.7z"/><path d="m-1297.1 37.3h14.6v7.4h-14.6z"/><path d="m-1297.1 44.6h-30.7c-.8 0-1.5.4-1.9 1.1-1.3 2.3-4.3 7.3-7.2 9.9v3.9h94.4v-3.9c-2.9-2.6-5.9-7.6-7.2-9.9-.4-.7-1.1-1.1-1.9-1.1h-30.7"/><path d="m-1250.4 29.3h-78.7"/><path d="m-1287.8-14h-3.9"/><path d="m-1242.6 55.7h-94.3"/><path d="m-1299.6-4.2s-16.3 5.5-15.6 33.6"/><path d="m-1280.5-4.2s16.3 5.5 15.6 33.6"/></g><g fill="#8b8989" transform="translate(39.05 58.837)"><path d="m-1320.8-2.8 1.9-14.9h-3.7z"/><path d="m-1325.8-2-8.9-9-2.2 3z"/><path d="m-1316.3-2 8.9-9 2.2 3z"/></g><g fill="none" stroke="#8b8989" stroke-miterlimit="10" stroke-width=".75"><path d="m-1263.8 33.6c-1.9-.8-3.6-1.4-5.2-2.2-3.2-1.6-6.6-2.5-10.2-2.7-5.5-.2-10.2-1.3-15.6-.5-1.8.3-3.8 1.5-5.5 2.2-.9.3-1.7.7-2.5 1.1s-1.3 1.1-1.4 2c-.2 1-.1 3.3 2.9 4 1.5.3 3 .5 4.5.6 2.9.2 5.8-.4 8.6-.4 4.5 0 8.9 1.2 12.6 3.6 3.9 2.3 8 4.3 12 6.4 4.9 2.6 10.6 3.1 15.8 1.3 6.6-2.1 13.2-4.4 19.9-6.6l-12-20.7c-1.5.7-2.9 1.4-4.3 2.2-4.2 2.7-8.3 2.6-12.8.6-6.2-2.8-12.6-5.1-19-7.6-5.6-2.5-12.1-2.2-17.5.7-12.6 6.5-25.3 12.8-37.9 19.3-1.6.8-3.1 1.9-4.4 3.1-1.6 1.5-1.4 3.2.4 4.5 2.2 1.6 4.6 1.6 7.1 1 1.8-.4 3.5-1 5.2-1.6.4 2.6 1.7 3.6 4.7 3.7 2.6.1 5.3-.5 7.5-1.9.4-.2.9-.2 1.3 0 2 1.9 5 2.5 7.6 1.5 1.9-.6 3.7-1.3 5.6-2.1 2.2-.9 12-5.5 14.2-6.8"/><path d="m-1311 45.7 17-7.6"/><path d="m-1304.1 35.2-19.1 8.7"/><path d="m-1297.7 19.8c4.3-2.3 9.1-3.4 14-2.9 2.4.3 9.6 3 12.5 4.5"/><path d="m-1303.3 31.8s7.6-2.1 7.6 1.6c0 3.8-7.6 3.2-7.6 3.2"/><path d="m-1328.9 35.6s1.1 4.1-7.9 7.3"/></g></g><g fill="none" stroke="#8b8989" stroke-width=".75" transform="matrix(.899 .438 -.438 .899 1438.291 733.823)"><g stroke-miterlimit="10.0004"><g transform="translate(40.847 391.7)"><path d="m-1201.5 609.5 98.6 112.4"/><path d="m-1175 586.3 98.5 112.4"/></g><path d="m-1133.7 975.5c.7.8.7 1.9.2 2.7-1.3 1.9-4.6 5.7-12.6 12.7-7.5 6.6-11.7 9.4-13.8 10.6-1.1.6-2.5.4-3.3-.6l-8.7-10 29.4-25.8z"/><path d="m-1025.6 1098.9c.4.4.4 1 .1 1.4-.9 1.5-3.8 5.3-13.1 13.4s-13.4 10.5-15 11.2c-.5.2-1.1.1-1.4-.3l-8.2-9.4c-.4-.5-.4-1.3.1-1.7.1-.1.2-.1.3-.2 1.9-1 5.9-3.7 14.3-11s11.6-11 12.8-12.7c.4-.6 1.2-.7 1.7-.3.1.1.2.1.2.2z"/><path d="m-1142.2 959.9-35.5 31.1c-.8.7-1.1 1.7-.8 2.7.2.8 1.1 1.3 1.9 1.1l.6-.3 37.1-32.5c.6-.5.7-1.5.1-2.1-.2-.2-.3-.3-.6-.4-.9-.5-2-.3-2.8.4z"/><path d="m-1025.4 1098.8c3.9-2 6.8-2.5 7.9-1.3 2.3 2.6-4.9 12.8-16.2 22.7s-22.3 15.8-24.6 13.1c-1.1-1.3 0-4.2 2.6-8.1"/><g transform="translate(106.359 463.984)"><path d="m-1166.1 646.6-31.8-36.2-3.3-14.1c-.4-1.6-.2-3.4.4-4.9 1-2.3 2.9-4 5.3-4.7h.1c1.7-.5 3.5-.4 5.1.2l13.5 5.1 31.8 36.2"/><path d="m-1197.9 610.4s5.7-10.1 21-18.5"/></g><g transform="translate(44.501 395.07)"><path d="m-1180.4 586.3 38.5 43.9 3.3 14.1c.4 1.6.2 3.4-.4 4.9-1 2.3-2.9 4-5.3 4.7h-.1c-1.7.5-3.5.4-5.1-.2l-13.5-5.1-38.5-43.9"/><path d="m-1141.9 630.2s-5.7 10.1-21 18.5"/></g><path d="m-1057.3 1109.5-1.9-2.1c-.9-1-1.2-2.5-.7-3.7l2.5-6.9c.6-1.6 1.9-2.8 3.5-3.3l8-2.4c1.3-.4 2.7 0 3.6 1l2.1 2.4"/></g><path d="m-1105 1048.8s8.4 3.3 10.3 12.3" stroke-linecap="round" stroke-linejoin="round" stroke-miterlimit="4.0002"/><path d="m-1093.7 1040.9c1.5 4 4.4 7.3 8.2 9.4" stroke-linecap="round" stroke-linejoin="round" stroke-miterlimit="4.0002"/><path d="m-1129 1031.2s5-3.4 6.2-8.1 9.9-10.9 13.9-10.8" stroke-miterlimit="10.0004"/><path d="m-1101.2 1049.3 45.6 44.9-38.5-51.1" stroke-miterlimit="10.0004"/></g><g transform="translate(966.389 907.45)"><g transform="translate(332.866 419.404)"><circle cx="-1270.2" cy="105.9" fill="none" r="66.7" stroke="#8b8989" stroke-miterlimit="10" stroke-width=".75"/><g transform="translate(10.708 10.708)"><g clip-path="url(#b)"><g fill="none" stroke="#8b8989" stroke-miterlimit="10" stroke-width=".75" transform="translate(-10.342 -10.845)"><path d="m-1336.9 105.9h133.5"/><path d="m-1270.2 39.1v133.5"/><path d="m-1317.4 58.7 94.4 94.4"/><path d="m-1223 58.7-94.4 94.4"/><path d="m-1331.8 131.4 123.3-51.1"/><path d="m-1295.7 44.2 51.1 123.3"/><path d="m-1331.8 80.3 123.3 51.1"/><path d="m-1244.6 44.2-51.1 123.3"/><path d="m-1335.6 118.9 130.9-26.1"/><path d="m-1283.2 40.4 26 130.9"/><path d="m-1325.7 68.8 111 74.1"/><path d="m-1233.1 50.4-74.2 111"/><path d="m-1325.7 142.9 111-74.1"/><path d="m-1307.3 50.4 74.2 111"/><path d="m-1335.6 92.8 130.9 26.1"/><path d="m-1257.2 40.4-26 130.9"/></g></g><path d="m-1224.9 95.1c0 30.9-25.1 56-56 56s-56-25.1-56-56 25.1-56 56-56c31 0 56 25.1 56 56zm-56-43.8c-24.2 0-43.8 19.6-43.8 43.8s19.6 43.9 43.8 43.9 43.8-19.6 43.8-43.8c0-24.3-19.6-43.9-43.8-43.9z" fill="none" stroke="#8b8989" stroke-miterlimit="10" stroke-width=".75"/></g><path d="m-1214.1 105.9c0 30.9-25.1 56-56 56s-56-25.1-56-56 25.1-56 56-56c30.9-.1 56 25 56 56zm-56.1-43.9c-24.2 0-43.8 19.6-43.8 43.9s19.6 43.8 43.8 43.8 43.8-19.6 43.8-43.8c.1-24.3-19.6-43.9-43.8-43.9z" fill="none" stroke="#8b8989" stroke-miterlimit="10" stroke-width=".75"/></g><g transform="translate(25.596 27.016)"><path d="m-948 483.3-12.1 5.1 4.4 1.2-13.4 13.4-5.9 1.9-5.6 5.6 5.8-.4-.4 5.8 5.6-5.6 1.9-5.9 13.4-13.4 1.2 4.4z" fill="none"/><path d="m-948 483.3-12.1 5.1 4.4 1.2-13.4 13.4-5.9 1.9-5.6 5.6 5.8-.4-.4 5.8 5.6-5.6 1.9-5.9 13.4-13.4 1.2 4.4zm1.4-1.4-.7 1.7-5.1 12.1-.8 2-.6-2.1-.8-3.1-12.4 12.3-1.9 5.8-.1.2-.1.1-5.6 5.6-1.4 1.4.1-2 .3-5-5 .3-2 .1 1.4-1.4 5.6-5.6.1-.1.2-.1 5.8-1.9 12.4-12.4-3.1-.8-2.1-.6 2-.8 12.1-5.1z" fill="#8b8989"/></g><g fill="none" stroke="#8b8989" stroke-miterlimit="10" stroke-width=".75"><path d="m-955.2 530.1c-1.9-9.1 3.9-18.1 13.1-20.1 1.1-.2 2.3-.4 3.5-.4.5 0 1.1 0 1.6.1"/><path d="m-922.1 523.1c1.9 9.1-3.9 18.1-13.1 20.1-1.1.2-2.3.4-3.5.4-.5 0-1.1 0-1.6-.1"/></g></g><g transform="translate(1282.961 1572.527)"><path clip-path="url(#c)" d="m-1265.1 145.6-68.1-19.3c-2.1-.6-3.3-2.8-2.7-4.8l28.7-101.1c.6-2.1 2.8-3.3 4.8-2.7l68.1 19.3c2.1.6 3.3 2.8 2.7 4.8l-28.7 101.1c-.5 2.1-2.7 3.3-4.8 2.7z" fill="none" stroke="#8b8989" stroke-miterlimit="10" stroke-width=".75"/><g clip-path="url(#d)"><g clip-path="url(#e)"><g fill="none" stroke="#8b8989" stroke-miterlimit="10" stroke-width=".75" transform="translate(-19.305 -5.735)"><path d="m-1281.7 17.3 34.8 137.9"/><path d="m-1272.5 17.5 34.8 137.8"/><path d="m-1263.3 17.6 34.8 137.8"/><path d="m-1254 17.7 34.7 137.9"/><path d="m-1244.8 17.9 34.7 137.8"/><path d="m-1235.6 18 34.7 137.8"/><path d="m-1226.4 18.2 34.7 137.8"/><path d="m-1336.9 16.5 34.7 137.8"/><path d="m-1327.7 16.7 34.7 137.8"/><path d="m-1318.5 16.8 34.7 137.8"/><path d="m-1309.3 16.9 34.7 137.8"/><path d="m-1300.1 17.1 34.8 137.8"/><path d="m-1290.9 17.2 34.8 137.8"/></g></g><path d="m-1310.2 132.8-22.9-6.5c-2.1-.6-3.3-2.8-2.7-4.8l28.7-101.1c.6-2.1 2.8-3.3 4.8-2.7l68.1 19.3c2.1.6 3.3 2.8 2.7 4.8l-1.6 5.6-27.1 95.5c-.6 2.1-50-10.1-50-10.1z" fill="none" stroke="#8b8989" stroke-miterlimit="10" stroke-width=".75"/></g><path d="m-1264.1 160.5-60.7-36.3c-1.9-1.1-2.5-3.5-1.4-5.4l53.9-90.2c1.1-1.9 3.5-2.5 5.4-1.4l60.7 36.3c1.9 1.1 2.5 3.5 1.4 5.4l-53.9 90.2c-1.1 1.9-3.5 2.5-5.4 1.4z" fill="none" stroke="#8b8989" stroke-miterlimit="9.9967" stroke-width=".75"/><path d="m-1265.3 45.7c-.1-.1-.1-.2-.1-.3l.1-1.3c-.4 0-.8-.1-1.1-.4-1.6-.9-1.6-2.9-.6-4.6s2.7-2.6 4.3-1.6 1.6 2.9.6 4.6c-.7 1.1-1.6 1.8-2.6 2l-.1 1.4v.1c-.2.2-.4.2-.5.1zm2.2-7.7c-1.3-.8-2.7.2-3.5 1.5s-1 3 .4 3.8c.3.2.6.3.9.3l.1-1.3c0-.1 0-.1 0-.2.1-.1.2-.2.4-.1.1.1.1.2.1.3l-.1 1.2c.8-.2 1.5-.9 2-1.7.8-1.3 1-3-.3-3.8z" fill="#8b8989"/><g fill="none" stroke="#8b8989" stroke-miterlimit="10" stroke-width=".75"><path d="m-1265.3 45.7c-.1-.1-.1-.2-.1-.3l.1-1.3c-.4 0-.8-.1-1.1-.4-1.6-.9-1.6-2.9-.6-4.6s2.7-2.6 4.3-1.6 1.6 2.9.6 4.6c-.7 1.1-1.6 1.8-2.6 2l-.1 1.4v.1c-.2.2-.4.2-.5.1zm2.2-7.7c-1.3-.8-2.7.2-3.5 1.5s-1 3 .4 3.8c.3.2.6.3.9.3l.1-1.3c0-.1 0-.1 0-.2.1-.1.2-.2.4-.1.1.1.1.2.1.3l-.1 1.2c.8-.2 1.5-.9 2-1.7.8-1.3 1-3-.3-3.8z"/><g transform="translate(25.662 51.297)"><path d="m-1258.8 45-47.7-28.5"/><path d="m-1266.3 56.9-27.9-16.7"/><path d="m-1301.6 35.8-12.4-7.4"/><path d="m-1273.9 69.7-47.7-28.5"/><path d="m-1289.2 93-47.7-28.5"/><path d="m-1281.4 81.5-27.9-16.7"/><path d="m-1317.6 60.4-12.5-7.4"/></g></g></g><g fill="none"><g stroke="#8b8989" stroke-miterlimit="10.0112" stroke-width=".7504" transform="matrix(.391 .921 -.921 .391 1335.614 2578.344)"><path d="m-460.7 1273.3 193.6-1.8c0-.8 2.8-6.9 2.8-6.9l-.2-14.6-2.9-7.1-193.6 1.8-30.6 13.9z"/><path d="m-297.4 1250.3c-52.1.5-160 1.5-160 1.5"/><path d="m-297.2 1264.6c-52.1.5-160 1.5-160 1.5"/><path d="m-463.4 1245.5 6.4 6.3-7.1 6.8 7.2 7.5-6.1 6.3"/><path d="m-457.4 1251.8-24.1 4.9"/><path d="m-457.2 1266.1-24.2-5"/><path d="m-483.1 1254.7 2.2 1.9-2.2 2.2 2.2 2.4-2.1 1.4"/></g><g stroke="#8b8989" stroke-miterlimit="10" stroke-width=".75" transform="matrix(.65605903 -.75470958 .75470958 .65605903 1272.74696083743 2433.23068163483)"><path d="m-886.1-957.4 14.4-40.7c.5-1.3 1.9-2 3.2-1.5l40.7 14.4c1.3.5 2 1.9 1.5 3.2l-14.4 40.7c-.5 1.3-1.9 2-3.2 1.5l-40.7-14.4c-1.2-.4-1.9-1.9-1.5-3.2z"/><g transform="translate(10.115 10.115)"><circle cx="-883.2" cy="-971.7" r="3.7"/><circle cx="-866.3" cy="-979.8" r="3.7"/><circle cx="-874.4" cy="-996.8" r="3.7"/><circle cx="-858.2" cy="-962.9" r="3.7"/><circle cx="-849.3" cy="-987.9" r="3.7"/></g></g><g stroke="#8b8989" stroke-miterlimit="10" stroke-width=".75" transform="matrix(.99862953 .05233596 -.05233596 .99862953 1314.25173806479 2310.68726768103)"><path d="m-1333.6 134.2 17.3-48.9c.5-1.3 1.9-2 3.2-1.5l48.8 17.2c1.3.5 2 1.9 1.5 3.2l-17.3 48.9c-.5 1.3-1.9 2-3.2 1.5l-48.9-17.3c-1.2-.4-1.9-1.9-1.4-3.1z"/><g transform="translate(11.933 11.933)"><circle cx="-1330.1" cy="116.8" r="4.3"/><circle cx="-1310.1" cy="107.2" r="4.3"/><circle cx="-1319.7" cy="87.2" r="4.3"/><circle cx="-1300.6" cy="127.2" r="4.3"/><circle cx="-1290.1" cy="97.7" r="4.3"/></g></g><g transform="translate(-266.661 907.174)"><path d="m275.8 995.8c13 6.5 28.3 6.5 41.2 0 0 0 2.3-5.8-6.9-16.1-8.2-9.2-7.7-24.1-7.5-27.2 1.9-1 3.4-2.5 4.5-4.4 3.6-5.8 1.7-13.5-4.1-17-5.8-3.6-13.5-1.7-17 4.1s-1.7 13.5 4.1 17c.2 2.6 1 18-7.5 27.4-9.1 10.5-6.8 16.2-6.8 16.2z"/><g stroke="#8b8989" stroke-width=".75"><circle cx="296.6" cy="941.7" r="12.4" stroke-miterlimit="10"/><path d="m294 929.6c5.7 1.2 9.8 6.3 9.8 12.1 0 5.6-3.3 10.8-8.4 12.3" stroke-linecap="round" stroke-linejoin="round"/><path d="m290.2 952.1c.1 1.4.8 11.5-3 20.5" stroke-miterlimit="10"/><path d="m282.1 998.4c11.4 3.7 24 2.9 34.9-2.6 0 0 2.3-5.8-6.9-16.1-8.3-9.4-7.7-24.5-7.5-27.3" stroke-miterlimit="10"/><path d="m295.3 953.6s1.7 17.4-7.4 27.8c-.3.3-.5.6-.8.9" stroke-miterlimit="10"/><path d="m311.4 981.2c-10 7.1-20 4.9-25.6 2.7" stroke-miterlimit="10"/></g></g><g transform="translate(-245.782 942.868)"><path d="m234.1 995.8c13 6.5 28.3 6.5 41.2 0 0 0 2.3-5.8-6.9-16.1-8.2-9.2-7.7-24.1-7.5-27.2 1.9-1 3.4-2.5 4.5-4.4 3.6-5.8 1.7-13.5-4.1-17-5.8-3.6-13.5-1.7-17 4.1-3.6 5.8-1.7 13.5 4.1 17 .2 2.6 1 18-7.5 27.4-9.2 10.5-6.8 16.2-6.8 16.2z"/><g stroke="#8b8989" stroke-width=".75"><circle cx="254.9" cy="941.7" r="12.4" stroke-miterlimit="10"/><path d="m252.3 929.6c5.7 1.2 9.8 6.3 9.8 12.1 0 5.6-3.3 10.8-8.4 12.3" stroke-linecap="round" stroke-linejoin="round"/><path d="m248.4 952.1c.2 1.8 1.2 17.9-7.4 27.6-9.2 10.4-6.9 16.1-6.9 16.1 13 6.5 28.3 6.5 41.2 0 0 0 2.3-5.8-6.9-16.1-8.3-9.4-7.7-24.5-7.5-27.3" stroke-miterlimit="10"/><path d="m253.6 953.6s1.7 17.4-7.4 27.8c-8.6 9.7-7 16.5-7 16.5" stroke-miterlimit="10"/><path d="m269.7 981.2c-15.1 10.7-30.2.4-30.2.4" stroke-miterlimit="10"/></g></g></g></g></g></svg>