<?xml version="1.0" encoding="utf-8"?>
<!-- Generator: Adobe Illustrator 26.0.1, SVG Export Plug-In . SVG Version: 6.00 Build 0)  -->
<svg version="1.1" id="Layer_1" xmlns="http://www.w3.org/2000/svg" xmlns:xlink="http://www.w3.org/1999/xlink" x="0px" y="0px"
	 viewBox="0 0 97 97" style="enable-background:new 0 0 97 97;" xml:space="preserve">
<style type="text/css">
	.st0{fill:#FF8200;}
	.st1{fill:#FFFFFF;}
</style>
<g>
	<g id="Group_4554_00000021090080015283702120000004549154444552052412_" transform="translate(-443 -399)">
		<circle id="Ellipse_230_00000124867338562045583310000010863846980986382473_" class="st0" cx="491.5" cy="447.5" r="48.5"/>
	</g>
	<path class="st1" d="M76.8,31.8C76.8,31.8,76.8,31.8,76.8,31.8c0-0.1,0-0.2,0-0.3c0,0,0-0.1,0-0.1c0-0.1,0-0.1-0.1-0.2
		c0,0,0-0.1-0.1-0.1c0,0-0.1-0.1-0.1-0.1c0,0-0.1,0-0.1-0.1c0,0-0.1-0.1-0.1-0.1c0,0,0,0,0,0c0,0,0,0,0,0L48.3,16.1
		c-0.3-0.2-0.6-0.2-0.9,0L19.5,30.9c0,0,0,0,0,0c0,0,0,0,0,0c0,0-0.1,0-0.1,0.1c0,0-0.1,0-0.1,0.1c0,0-0.1,0.1-0.1,0.1
		c0,0-0.1,0.1-0.1,0.1c0,0,0,0.1-0.1,0.1c0,0,0,0.1,0,0.1c0,0,0,0.1,0,0.1c0,0,0,0.1,0,0.1c0,0,0,0,0,0v31.4c0,0.3,0.2,0.7,0.5,0.9
		l27.6,17.1c0.1,0.1,0.1,0.1,0.2,0.2c0.2,0.1,0.3,0.1,0.5,0.1c0,0,0,0,0,0c0,0,0,0,0,0c0.2,0,0.3,0,0.5-0.1c0.1-0.1,0.2-0.1,0.2-0.2
		l27.6-17.1c0.3-0.2,0.5-0.5,0.5-0.9V31.8C76.8,31.8,76.8,31.8,76.8,31.8C76.8,31.8,76.8,31.8,76.8,31.8z M65.8,51.3l-8,4.3l0-13.1
		l8-4.2L65.8,51.3z M56.8,40.7l-11.9-6.5l7.9-4.3l11.9,6.6L56.8,40.7z M47.8,18.1l25.8,13.7l-7.8,4.1l-12.7-7
		c-0.1-0.1-0.3-0.1-0.5,0l-9,4.8c-0.2,0.1-0.3,0.3-0.3,0.4c0,0.2,0.1,0.4,0.3,0.4l12.1,6.7l-7.8,4.1L22.1,31.8L47.8,18.1z M21,33.5
		l25.8,13.7v31.5L21,62.7V33.5z M48.9,78.6V47.2l7.9-4.2l0,13.4c0,0.2,0.1,0.3,0.2,0.4c0.1,0,0.2,0.1,0.3,0.1c0.1,0,0.2,0,0.2-0.1
		l9-4.8c0.2-0.1,0.3-0.3,0.3-0.4l0-13.9l8-4.2v29.2L48.9,78.6z"/>
</g>
</svg>
