<?xml version="1.0" encoding="UTF-8"?><svg id="Layer_1" xmlns="http://www.w3.org/2000/svg" viewBox="0 0 46.77 55.2"><defs><style>.cls-1{fill:#19375d;}</style></defs><path class="cls-1" d="m17.13,1.45h0,0m-.72,1.71c2.88,1.35,5.76,2.71,8.64,4.07l2.42,1.14.63.3c-.19.4-.38.8-.57,1.19-1.1,2.31-2.23,4.7-3.31,7.08-.84,1.85-1.62,3.73-2.37,5.55-.23.57-.47,1.13-.71,1.7-.84,2-1.01,4.14-.53,6.55.4,1.98,1.05,3.97,2.12,6.46.59,1.37,1.21,2.74,1.82,4.06.39.86.78,1.72,1.17,2.59.46,1.04.7,1.83.78,2.57.21,2.11-.29,3.69-1.59,4.98-.41.4-1.19.98-3.23,1.29-.01,0-.13.02-.36.02-.51,0-1.08-.08-1.57-.21-.94-.26-1.82-.75-2.68-1.5-1.35-1.18-2.46-2.66-3.41-4.53-.8-1.58-1.52-3.2-2.32-5.01-1.44-3.28-3.58-6.16-6.34-8.54-1.41-1.22-2.2-2.58-2.41-4.17-.34-2.57.45-4.67,2.4-6.44.26-.24.56-.48.88-.73.34-.27.68-.55,1.01-.84,1.43-1.27,2.37-2.78,3.18-4.23l.33-.6c.81-1.45,1.64-2.94,2.37-4.5.94-2,1.83-4.05,2.69-6.02.32-.74.64-1.48.97-2.21M15.38,0c-.24,0-.42.15-.55.47-.23.55-.45,1.1-.69,1.65-1.21,2.74-2.38,5.51-3.66,8.22-.79,1.69-1.72,3.31-2.63,4.94-.73,1.3-1.52,2.57-2.65,3.58-.62.55-1.29,1.03-1.9,1.58C.74,22.75-.35,25.64.1,29.06c.31,2.33,1.5,4.22,3.25,5.73,2.47,2.13,4.37,4.67,5.68,7.66.76,1.73,1.52,3.45,2.37,5.13,1.01,2,2.3,3.8,4,5.29,1.08.94,2.28,1.65,3.67,2.03.8.22,1.61.3,2.24.3.29,0,.54-.02.74-.05,2.16-.34,3.59-.98,4.61-1.99,1.96-1.93,2.6-4.33,2.33-7.01-.12-1.17-.51-2.27-.98-3.33-.98-2.21-2.02-4.4-2.97-6.62-.83-1.93-1.55-3.89-1.96-5.96-.35-1.74-.31-3.44.38-5.09,1-2.4,1.98-4.81,3.05-7.18,1.48-3.26,3.03-6.48,4.55-9.71.31-.66.25-.84-.42-1.15-1.51-.71-3.02-1.43-4.53-2.14C22.67,3.35,19.22,1.73,15.78.11,15.63.04,15.5,0,15.38,0h0Z"/><path class="cls-1" d="m26.19,16.19c-.19,0-.39-.04-.57-.14l-13.4-6.84c-.62-.31-.86-1.07-.55-1.68.31-.62,1.07-.86,1.68-.55l13.4,6.84c.62.31.86,1.07.55,1.68-.22.43-.66.68-1.11.68Z"/><path class="cls-1" d="m7.53,37.78l-2-1.39c4.21-6.06.83-12.44-1.56-15.71l1.97-1.44c2.23,3.05,6.85,10.97,1.59,18.54Z"/><path class="cls-1" d="m14.83,50.62c-.37,0-.74-.18-.98-.5-.38-.54-.25-1.28.29-1.66,2.6-1.84,7.79-4.7,13.35-3.22.64.17,1.02.82.85,1.46-.17.64-.83,1.02-1.46.85-4.62-1.22-9.1,1.27-11.36,2.87-.21.15-.45.22-.69.22Z"/><g><path class="cls-1" d="m40.31,51.85c-.62,0-1.12-.5-1.12-1.12V7.45c0-.62.5-1.12,1.12-1.12s1.12.5,1.12,1.12v43.27c0,.62-.5,1.12-1.12,1.12Z"/><path class="cls-1" d="m45.38,15.5c-.48,0-.94-.24-1.2-.68l-3.66-6.14-4.12,6.19c-.43.64-1.29.82-1.93.39-.64-.43-.82-1.29-.39-1.93l5.34-8.04c.27-.4.69-.64,1.2-.62.48.01.92.27,1.16.68l4.8,8.04c.4.66.18,1.52-.48,1.91-.22.13-.47.2-.71.2Z"/><path class="cls-1" d="m40.04,52.88s-.02,0-.03,0c-.48-.01-.92-.27-1.16-.68l-4.8-8.04c-.4-.66-.18-1.52.48-1.91.66-.4,1.52-.18,1.91.48l3.66,6.14,4.12-6.19c.43-.64,1.29-.82,1.93-.39.64.43.82,1.29.39,1.93l-5.34,8.04c-.26.39-.69.62-1.16.62Z"/></g></svg>