<?xml version="1.0" encoding="UTF-8"?><svg id="Layer_1" xmlns="http://www.w3.org/2000/svg" viewBox="0 0 51.71 55.79"><defs><style>.cls-1{fill:#19375d;}</style></defs><g><path class="cls-1" d="m49.1,2.5c.35,4.16.24,14.38-7.51,22.9-6.18,6.8-13.04,8.23-17.7,8.23-1.12,0-2.07-.09-2.78-.18-.67-3.57-1.52-13.06,5.94-21.27C34.95,3.49,45.05,2.51,49.1,2.5m.07-2.5c-4.54,0-15.41,1.08-23.97,10.5-10.32,11.35-6.15,25.1-6.15,25.1,0,0,1.89.53,4.85.53,4.87,0,12.64-1.44,19.55-9.05C54.36,15.07,51.31.1,51.31.1c0,0-.79-.1-2.14-.1h0Z"/><path class="cls-1" d="m14.26,55.79c-.08,0-.15,0-.23-.02-.68-.13-1.13-.78-1-1.46,3.55-19.09,15.95-34.76,25.5-42.37.54-.43,1.33-.34,1.76.2.43.54.34,1.33-.2,1.76-9.21,7.35-21.18,22.47-24.6,40.88-.11.6-.64,1.02-1.23,1.02Z"/></g><g><path class="cls-1" d="m2.92,17.46c2.53.66,6.95,2.48,9.88,7.33,2.75,4.57,1.9,9,1.18,11.19-2.26-.29-6.3-1.52-9.21-6.35-2.88-4.78-2.43-9.6-1.85-12.18m-1.75-2.86s-3.43,8.22,1.45,16.33c4.33,7.18,10.96,7.64,12.61,7.64.25,0,.38-.01.38-.01,0,0,3.93-7.39-.68-15.06C9.96,15.25,1.17,14.6,1.17,14.6h0Z"/><path class="cls-1" d="m17.02,44.52c-.6,0-1.13-.44-1.23-1.05-.77-4.79-5.7-13.14-9.95-18.87-.41-.55-.3-1.34.26-1.75.55-.41,1.34-.3,1.75.26,3.41,4.6,9.45,13.99,10.41,19.96.11.68-.35,1.32-1.03,1.43-.07.01-.13.02-.2.02Z"/></g></svg>