<?xml version="1.0" encoding="UTF-8"?><svg id="Layer_1" xmlns="http://www.w3.org/2000/svg" viewBox="0 0 48.91 56.73"><defs><style>.cls-1{fill:#19375d;}</style></defs><path class="cls-1" d="m24.91,56.73c-2.37,0-4.65-.45-6.55-1.34-1.17-.55-2.27-1.36-3.36-2.48-1.93-1.97-3.25-3.76-4.17-5.64-.38-.77-.68-1.56-.97-2.33-.17-.44-.34-.88-.52-1.31-1.23-2.93-2.82-5.78-4.36-8.54l-.75-1.34c-1.13-2.03-2.22-4.08-3.31-6.14l-.19-.35c-.23-.43-.42-.91-.58-1.41-.31-1.03-.11-2.13.53-2.97.63-.81,1.58-1.24,2.61-1.2,1.39.07,2.69.59,3.99,1.59.94.73,1.71,1.64,2.28,2.71.28.52.52,1.02.76,1.52.77,1.6,1.44,2.98,3.21,4.68.16.17.25.27.35.36.32.31.66.45.96.41.3-.04.59-.28.81-.67.48-.84.94-1.73,1.05-2.53.33-2.31.24-4.62.14-7.06v-.36c-.13-3.09-.2-6.18-.26-9.05-.01-.6-.06-1.39-.12-2.26-.22-3.52-.33-6.11.28-7.47.37-.84,1.13-1.51,2.07-1.84.95-.32,1.97-.25,2.8.19.63.34,1.42,1.04,1.6,2.46l.06.48c.17,1.38.35,2.81.48,4.24.16,1.89.75,5.66,1.29,8.96.44-2.07.89-4.26,1.19-5.83l.52-2.72c.38-1.99.76-3.97,1.15-5.96.11-.58.34-1.17.66-1.72.82-1.4,2.33-2.06,3.94-1.72,1.54.33,2.6,1.53,2.78,3.14.07.62.05,1.28-.06,1.89-.46,2.63-1.25,7.97-1.9,12.43.84-1.8,1.95-4.26,3.55-7.91.15-.35.27-.68.38-.99.17-.49.36-1,.66-1.6.27-.54.64-1.05,1.05-1.49,1.1-1.16,2.84-1.42,4.06-.6,1.1.75,2.22,1.76,1.66,4.35-.4,1.84-1.11,3.56-1.8,5.22-.21.5-.41,1-.61,1.5-.32.82-.97,2.72-1.65,4.79.68-.95,1.25-1.76,1.54-2.23.36-.58.85-1.15,1.41-1.65.52-.46,1.19-.67,1.65-.77.12-.03.25-.03.37-.02.96.09,2.65.24,3.27,2.35.02.08.04.16.04.24.11,1.26-.33,2.3-.67,2.97-.82,1.61-1.76,3.22-2.67,4.77-.59,1.01-1.18,2.02-1.74,3.03-.51.92-1.71,3.51-2.04,4.22-.19,1.67-.35,2.58-.57,3.82-.08.45-.17.96-.27,1.56-.14.83-.25,1.67-.35,2.51-.37,2.91-.76,5.93-2.37,8.61-2.62,4.36-8.14,6.5-13.3,6.5ZM3.13,24.18c-.24,0-.4.13-.48.24-.15.19-.19.45-.12.7.11.35.24.68.4.97l.19.35c1.09,2.04,2.17,4.08,3.29,6.1l.74,1.34c1.57,2.81,3.19,5.73,4.48,8.79.19.46.37.92.55,1.38.29.75.56,1.46.89,2.13.8,1.63,1.97,3.22,3.7,4.99.88.9,1.75,1.55,2.64,1.97,4.96,2.33,13.61.86,16.64-4.19,1.34-2.23,1.68-4.86,2.03-7.64.11-.88.22-1.75.37-2.61.1-.62.19-1.12.27-1.58.23-1.29.38-2.15.57-3.87.01-.13.05-.26.11-.39.06-.14,1.58-3.42,2.21-4.56.57-1.03,1.17-2.05,1.77-3.09.89-1.52,1.81-3.09,2.6-4.64.3-.59.43-1.06.42-1.5-.1-.29-.21-.35-.84-.41-.2.06-.32.13-.36.16-.38.33-.7.71-.93,1.09-.56.9-1.87,2.7-3.25,4.61-1.25,1.72-2.54,3.5-3.04,4.3-.33.54-1.01.74-1.58.47-.57-.26-.86-.91-.67-1.51.13-.42,3.29-10.34,4.2-12.65.2-.51.41-1.02.62-1.54.68-1.63,1.31-3.18,1.67-4.8.25-1.16.07-1.29-.62-1.75-.17-.11-.58-.02-.83.24-.25.27-.48.58-.64.91-.23.45-.37.84-.53,1.3-.13.36-.26.73-.44,1.15-3.85,8.82-4.98,10.91-6.18,13.12-.26.49-.53.98-.84,1.56-.28.54-.91.79-1.49.61-.58-.19-.94-.76-.86-1.36.02-.15,2.07-14.86,2.96-19.89.07-.39.08-.8.04-1.19-.06-.53-.34-.86-.81-.96-.32-.07-.9-.09-1.26.53-.18.31-.31.64-.37.95-.4,1.98-.77,3.96-1.15,5.94l-.52,2.73c-.02.11-2.27,11.43-2.72,12.28-.25.47-.77.74-1.3.66-.53-.08-.95-.49-1.04-1.02-.08-.46-2.04-11.43-2.37-15.31-.12-1.37-.29-2.78-.46-4.14l-.06-.49c-.05-.43-.21-.52-.3-.57-.21-.12-.51-.13-.8-.03-.28.1-.5.28-.6.49-.41.9-.2,4.27-.07,6.29.06.91.11,1.74.12,2.37.06,2.86.12,5.93.24,9v.36c.11,2.45.21,4.98-.15,7.51-.17,1.22-.75,2.36-1.36,3.42-.61,1.07-1.54,1.75-2.63,1.9-1.08.15-2.16-.23-3.05-1.09-.14-.14-.28-.27-.41-.42-2.03-1.94-2.86-3.66-3.66-5.33-.22-.46-.45-.94-.71-1.43-.4-.76-.94-1.4-1.6-1.91-.88-.68-1.72-1.03-2.58-1.07-.01,0-.02,0-.04,0Z"/><g id="Path_3663"><path class="cls-1" d="m20.62,38.41c-.16.48-.54.87-1.02,1.04-.23.07-.95-.59-.94-.9.02-.43.37-1.16,1-1.21s1.02.77.96,1.07Z"/><path class="cls-1" d="m19.57,39.94c-.22,0-.45-.1-.7-.3-.17-.13-.72-.61-.7-1.12.02-.66.54-1.61,1.46-1.69.4-.04.78.13,1.08.47.26.3.5.8.41,1.21v.05c-.22.63-.72,1.13-1.34,1.35-.07.02-.14.03-.2.03Zm.16-2.11s-.01,0-.02,0c-.32.03-.53.49-.54.73.03.05.26.26.4.36.24-.12.45-.34.56-.61-.02-.09-.1-.27-.23-.39-.08-.07-.14-.08-.17-.08Z"/></g><g id="Path_3663-2"><path class="cls-1" d="m32.15,38.41c-.16.48-.54.87-1.02,1.04-.23.07-.95-.59-.94-.9.02-.43.37-1.16,1-1.21s1.02.77.96,1.07Z"/><path class="cls-1" d="m31.1,39.94c-.22,0-.45-.1-.7-.3-.17-.13-.72-.61-.7-1.12.02-.66.54-1.61,1.46-1.69.4-.04.78.13,1.08.47.26.3.5.8.41,1.21v.05c-.22.63-.72,1.13-1.34,1.35-.07.02-.14.03-.2.03Zm.16-2.11s-.01,0-.02,0c-.32.03-.53.49-.54.73.03.05.26.26.4.36.24-.12.45-.34.56-.61-.02-.09-.1-.27-.23-.39-.08-.07-.14-.08-.17-.08Z"/></g><path class="cls-1" d="m25.02,48.18c-.16,0-.33,0-.49-.01-5.25-.25-8.73-4.38-8.88-4.55-.3-.36-.25-.89.11-1.19.36-.3.9-.25,1.19.11.03.04,3.17,3.74,7.67,3.94,2.91.13,5.8-1.21,8.59-4,.33-.33.87-.33,1.2,0,.33.33.33.87,0,1.2-2.99,2.99-6.15,4.51-9.39,4.51Z"/></svg>