<?xml version="1.0" encoding="UTF-8"?><svg id="Layer_1" xmlns="http://www.w3.org/2000/svg" viewBox="0 0 57.2 56.46"><defs><style>.cls-1{fill:#19375d;}</style></defs><path class="cls-1" d="m52.46,40.37c-.86-.57-2.01-.29-2.44.57-3.45,5.75-8.91,9.77-15.37,11.35-6.47,1.58-13.22.57-18.97-2.73-5.75-3.45-9.77-8.76-11.35-15.23s-.57-13.07,2.87-18.82C11.65,8.05,19.84,3.45,28.46,3.45c1.01,0,1.72-.86,1.72-1.72,0-1.01-.86-1.72-1.72-1.72h-.14C18.4,0,9.21,5.17,4.04,13.65.16,20.11-.99,27.73.88,35.06s6.47,13.51,13.07,17.38c4.45,2.73,9.48,4.02,14.65,4.02,2.3,0,4.74-.29,7.04-.86,7.47-1.87,13.65-6.47,17.53-12.93.43-.72.14-1.87-.72-2.3Z"/><path class="cls-1" d="m28.61,9.34c-1.01,0-1.72.86-1.72,1.72v17.1c0,1.01.86,1.72,1.72,1.72h17.24c1.01,0,1.72-.86,1.72-1.72,0-1.01-.86-1.72-1.72-1.72h-15.37v-15.37c0-1.01-.86-1.72-1.87-1.72Z"/><path class="cls-1" d="m44.84,8.76c.57,0,1.15-.29,1.44-.72.57-.72.43-1.87-.29-2.44-.72-.57-1.87-.43-2.59.29-.57.72-.43,1.87.29,2.44.43.43.72.43,1.15.43Z"/><path class="cls-1" d="m54.47,22.99h.43c1.01-.29,1.58-1.29,1.29-2.16-.29-1.01-1.29-1.58-2.16-1.29-1.01.29-1.58,1.29-1.29,2.16.14.86,1.01,1.29,1.72,1.29Z"/><path class="cls-1" d="m50.87,15.09c.29,0,.72-.14,1.01-.29.86-.57,1.01-1.72.43-2.44-.57-.86-1.72-1.01-2.44-.43-.86.57-1.01,1.72-.43,2.44.29.57.86.72,1.44.72Z"/><path class="cls-1" d="m36.51,4.74c.14,0,.43.14.57.14.72,0,1.44-.43,1.72-1.15.29-1.15-.29-2.16-1.15-2.44h0c-1.01-.29-2.01.14-2.3,1.15-.29,1.01.14,2.01,1.15,2.3Z"/><path class="cls-1" d="m55.47,28.16c-1.01,0-1.87.72-1.87,1.72s.72,1.87,1.72,1.87h.14c1.01,0,1.72-.72,1.72-1.72s-.72-1.87-1.72-1.87Z"/><path class="cls-1" d="m54.04,36.78c-.86-.43-2.01,0-2.3,1.01-.43.86,0,2.01,1.01,2.3.29.14.43.14.72.14.72,0,1.44-.43,1.58-1.15.43-.86-.14-2.01-1.01-2.3Z"/></svg>