<?xml version="1.0" encoding="utf-8"?>
<!-- Generator: Adobe Illustrator 27.2.0, SVG Export Plug-In . SVG Version: 6.00 Build 0)  -->
<svg version="1.1" id="Layer_1" xmlns="http://www.w3.org/2000/svg" xmlns:xlink="http://www.w3.org/1999/xlink" x="0px" y="0px"
	 viewBox="0 0 71.9 71.9" style="enable-background:new 0 0 71.9 71.9;" xml:space="preserve">
<style type="text/css">
	.st0{fill:#19375D;}
	.st1{fill:#FFFFFF;}
</style>
<g id="Group_3491">
	<ellipse id="Ellipse_176" class="st0" cx="36" cy="36" rx="36" ry="36"/>
</g>
<path class="st1" d="M45.9,16.5L46,9.7l-27.3,6.6l-0.4,0.1v0.3v41.9H54V16.5H45.9z M51,55.6H21.3V19.5H51V55.6z"/>
<g id="Group_3493" transform="translate(28.502 28.265)">
	<path id="Path_3648" class="st1" d="M8.1,8.4c0.5-0.5,1-1,1.4-1.5C9.8,6.5,10,6,10,5.5C10,4.7,9.7,4,9.1,3.6
		C8.4,3.1,7.5,2.9,6.6,2.9c-1.9,0-3,1.5-4,2.8L0,4.1c0.3-1.4,1.3-2.6,2.6-3.2C4,0.3,5.4,0,6.9,0c1.7-0.1,3.4,0.4,4.8,1.3
		c1.2,0.8,1.9,2.2,1.8,3.6c0,0.7-0.1,1.3-0.4,1.9c-0.2,0.5-0.5,1-0.9,1.4c-0.4,0.5-0.9,0.9-1.4,1.3c-0.6,0.5-1.1,1-1.5,1.6
		c-0.3,0.5-0.5,1.1-0.5,1.7H5.5c0-0.9,0.2-1.7,0.7-2.4C6.7,9.7,7.4,9,8.1,8.4z M5.1,17.3c0-0.6,0.2-1.1,0.6-1.5s1-0.6,1.6-0.6
		s1.1,0.2,1.5,0.6c0.4,0.4,0.6,0.9,0.6,1.5s-0.2,1.1-0.6,1.5c-0.4,0.4-1,0.6-1.5,0.6c-0.6,0-1.1-0.2-1.6-0.6
		C5.3,18.4,5,17.8,5.1,17.3L5.1,17.3z"/>
</g>
</svg>
