<?xml version="1.0" encoding="UTF-8"?><svg id="Layer_1" xmlns="http://www.w3.org/2000/svg" viewBox="0 0 47.48 58.98"><defs><style>.cls-1{fill:#19375d;}</style></defs><path class="cls-1" d="m23.94,32.13c2.21,0,4.01,1.8,4.01,4.01s-1.8,4.01-4.01,4.01-4.01-1.8-4.01-4.01,1.8-4.01,4.01-4.01m0-2.5c-3.6,0-6.51,2.91-6.51,6.51s2.91,6.51,6.51,6.51,6.51-2.91,6.51-6.51-2.91-6.51-6.51-6.51h0Z"/><path class="cls-1" d="m33.76,58.98c-.62,0-1.17-.47-1.24-1.1l-1.83-15.52c-.02-.14,0-.28.02-.42l5.12-23.12s.02-.09.04-.13c0-.01.64-1.98-.48-2.38-.29-.1-.69-.2-.96-.06-.29.14-.54.57-.75,1.27-1.29,4.26-4.32,15.18-4.35,15.29-.18.67-.87,1.05-1.54.87-.67-.18-1.06-.87-.87-1.54.03-.11,3.07-11.06,4.37-15.35.16-.51.63-2.08,2.02-2.77.85-.43,1.83-.45,2.92-.06,2.7.97,2.52,3.96,2.02,5.47l-5.06,22.85,1.8,15.31c.08.69-.41,1.31-1.1,1.39-.05,0-.1,0-.15,0Z"/><path class="cls-1" d="m14.26,58.98s-.1,0-.15,0c-.69-.08-1.18-.7-1.1-1.39l1.8-15.32-5.08-23.83c-.3-1.49.24-3.91,2.92-4.53,1.12-.26,3.14-.17,4.21,3.33,1.3,4.29,4.19,14.79,4.22,14.89.18.67-.21,1.35-.87,1.54-.67.18-1.35-.21-1.54-.87-.03-.11-2.91-10.57-4.2-14.83-.54-1.79-1.07-1.66-1.24-1.62-1.1.26-1.12,1.12-1.04,1.61l5.11,24c.03.13.03.27.02.41l-1.83,15.52c-.07.64-.61,1.1-1.24,1.1Z"/><g><g id="Path_3663"><path class="cls-1" d="m44.82,38.42c-.16.48-.54.87-1.02,1.04-.23.07-.95-.59-.94-.9.02-.43.37-1.16,1-1.21s1.02.77.96,1.07Z"/><path class="cls-1" d="m43.77,39.96c-.22,0-.45-.1-.7-.3-.17-.13-.72-.61-.7-1.12.02-.66.54-1.61,1.46-1.69.4-.03.78.13,1.08.47.26.3.5.8.41,1.21,0,.02,0,.03-.01.05-.21.63-.69,1.13-1.33,1.35-.07.02-.14.03-.2.03Zm.16-2.11s-.01,0-.02,0c-.32.03-.53.49-.54.73.03.05.26.26.4.36.24-.12.45-.34.56-.61-.02-.09-.1-.27-.23-.39-.08-.07-.14-.08-.17-.08Zm.9.58h0,0Zm0,0h0,0Z"/></g><g id="Path_3663-2"><path class="cls-1" d="m43.07,25.72c-.16.48-.54.87-1.02,1.04-.23.07-.95-.59-.94-.9.02-.43.37-1.16,1-1.21s1.02.77.96,1.07Z"/><path class="cls-1" d="m42.02,27.26c-.22,0-.45-.1-.7-.3-.17-.13-.72-.61-.7-1.12.02-.66.54-1.61,1.46-1.69.4-.03.78.13,1.08.47.26.3.5.8.41,1.21,0,.02,0,.03-.01.05-.21.63-.69,1.13-1.33,1.35-.07.02-.14.03-.2.03Zm.16-2.11s-.01,0-.02,0c-.32.03-.54.49-.54.73.03.05.26.26.4.36.24-.12.45-.34.56-.61-.02-.09-.1-.27-.23-.39-.08-.07-.14-.08-.17-.08Zm.9.58h0,0Zm0,0h0,0Z"/></g><g id="Path_3663-3"><path class="cls-1" d="m46.97,14.16c-.16.48-.54.87-1.02,1.04-.23.07-.95-.59-.94-.9.02-.43.37-1.16,1-1.21s1.02.77.96,1.07Z"/><path class="cls-1" d="m45.91,15.7c-.22,0-.45-.1-.7-.3-.17-.13-.72-.61-.7-1.12.02-.66.54-1.61,1.46-1.69.4-.03.78.13,1.08.47.26.3.5.8.41,1.21,0,.02,0,.03-.01.05-.21.63-.69,1.13-1.32,1.35-.07.02-.14.03-.2.03Zm.16-2.11s-.01,0-.02,0c-.32.03-.53.49-.54.73.03.05.26.26.4.36.24-.12.45-.34.56-.61-.02-.09-.1-.27-.23-.39-.08-.07-.14-.08-.17-.08Zm.9.58h0,0Zm0,0h0,0Z"/></g><g id="Path_3663-4"><path class="cls-1" d="m2.88,37.35c.63.05.98.78,1,1.21.01.31-.7.97-.94.9-.48-.17-.86-.55-1.02-1.04-.07-.3.33-1.13.96-1.07Z"/><path class="cls-1" d="m2.97,39.96c-.06,0-.11,0-.17-.02-.66-.23-1.15-.73-1.36-1.36-.1-.46.13-.96.39-1.26.3-.34.68-.51,1.08-.47h0c.91.08,1.43,1.03,1.46,1.69.02.51-.53.98-.7,1.12-.26.21-.49.31-.7.31Zm-.16-2.12s-.09,0-.17.08c-.15.13-.23.34-.23.42.08.22.29.45.56.59.15-.1.37-.32.41-.43-.02-.16-.24-.63-.55-.66h0s0,0-.02,0Z"/></g><g id="Path_3663-5"><path class="cls-1" d="m5.85,24.65c.63.05.98.78,1,1.21.01.31-.7.97-.94.9-.48-.17-.86-.55-1.02-1.04-.07-.3.33-1.13.96-1.07Z"/><path class="cls-1" d="m5.95,27.26c-.06,0-.11,0-.17-.02-.66-.23-1.15-.73-1.36-1.36-.1-.45.13-.96.39-1.26.3-.34.69-.51,1.08-.47h0c.91.08,1.43,1.03,1.46,1.69.02.51-.53.98-.7,1.12-.26.21-.49.31-.7.31Zm-.16-2.12s-.09,0-.17.08c-.15.13-.23.34-.23.42.08.22.29.45.56.59.15-.1.37-.32.41-.43-.02-.16-.23-.63-.55-.66h0s0,0-.02,0Z"/></g><g id="Path_3663-6"><path class="cls-1" d="m1.46,13.09c.63.05.98.78,1,1.21.01.31-.7.97-.94.9-.48-.17-.86-.55-1.02-1.04-.07-.3.33-1.13.96-1.07Z"/><path class="cls-1" d="m1.56,15.7c-.06,0-.11,0-.17-.02-.66-.23-1.15-.73-1.36-1.36-.1-.46.13-.96.39-1.26.3-.34.68-.51,1.08-.47h0c.91.08,1.43,1.03,1.46,1.69.02.51-.53.98-.7,1.12-.26.21-.49.31-.7.31Zm-.16-2.12s-.09,0-.17.08c-.15.13-.23.34-.23.42.08.22.29.45.56.59.15-.1.37-.32.41-.43-.02-.16-.23-.63-.55-.66,0,0,0,0-.02,0Z"/></g></g><path class="cls-1" d="m17.08,10.76c-.48,0-.93-.28-1.14-.74l-2.81-6.27c-.28-.63,0-1.37.63-1.65.63-.28,1.37,0,1.65.63l2.81,6.27c.28.63,0,1.37-.63,1.65-.17.07-.34.11-.51.11Z"/><path class="cls-1" d="m30.95,10.76c-.17,0-.34-.04-.51-.11-.63-.28-.91-1.02-.63-1.65l2.81-6.27c.28-.63,1.02-.91,1.65-.63.63.28.91,1.02.63,1.65l-2.81,6.27c-.21.46-.66.74-1.14.74Z"/><path class="cls-1" d="m37.51,13c-.33,0-.65-.13-.9-.38-.48-.5-.47-1.29.03-1.77l3.84-3.73c.49-.48,1.29-.47,1.77.03.48.5.47,1.29-.03,1.77l-3.84,3.73c-.24.24-.56.35-.87.35Z"/><path class="cls-1" d="m9.48,13c-.31,0-.63-.12-.87-.35l-3.84-3.73c-.5-.48-.51-1.27-.03-1.77.48-.5,1.27-.51,1.77-.03l3.84,3.73c.5.48.51,1.27.03,1.77-.25.25-.57.38-.9.38Z"/><path class="cls-1" d="m24.01,9.37c-.69,0-1.25-.56-1.25-1.25V1.25C22.76.56,23.32,0,24.01,0s1.25.56,1.25,1.25v6.87c0,.69-.56,1.25-1.25,1.25Z"/></svg>