<?xml version="1.0" encoding="UTF-8"?><svg id="Layer_1" xmlns="http://www.w3.org/2000/svg" viewBox="0 0 58.65 56.75"><defs><style>.cls-1{fill:#19375d;}</style></defs><path class="cls-1" d="m29.11,11.45l21.99,42.64H6.84L29.11,11.45m.01-5.43L2.71,56.58h52.48L29.12,6.02h0Z"/><g><path class="cls-1" d="m30.79,13.25c-.45,0-.88-.24-1.11-.67l-4.66-8.9c-.32-.61-.08-1.37.53-1.69.61-.32,1.37-.08,1.69.53l4.66,8.9c.32.61.08,1.37-.53,1.69-.19.1-.38.14-.58.14Z"/><path class="cls-1" d="m27.43,13.25c-.2,0-.4-.05-.59-.15-.61-.33-.83-1.09-.51-1.69l4.8-8.9c.33-.61,1.09-.84,1.69-.51.61.33.83,1.09.51,1.69l-4.8,8.9c-.23.42-.66.66-1.1.66Z"/></g><polygon class="cls-1" points="56.6 49.34 54.35 56.75 53.9 49.02 56.6 49.34 56.6 49.34"/><polygon class="cls-1" points="3.92 49.02 3.47 56.75 1.22 49.34 3.92 49.02 3.92 49.02"/><path class="cls-1" d="m28.95,33.59c3.29,9.24,8.24,16.15,11.76,20.27h-23.52c3.52-4.12,8.47-11.03,11.76-20.27m0-9.55c-3.78,20.2-17.61,32.32-17.61,32.32h35.21s-13.82-12.11-17.61-32.32h0Z"/><rect class="cls-1" x="0" y="53.81" width="58.65" height="2.88" rx="1.44" ry="1.44"/><g><path class="cls-1" d="m6.48,11.66s.15,1.17.23,1.71c.16,1.05.45,1.96,1.22,2.35.26.13.52.24.79.33.31.1.93.27.93.27,0,0-.57.13-.85.22-.29.09-.58.19-.86.33-.77.39-1.08,1.31-1.23,2.37-.08.53-.22,1.66-.22,1.66,0,0-.19-1.36-.29-1.99-.2-1.35-.82-2.04-1.73-2.29-.39-.11-1.18-.32-1.18-.32,0,0,.91-.27,1.36-.41.94-.28,1.42-1.18,1.6-2.48.08-.55.23-1.75.23-1.75Z"/><path class="cls-1" d="m6.49,21.43c-.26,0-.47-.19-.51-.44,0,0-.19-1.35-.28-1.98-.21-1.4-.87-1.74-1.36-1.87l-1.18-.32c-.22-.06-.37-.26-.38-.49s.15-.43.36-.5l1.36-.41c.25-.07.99-.3,1.24-2.06.08-.55.23-1.75.23-1.75.03-.26.25-.45.51-.45h0c.26,0,.48.19.51.45,0,0,.15,1.17.23,1.7.17,1.12.46,1.72.94,1.96.24.12.48.22.72.3.3.09.91.26.91.26.23.06.38.27.38.51s-.17.44-.4.49c0,0-.54.12-.81.21-.26.08-.53.17-.79.3-.5.25-.79.86-.96,1.99-.08.52-.22,1.65-.22,1.65-.03.26-.25.45-.51.45h0Zm-1.43-5.13c.67.31,1.15.85,1.43,1.63.22-.62.58-1.19,1.23-1.52.08-.04.17-.08.25-.11-.08-.04-.17-.08-.25-.12-.64-.32-1-.89-1.22-1.52-.3.81-.77,1.36-1.43,1.64Z"/></g><g><path class="cls-1" d="m54.65,25.25s.09.69.13,1.01c.09.62.27,1.16.72,1.39.15.08.31.14.47.2.18.06.55.16.55.16,0,0-.34.08-.5.13-.17.05-.34.11-.51.2-.46.23-.64.77-.73,1.41-.05.31-.13.98-.13.98,0,0-.11-.8-.17-1.18-.12-.8-.49-1.21-1.02-1.35-.23-.06-.7-.19-.7-.19,0,0,.54-.16.81-.24.55-.17.84-.7.94-1.47.04-.33.14-1.04.14-1.04Z"/><path class="cls-1" d="m54.66,31.24c-.26,0-.47-.19-.51-.44,0,0-.11-.8-.17-1.17-.11-.7-.4-.87-.65-.94l-.7-.19c-.22-.06-.37-.26-.38-.49,0-.23.15-.43.36-.5l.81-.24c.11-.03.46-.14.58-1.04l.14-1.03c.03-.26.25-.45.51-.45h0c.26,0,.48.19.51.45,0,0,.09.69.13,1,.09.58.23.9.44,1,.13.07.26.12.4.17.17.06.53.15.53.15.23.06.38.27.38.51s-.17.44-.4.49c0,0-.31.07-.46.12-.15.05-.29.1-.44.17-.22.11-.37.44-.45,1.02-.04.31-.13.97-.13.97-.03.26-.25.45-.51.45h0Zm-.44-3.24c.16.12.3.27.43.48.11-.18.25-.35.44-.48-.19-.13-.33-.29-.44-.48-.12.19-.26.35-.43.48Z"/></g><path class="cls-1" d="m54.34,10.98c-3.63.9-7.31-1.31-8.21-4.95-.55-2.21.06-4.42,1.43-6.03-3.25,1.15-5.16,4.6-4.31,8.02.9,3.63,4.58,5.85,8.21,4.95,1.43-.35,2.63-1.14,3.52-2.18-.21.07-.42.14-.63.19Z"/></svg>