<?xml version="1.0" encoding="UTF-8"?><svg id="Layer_1" xmlns="http://www.w3.org/2000/svg" viewBox="0 0 52.47 57.02"><defs><style>.cls-1{fill:#19375d;}</style></defs><g><path class="cls-1" d="m9.91,57.02c-1.02,0-2.01-.15-2.94-.51-2-.76-3.47-2.37-4.36-4.76-.46-1.22-.57-2.37-.34-3.43.31-1.42,1.3-2.76,2.78-3.76.88-.6,1.83-1.02,2.74-1.43.28-.13.57-.26.85-.39,4.99-2.36,7.74-7.56,8.65-16.37.07-.69.68-1.18,1.37-1.12.69.07,1.19.69,1.12,1.37-.99,9.63-4.28,15.64-10.06,18.38-.3.14-.59.27-.89.41-.85.38-1.66.75-2.36,1.22-.55.37-1.5,1.15-1.74,2.22-.16.73.04,1.5.24,2.02.64,1.72,1.6,2.8,2.92,3.3,3.54,1.35,9.08-1.54,12.75-3.46l.6-.32c1.66-.86,3.07-1.7,4.3-2.45,3.25-1.95,5.6-3.35,7.61-1.59.52.45.57,1.24.12,1.76-.45.52-1.24.57-1.76.12-.61-.54-2.1.31-4.68,1.86-1.27.76-2.71,1.62-4.43,2.52l-.6.31c-3.25,1.7-7.82,4.09-11.87,4.09Z"/><path class="cls-1" d="m42.18,57.02c-4.05,0-8.62-2.39-11.87-4.09l-.6-.31c-1.73-.9-3.17-1.76-4.43-2.52-2.58-1.54-4.07-2.39-4.68-1.86-.52.45-1.31.4-1.76-.12-.46-.52-.4-1.31.12-1.76,2.01-1.76,4.36-.35,7.61,1.59,1.24.74,2.64,1.58,4.3,2.45l.6.32c3.67,1.92,9.21,4.81,12.75,3.46,1.32-.5,2.27-1.58,2.92-3.3.2-.52.4-1.3.24-2.02-.23-1.07-1.19-1.85-1.74-2.22-.71-.48-1.51-.84-2.36-1.22-.3-.13-.6-.27-.89-.41-5.78-2.73-9.07-8.75-10.06-18.38-.07-.69.43-1.3,1.12-1.37.68-.07,1.3.43,1.37,1.12.91,8.81,3.66,14.01,8.65,16.37.28.13.57.26.85.39.91.41,1.85.83,2.74,1.43,1.48,1,2.47,2.33,2.78,3.76.23,1.06.12,2.22-.34,3.43-.9,2.4-2.37,4-4.36,4.76-.93.35-1.91.51-2.94.51Z"/><path class="cls-1" d="m42.91,45.12c-.48,0-.94-.28-1.14-.75-.09-.21-2.28-5.32-2.75-15.95-.31-7.04-5.41-8.93-8.42-9.43-.68-.11-1.14-.76-1.03-1.44.11-.68.76-1.14,1.44-1.03,3.02.5,10.1,2.66,10.5,11.79.45,10.1,2.53,15.01,2.55,15.06.27.63-.02,1.37-.65,1.64-.16.07-.33.1-.5.1Z"/><path class="cls-1" d="m8.24,45.13c-.17,0-.34-.03-.5-.11-.63-.28-.92-1.01-.64-1.65.02-.05,2.1-4.96,2.55-15.06.38-8.64,6.92-11.01,9.72-11.63.68-.15,1.34.27,1.49.95.15.67-.27,1.34-.95,1.49-3.39.75-7.48,2.98-7.76,9.31-.47,10.63-2.66,15.74-2.75,15.95-.21.47-.66.75-1.15.75Z"/></g><path class="cls-1" d="m25.19,3.52c4.07,0,7.37,3.31,7.37,7.37s-3.31,7.37-7.37,7.37-7.37-3.31-7.37-7.37,3.31-7.37,7.37-7.37m0-2.5c-5.45,0-9.87,4.42-9.87,9.87s4.42,9.87,9.87,9.87,9.87-4.42,9.87-9.87S30.65,1.02,25.19,1.02h0Z"/><g id="Path_3663"><path class="cls-1" d="m22.85,10.85c-.08.25-.28.45-.53.54-.12.03-.5-.31-.49-.47,0-.23.2-.6.52-.63s.53.4.5.56Z"/><path class="cls-1" d="m22.3,11.65c-.12,0-.24-.05-.37-.16-.09-.07-.37-.32-.36-.58.01-.34.28-.84.76-.88.21-.01.41.07.56.25.14.15.26.42.21.63v.03c-.12.33-.37.59-.7.71-.04.01-.07.02-.11.02Zm.08-1.1s0,0,0,0c-.17.01-.28.26-.28.38.02.02.13.14.21.19.13-.06.24-.18.29-.32,0-.05-.05-.14-.12-.2-.04-.04-.07-.04-.09-.04Z"/></g><g id="Path_3663-2"><path class="cls-1" d="m28.87,10.85c-.08.25-.28.45-.53.54-.12.03-.5-.31-.49-.47,0-.23.2-.6.52-.63s.53.4.5.56Z"/><path class="cls-1" d="m28.32,11.65c-.12,0-.24-.05-.37-.16-.09-.07-.37-.32-.36-.58.01-.34.28-.84.76-.88.22-.01.41.07.56.25.14.16.26.42.21.63v.02c-.11.33-.37.59-.7.71-.04.01-.07.02-.11.02Zm.08-1.1s0,0,0,0c-.17.01-.28.26-.28.38.02.02.13.14.21.19.13-.06.23-.18.29-.32,0-.05-.05-.14-.12-.21-.04-.04-.07-.04-.09-.04Z"/></g><path class="cls-1" d="m25.14,15.95c-.09,0-.17,0-.26,0-2.75-.13-4.56-2.29-4.64-2.38-.16-.19-.13-.47.06-.62.19-.16.47-.13.62.06.02.02,1.65,1.95,4,2.06,1.53.06,3.03-.63,4.49-2.09.17-.17.45-.17.63,0,.17.17.17.45,0,.63-1.56,1.56-3.21,2.35-4.91,2.35Z"/><g><path class="cls-1" d="m48.78,12.98s.15,1.17.23,1.71c.16,1.05.45,1.96,1.22,2.35.26.13.52.24.79.33.31.1.93.27.93.27,0,0-.57.13-.85.22-.29.09-.58.19-.86.33-.77.39-1.08,1.31-1.23,2.37-.08.53-.22,1.66-.22,1.66,0,0-.19-1.36-.29-1.99-.2-1.35-.82-2.04-1.73-2.29-.39-.11-1.18-.32-1.18-.32,0,0,.91-.27,1.36-.41.94-.28,1.42-1.18,1.6-2.48.08-.55.23-1.75.23-1.75Z"/><path class="cls-1" d="m48.78,22.74c-.26,0-.47-.19-.51-.44,0,0-.19-1.35-.28-1.98-.21-1.4-.88-1.74-1.36-1.87l-1.18-.32c-.22-.06-.37-.26-.38-.49,0-.23.15-.43.36-.5l1.36-.41c.25-.07.99-.3,1.23-2.06.08-.55.23-1.75.23-1.75.03-.26.25-.45.51-.45h0c.26,0,.48.19.51.45,0,0,.15,1.17.23,1.7.17,1.12.46,1.72.94,1.96.24.12.48.22.72.3.3.1.91.27.91.27.23.06.38.27.38.51s-.17.44-.4.49c0,0-.54.12-.81.21-.26.08-.53.17-.79.3-.5.25-.79.86-.96,1.99-.08.52-.22,1.65-.22,1.65-.03.26-.25.45-.51.45h0Zm-1.43-5.13c.67.31,1.15.85,1.43,1.63.22-.62.58-1.19,1.23-1.52.08-.04.17-.08.25-.11-.08-.04-.17-.08-.25-.12-.64-.32-1-.89-1.22-1.52-.3.81-.77,1.36-1.43,1.64Z"/></g><g><path class="cls-1" d="m40.71.51s.09.69.13,1.01c.09.62.27,1.16.72,1.39.15.08.31.14.47.2.18.06.55.16.55.16,0,0-.34.08-.5.13-.17.05-.34.11-.51.2-.46.23-.64.77-.73,1.41-.05.31-.13.98-.13.98,0,0-.11-.8-.17-1.18-.12-.8-.49-1.21-1.02-1.35-.23-.06-.7-.19-.7-.19,0,0,.54-.16.81-.24.55-.17.84-.7.94-1.47.04-.33.14-1.04.14-1.04Z"/><path class="cls-1" d="m40.71,6.5c-.26,0-.47-.19-.51-.44,0,0-.11-.8-.17-1.17-.11-.7-.4-.87-.65-.94l-.7-.19c-.22-.06-.38-.26-.38-.49s.15-.43.36-.5l.81-.24c.11-.03.46-.14.58-1.05.04-.32.14-1.03.14-1.03.03-.26.25-.45.51-.45h0c.26,0,.48.19.51.45,0,0,.09.69.13,1,.09.58.23.9.45,1,.13.06.26.12.4.17.17.06.53.15.53.15.23.06.38.27.38.51s-.17.44-.4.49c0,0-.31.07-.46.12-.15.05-.29.1-.44.17-.22.11-.37.44-.45,1.02-.04.31-.13.97-.13.97-.03.26-.25.45-.51.45h0Zm-.44-3.24c.16.12.3.27.43.48.11-.18.25-.35.44-.48-.19-.13-.33-.29-.44-.48-.12.2-.26.36-.43.48Z"/></g><g><path class="cls-1" d="m8.32.51s.13,1.01.19,1.47c.13.9.39,1.68,1.05,2.01.22.11.45.21.68.28.26.08.8.23.8.23,0,0-.49.11-.73.19-.25.08-.5.16-.74.29-.66.33-.93,1.12-1.06,2.04-.07.45-.19,1.43-.19,1.43,0,0-.16-1.16-.24-1.7-.17-1.16-.71-1.75-1.48-1.96-.34-.09-1.01-.28-1.01-.28,0,0,.78-.24,1.17-.35.8-.24,1.21-1.01,1.37-2.13.06-.47.2-1.5.2-1.5Z"/><path class="cls-1" d="m8.32,8.88c-.22,0-.41-.16-.44-.38,0,0-.16-1.16-.24-1.7-.18-1.2-.75-1.49-1.16-1.6l-1.01-.28c-.19-.05-.32-.22-.32-.42,0-.2.12-.37.31-.43l1.17-.35c.21-.06.85-.25,1.06-1.76.06-.47.2-1.5.2-1.5.03-.22.21-.38.44-.38h0c.22,0,.41.17.44.39,0,0,.12,1,.19,1.45.14.96.39,1.48.81,1.68.2.1.41.19.62.26.26.08.78.23.78.23.19.05.33.23.32.43,0,.2-.15.37-.34.42,0,0-.47.11-.69.18-.23.07-.46.15-.67.26-.43.21-.68.74-.82,1.71-.06.45-.19,1.42-.19,1.42-.03.22-.21.38-.43.39h0Zm-1.23-4.39c.57.26.98.73,1.23,1.4.19-.53.5-1.02,1.05-1.3.07-.04.14-.07.21-.1-.07-.03-.15-.07-.22-.1-.55-.27-.86-.77-1.05-1.3-.25.7-.66,1.17-1.22,1.4Z"/></g><g><path class="cls-1" d="m2.4,15.73s.09.69.13,1.01c.09.62.27,1.16.72,1.39.15.08.31.14.47.2.18.06.55.16.55.16,0,0-.34.08-.5.13-.17.05-.34.11-.51.2-.46.23-.64.77-.73,1.41-.05.31-.13.98-.13.98,0,0-.11-.8-.17-1.18-.12-.8-.49-1.21-1.02-1.35-.23-.06-.7-.19-.7-.19,0,0,.54-.16.81-.24.55-.17.84-.7.94-1.47.04-.33.14-1.04.14-1.04Z"/><path class="cls-1" d="m2.4,21.71c-.26,0-.47-.19-.51-.44,0,0-.11-.8-.17-1.17-.11-.7-.4-.87-.65-.94l-.7-.19c-.22-.06-.37-.26-.38-.49,0-.23.15-.43.36-.5l.81-.24c.11-.03.46-.14.58-1.04l.14-1.03c.03-.26.22-.46.51-.45.26,0,.48.19.51.45,0,0,.09.69.13,1,.09.58.23.9.44,1,.13.06.26.12.4.17.17.06.53.15.53.15.23.06.38.27.38.51s-.17.44-.4.49c0,0-.31.07-.46.12-.15.05-.29.1-.44.17-.22.11-.37.44-.45,1.02-.04.31-.13.97-.13.98-.03.25-.25.45-.51.45h0Zm-.44-3.24c.16.12.3.27.43.48.11-.18.25-.35.44-.48-.19-.13-.33-.29-.44-.48-.12.2-.26.36-.43.48Z"/></g></svg>