<?xml version="1.0" encoding="UTF-8"?><svg id="Layer_1" xmlns="http://www.w3.org/2000/svg" viewBox="0 0 69.73 56.09"><defs><style>.cls-1{fill:none;}.cls-2{fill:#fff;}.cls-3{fill:#19375d;}</style></defs><g id="Group_2753"><g id="Ellipse_168"><circle class="cls-1" cx="8.35" cy="7.34" r="7.34"/><path class="cls-3" d="m8.35,14.69c-3.98,0-7.34-3.24-7.34-7.34S4.25,0,8.35,0s7.34,3.24,7.34,7.34-3.36,7.34-7.34,7.34Zm0-12.2c-2.61,0-4.85,2.12-4.85,4.85s2.12,4.85,4.85,4.85,4.85-2.12,4.85-4.85-2.24-4.85-4.85-4.85Z"/></g><g id="Path_3349"><path class="cls-1" d="m3.29,55.72v.37h9.96c0-.12,0-.25.12-.37l3.36-28.76v-1.74c-.5-4.61-4.61-7.97-9.21-7.47C2.91,18.25-.45,22.36.05,26.96l3.24,28.76Z"/><path class="cls-3" d="m11.13,53.48l3.11-26.76v-1.24c-.12-1.49-.87-2.86-1.99-3.86s-2.49-1.49-3.98-1.49h-.62c-3.24.37-5.6,3.24-5.23,6.47l3.11,26.76h5.6m2.24,2.61H3.41v-.37L.05,26.84c-.5-4.61,2.86-8.71,7.47-9.21s8.71,2.86,9.21,7.47v1.74l-3.36,28.76c0,.25,0,.37,0,.37Z"/></g></g><g id="Group_2753-2"><g id="Ellipse_168-2"><circle class="cls-1" cx="29.56" cy="7.34" r="7.34"/><path class="cls-3" d="m29.56,14.69c-3.98,0-7.34-3.24-7.34-7.34S25.45,0,29.56,0s7.34,3.24,7.34,7.34-3.36,7.34-7.34,7.34Zm0-12.2c-2.61,0-4.85,2.12-4.85,4.85s2.12,4.85,4.85,4.85,4.85-2.12,4.85-4.85-2.24-4.85-4.85-4.85Z"/></g><g id="Path_3349-2"><path class="cls-1" d="m24.49,55.72v.37h9.96c0-.12,0-.25.12-.37l3.36-28.76v-1.74c-.5-4.61-4.61-7.97-9.21-7.47-4.61.5-7.97,4.61-7.47,9.21l3.24,28.76Z"/><path class="cls-3" d="m32.33,53.48l3.11-26.76v-1.24c-.12-1.49-.87-2.86-1.99-3.86s-2.49-1.49-3.98-1.49h-.62c-3.24.37-5.6,3.24-5.23,6.47l3.11,26.76h5.6m2.24,2.61h-9.96v-.37l-3.36-28.76c-.5-4.61,2.86-8.71,7.47-9.21s8.71,2.86,9.21,7.47v1.74l-3.36,28.76c0,.25,0,.37,0,.37Z"/></g></g><g id="Group_2753-3"><g id="Ellipse_168-3"><circle class="cls-1" cx="50.76" cy="7.34" r="7.34"/><path class="cls-3" d="m50.76,14.69c-3.98,0-7.34-3.24-7.34-7.34S46.65,0,50.76,0s7.34,3.24,7.34,7.34-3.36,7.34-7.34,7.34Zm0-12.2c-2.61,0-4.85,2.12-4.85,4.85s2.12,4.85,4.85,4.85,4.85-2.12,4.85-4.85-2.24-4.85-4.85-4.85Z"/></g><g id="Path_3349-3"><path class="cls-1" d="m45.69,55.72v.37h9.96c0-.12,0-.25.12-.37l3.36-28.76v-1.74c-.5-4.61-4.61-7.97-9.21-7.47-4.61.5-7.97,4.61-7.47,9.21l3.24,28.76Z"/><path class="cls-3" d="m53.53,53.48l3.11-26.76v-1.24c-.12-1.49-.87-2.86-1.99-3.86s-2.49-1.49-3.98-1.49h-.62c-3.24.37-5.6,3.24-5.23,6.47l3.11,26.76h5.6m2.24,2.61h-9.96v-.37l-3.36-28.76c-.5-4.61,2.86-8.71,7.47-9.21s8.71,2.86,9.21,7.47v1.74l-3.36,28.76c0,.25,0,.37,0,.37Z"/></g></g><g id="Group_2753-4"><circle class="cls-2" cx="18.91" cy="7.34" r="5.71"/><g id="Ellipse_168-4"><circle class="cls-1" cx="18.96" cy="7.34" r="7.34"/><path class="cls-3" d="m18.96,14.69c-3.98,0-7.34-3.24-7.34-7.34S14.85,0,18.96,0s7.34,3.24,7.34,7.34-3.36,7.34-7.34,7.34Zm0-12.2c-2.61,0-4.85,2.12-4.85,4.85s2.12,4.85,4.85,4.85,4.85-2.12,4.85-4.85-2.24-4.85-4.85-4.85Z"/></g><g id="Path_3349-4"><path class="cls-1" d="m13.89,55.72v.37h9.96c0-.12,0-.25.12-.37l3.36-28.76v-1.74c-.5-4.61-4.61-7.97-9.21-7.47-4.61.5-7.97,4.61-7.47,9.21l3.24,28.76Z"/><polygon class="cls-2" points="11.61 23.93 18.12 17.63 23.58 19.07 27.33 25.1 23.81 42.87 23.97 55.6 16.73 55.6 16.13 53.35 14.1 49.46 11.61 23.93"/><path class="cls-3" d="m21.73,53.48l3.11-26.76v-1.24c-.12-1.49-.87-2.86-1.99-3.86s-2.49-1.49-3.98-1.49h-.62c-3.24.37-5.6,3.24-5.23,6.47l3.11,26.76h5.6m2.24,2.61h-9.96v-.37l-3.36-28.76c-.5-4.61,2.86-8.71,7.47-9.21s8.71,2.86,9.21,7.47v1.74l-3.36,28.76c0,.25,0,.37,0,.37Z"/></g></g><g id="Group_2753-5"><circle class="cls-2" cx="61.31" cy="7.34" r="5.71"/><g id="Ellipse_168-5"><circle class="cls-1" cx="61.36" cy="7.34" r="7.34"/><path class="cls-3" d="m61.36,14.69c-3.98,0-7.34-3.24-7.34-7.34S57.25,0,61.36,0s7.34,3.24,7.34,7.34-3.36,7.34-7.34,7.34Zm0-12.2c-2.61,0-4.85,2.12-4.85,4.85s2.12,4.85,4.85,4.85,4.85-2.12,4.85-4.85-2.24-4.85-4.85-4.85Z"/></g><g id="Path_3349-5"><path class="cls-1" d="m56.29,55.72v.37h9.96c0-.12,0-.25.12-.37l3.36-28.76v-1.74c-.5-4.61-4.61-7.97-9.21-7.47-4.61.5-7.97,4.61-7.47,9.21l3.24,28.76Z"/><polygon class="cls-2" points="54.01 23.93 60.52 17.63 65.98 19.07 69.73 25.1 66.21 42.87 66.37 55.6 59.13 55.6 58.53 53.35 56.5 49.46 54.01 23.93"/><path class="cls-3" d="m64.13,53.48l3.11-26.76v-1.24c-.12-1.49-.87-2.86-1.99-3.86s-2.49-1.49-3.98-1.49h-.62c-3.24.37-5.6,3.24-5.23,6.47l3.11,26.76h5.6m2.24,2.61h-9.96v-.37l-3.36-28.76c-.5-4.61,2.86-8.71,7.47-9.21s8.71,2.86,9.21,7.47v1.74l-3.36,28.76c0,.25,0,.37,0,.37Z"/></g></g><g id="Group_2753-6"><circle class="cls-2" cx="40.11" cy="7.34" r="5.71"/><g id="Ellipse_168-6"><circle class="cls-1" cx="40.16" cy="7.34" r="7.34"/><path class="cls-3" d="m40.16,14.69c-3.98,0-7.34-3.24-7.34-7.34S36.05,0,40.16,0s7.34,3.24,7.34,7.34-3.36,7.34-7.34,7.34Zm0-12.2c-2.61,0-4.85,2.12-4.85,4.85s2.12,4.85,4.85,4.85,4.85-2.12,4.85-4.85-2.24-4.85-4.85-4.85Z"/></g><g id="Path_3349-6"><path class="cls-1" d="m35.09,55.72v.37h9.96c0-.12,0-.25.12-.37l3.36-28.76v-1.74c-.5-4.61-4.61-7.97-9.21-7.47-4.61.5-7.97,4.61-7.47,9.21l3.24,28.76Z"/><polygon class="cls-2" points="32.81 23.93 39.32 17.63 44.78 19.07 48.53 25.1 45.01 42.87 45.17 55.6 37.93 55.6 37.33 53.35 35.3 49.46 32.81 23.93"/><path class="cls-3" d="m42.93,53.48l3.11-26.76v-1.24c-.12-1.49-.87-2.86-1.99-3.86s-2.49-1.49-3.98-1.49h-.62c-3.24.37-5.6,3.24-5.23,6.47l3.11,26.76h5.6m2.24,2.61h-9.96v-.37l-3.36-28.76c-.5-4.61,2.86-8.71,7.47-9.21s8.71,2.86,9.21,7.47v1.74l-3.36,28.76c0,.25,0,.37,0,.37Z"/></g></g></svg>