<?xml version="1.0" encoding="UTF-8"?><svg id="Layer_1" xmlns="http://www.w3.org/2000/svg" viewBox="0 0 50.14 56.97"><defs><style>.cls-1{fill:#19375d;}</style></defs><path class="cls-1" d="m35.53,20.92v22.96c0,5.84-4.75,10.59-10.59,10.59h-11.84c-5.84,0-10.59-4.75-10.59-10.59v-22.96h33.03m2.5-2.5H0v25.46c0,7.23,5.86,13.09,13.09,13.09h11.84c7.23,0,13.09-5.86,13.09-13.09v-25.46h0Z"/><path class="cls-1" d="m37.61,45.72c-.69,0-1.25-.56-1.25-1.25s.56-1.25,1.25-1.25c5.53,0,10.02-3.8,10.02-8.48s-4.5-8.48-10.02-8.48c-.69,0-1.25-.56-1.25-1.25s.56-1.25,1.25-1.25c6.91,0,12.52,4.92,12.52,10.98s-5.62,10.98-12.52,10.98Z"/><path class="cls-1" d="m17.92,15.42c-.46,0-.84-.37-.85-.83-.03-1.26.73-1.92,1.29-2.4.53-.46.71-.66.7-1.08s-.21-.61-.76-1.04c-.58-.45-1.38-1.08-1.41-2.33-.03-1.26.73-1.92,1.29-2.41.53-.46.71-.66.7-1.08-.01-.42-.21-.61-.76-1.04-.58-.45-1.38-1.08-1.41-2.34-.01-.47.36-.86.83-.87.44-.05.86.36.87.83.01.42.21.61.76,1.04.58.46,1.38,1.08,1.41,2.34.03,1.26-.73,1.92-1.29,2.41-.53.46-.71.66-.7,1.08.01.42.21.61.76,1.04.58.45,1.38,1.08,1.41,2.33.03,1.26-.73,1.92-1.29,2.4-.53.46-.71.66-.7,1.08.01.47-.36.86-.83.87,0,0-.02,0-.02,0Z"/><path class="cls-1" d="m8.35,16.47c-.39,0-.75-.27-.83-.68-.26-1.25.36-2.05.82-2.63.4-.52.59-.79.5-1.24-.1-.46-.38-.63-.95-.94-.65-.35-1.54-.84-1.81-2.09s.36-2.05.82-2.64c.4-.52.59-.79.5-1.25-.1-.46.2-.91.66-1.01.46-.09.91.2,1.01.66.26,1.25-.36,2.05-.82,2.64-.4.52-.59.79-.5,1.25.1.46.38.63.95.94.65.35,1.54.84,1.81,2.09.26,1.25-.36,2.05-.82,2.63-.4.52-.59.79-.5,1.24.1.46-.2.91-.66,1.01-.06.01-.12.02-.18.02Z"/><path class="cls-1" d="m29.6,16.44c-.43,0-.8-.32-.84-.76-.13-1.27.57-2,1.08-2.54.45-.47.67-.72.62-1.19-.05-.47-.31-.66-.85-1.03-.61-.42-1.45-.99-1.58-2.26-.13-1.27.57-2,1.08-2.54.45-.47.67-.72.62-1.19-.05-.47.29-.88.76-.93.47-.05.89.29.93.76.13,1.27-.57,2-1.08,2.54-.45.47-.67.72-.62,1.19.05.47.31.66.85,1.03.61.42,1.45.99,1.58,2.26.13,1.27-.57,2-1.08,2.54-.45.47-.67.72-.62,1.19.05.47-.29.88-.76.93-.03,0-.06,0-.09,0Z"/><g id="Path_3663"><path class="cls-1" d="m9.67,28.25c-.16.48-.54.87-1.02,1.04-.23.07-.95-.59-.94-.9.02-.43.37-1.16,1-1.21s1.02.77.96,1.07Z"/><path class="cls-1" d="m8.62,29.79c-.22,0-.45-.1-.7-.3-.17-.13-.72-.61-.7-1.12.02-.66.54-1.61,1.46-1.69.4-.03.78.13,1.08.47.26.3.5.8.41,1.21v.05c-.22.63-.72,1.13-1.34,1.35-.07.02-.14.03-.2.03Zm.16-2.11s-.01,0-.02,0c-.32.03-.53.49-.54.73.03.04.26.26.4.36.24-.12.45-.34.56-.61-.02-.09-.1-.27-.23-.39-.08-.07-.14-.08-.17-.08Z"/></g><g id="Path_3663-2"><path class="cls-1" d="m20.45,33.87c-.16.48-.54.87-1.02,1.04-.23.07-.95-.59-.94-.9.02-.43.37-1.16,1-1.21s1.02.77.96,1.07Z"/><path class="cls-1" d="m19.39,35.4c-.22,0-.45-.1-.7-.3-.17-.13-.72-.61-.7-1.12.02-.66.54-1.61,1.46-1.69.4-.03.78.13,1.08.47.26.3.5.8.41,1.21v.05c-.22.63-.71,1.13-1.34,1.35-.07.02-.14.03-.2.03Zm.16-2.11s-.01,0-.02,0c-.32.03-.53.49-.54.73.03.04.26.26.4.36.24-.12.45-.34.56-.61-.02-.09-.1-.27-.23-.39-.08-.07-.14-.08-.17-.08Z"/></g><g id="Path_3663-3"><path class="cls-1" d="m20.57,48.88c-.16.48-.54.87-1.02,1.04-.23.07-.95-.59-.94-.9.02-.43.37-1.16,1-1.21s1.02.77.96,1.07Z"/><path class="cls-1" d="m19.52,50.41c-.22,0-.45-.1-.7-.3-.17-.13-.72-.61-.7-1.12.02-.66.54-1.61,1.46-1.69.4-.03.78.13,1.08.47.26.3.5.8.41,1.21v.05c-.23.64-.71,1.13-1.34,1.35-.07.02-.14.03-.2.03Zm.16-2.11s-.01,0-.02,0c-.32.03-.53.49-.54.73.03.05.26.26.4.36.24-.12.45-.34.56-.61-.02-.09-.1-.27-.23-.39-.08-.07-.14-.08-.17-.08Z"/></g><g id="Path_3663-4"><path class="cls-1" d="m10.03,42.85c-.16.48-.54.87-1.02,1.04-.23.07-.95-.59-.94-.9.02-.43.37-1.16,1-1.21s1.02.77.96,1.07Z"/><path class="cls-1" d="m8.98,44.38c-.22,0-.45-.1-.7-.3-.17-.13-.72-.61-.7-1.12.02-.66.54-1.61,1.46-1.69.4-.03.78.13,1.08.47.26.3.5.8.41,1.21v.05c-.22.63-.71,1.13-1.34,1.35-.07.02-.14.03-.2.03Zm.16-2.11s-.01,0-.02,0c-.32.03-.53.49-.54.73.03.04.26.26.4.36.24-.12.45-.34.56-.61-.02-.09-.1-.27-.23-.39-.08-.07-.14-.08-.17-.08Z"/></g><g id="Path_3663-5"><path class="cls-1" d="m30.89,26.07c-.16.48-.54.87-1.02,1.04-.23.07-.95-.59-.94-.9.02-.43.37-1.16,1-1.21s1.02.77.96,1.07Z"/><path class="cls-1" d="m29.84,27.6c-.22,0-.45-.1-.7-.3-.17-.13-.72-.61-.7-1.12.02-.66.54-1.61,1.46-1.69.4-.03.78.13,1.08.47.26.3.5.8.41,1.21v.05c-.22.63-.71,1.13-1.34,1.35-.07.02-.14.03-.2.03Zm.16-2.11s-.01,0-.02,0c-.32.03-.53.49-.54.73.03.05.26.26.4.36.24-.12.45-.34.56-.61-.02-.09-.1-.27-.23-.39-.08-.07-.14-.08-.17-.08Z"/></g><g id="Path_3663-6"><path class="cls-1" d="m30.04,42.98c-.16.48-.54.87-1.02,1.04-.23.07-.95-.59-.94-.9.02-.43.37-1.16,1-1.21s1.02.77.96,1.07Z"/><path class="cls-1" d="m28.98,44.51c-.22,0-.45-.1-.71-.3-.17-.13-.72-.61-.7-1.12.02-.66.54-1.61,1.46-1.69.4-.03.78.13,1.08.47.26.3.5.8.41,1.21v.05c-.23.64-.71,1.13-1.34,1.35-.07.02-.13.03-.2.03Zm.16-2.11s-.01,0-.02,0c-.32.03-.53.49-.54.73.03.05.26.26.4.36.24-.12.45-.34.56-.61-.02-.09-.1-.27-.23-.39-.08-.07-.14-.08-.17-.08Z"/></g></svg>