<?xml version="1.0" encoding="utf-8"?>
<!-- Generator: Adobe Illustrator 26.0.1, SVG Export Plug-In . SVG Version: 6.00 Build 0)  -->
<svg version="1.1" id="Layer_1" xmlns="http://www.w3.org/2000/svg" xmlns:xlink="http://www.w3.org/1999/xlink" x="0px" y="0px"
	 viewBox="0 0 97 97" style="enable-background:new 0 0 97 97;" xml:space="preserve">
<style type="text/css">
	.st0{fill:#FF8200;}
	.st1{fill:none;}
	.st2{fill:#FFFFFF;}
</style>
<g>
	<g id="Group_4552_00000077295551557038318860000001536586083518538173_" transform="translate(-444 -399)">
		<circle id="Ellipse_228_00000108294448148168970540000006430846016742405255_" class="st0" cx="492.5" cy="447.5" r="48.5"/>
	</g>
	<g id="Component_134_1_00000057122409944000282580000003254120703389960589_" transform="translate(18 17)">
		<g id="Path_4104_00000011714113129086161560000014301331684386855082_" transform="translate(-710.808 -73.852)">
			<path class="st1" d="M740.8,114.3c-11.2,0-20.2-9.1-20.1-20.3c0-11.2,9.1-20.2,20.3-20.1c11.1,0,20.1,9,20.1,20.1
				c0.1,11.2-8.9,20.3-20.1,20.3C741,114.3,740.9,114.3,740.8,114.3z"/>
			<path class="st2" d="M740.9,112.3c4.9,0,9.5-1.9,12.9-5.3c3.4-3.4,5.3-8.1,5.3-13c0-2.4-0.5-4.8-1.4-7c-0.9-2.1-2.2-4.1-3.9-5.8
				c-1.7-1.7-3.6-3-5.8-3.9c-2.2-1-4.6-1.4-7-1.4l0,0c-4.9,0-9.5,1.9-12.9,5.3c-3.5,3.4-5.4,7.9-5.4,12.8c0,4.9,1.9,9.5,5.3,13
				C731.4,110.4,735.9,112.3,740.9,112.3L740.9,112.3 M740.9,114.3C740.8,114.3,740.8,114.3,740.9,114.3c-11.3,0-20.2-9.1-20.2-20.4
				c0-11.1,9.1-20,20.3-20c0,0,0,0,0,0c11,0,20.1,9.1,20.1,20.1C761.1,105.3,752.1,114.3,740.9,114.3z"/>
		</g>
		<path class="st2" d="M29.6,32c-3,0-6-1-8.5-3.1c-0.2-0.2-0.2-0.5-0.1-0.7c0.2-0.2,0.5-0.2,0.7-0.1c4.9,4.1,12.2,3.7,16.7-0.9
			c0.2-0.2,0.5-0.2,0.7,0c0.2,0.2,0.2,0.5,0,0.7C36.5,30.7,33.1,32,29.6,32z"/>
		<g id="Group_3224_00000055703242805340177550000004430393617662182530_" transform="translate(23.402 19.137)">
			
				<ellipse id="Ellipse_192_00000002348062659428927200000005784970923413754509_" class="st2" cx="1.3" cy="1.3" rx="1.3" ry="1.3"/>
			
				<ellipse id="Ellipse_193_00000016063666362088729430000009995410782998792376_" class="st2" cx="12" cy="1.3" rx="1.3" ry="1.3"/>
		</g>
		<path class="st2" d="M60.7,68.8c-0.3-1.1-0.5-2.2-0.9-3.3C56.1,55.6,49.2,49.1,39.2,46c-1-0.3-2-0.6-3.1-0.8
			C19.6,41.9,3.3,52.4-0.6,68.7c0.6,0.5,1.1,0.9,1.7,1.4C4.4,54.3,19.9,44,35.8,47.2c1,0.2,1.9,0.4,2.9,0.7
			c9.3,2.9,15.8,9.1,19.2,18.4c0.4,1,0.6,2,0.9,3c0.1,0.5,0.2,0.9,0.4,1.4c0.6-0.4,1.2-0.9,1.7-1.3C60.8,69.1,60.8,69,60.7,68.8z"/>
	</g>
</g>
</svg>
