<?xml version="1.0" encoding="UTF-8"?><svg id="Layer_1" xmlns="http://www.w3.org/2000/svg" viewBox="0 0 49.6 56.3"><defs><style>.cls-1{fill:#19375d;}</style></defs><path class="cls-1" d="m47.1,2.5v51.3H2.5V2.5h44.6m2.5-2.5H0v56.3h49.6V0h0Z"/><path class="cls-1" d="m48.06,11.6H1.62c-.69,0-1.25-.56-1.25-1.25s.56-1.25,1.25-1.25h46.44c.69,0,1.25.56,1.25,1.25s-.56,1.25-1.25,1.25Z"/><path class="cls-1" d="m24.8,51.36c-10.2,0-18.51-8.3-18.51-18.51S14.6,14.35,24.8,14.35s18.51,8.3,18.51,18.51-8.3,18.51-18.51,18.51Zm0-34.51c-8.83,0-16.01,7.18-16.01,16.01s7.18,16.01,16.01,16.01,16.01-7.18,16.01-16.01-7.18-16.01-16.01-16.01Z"/><path class="cls-1" d="m24.8,21.76c6.12,0,11.1,4.98,11.1,11.1s-4.98,11.1-11.1,11.1-11.1-4.98-11.1-11.1,4.98-11.1,11.1-11.1m0-2.5c-7.51,0-13.6,6.09-13.6,13.6s6.09,13.6,13.6,13.6,13.6-6.09,13.6-13.6-6.09-13.6-13.6-13.6h0Z"/><g id="Path_3663"><path class="cls-1" d="m9.29,5.79c-.16.48-.54.87-1.02,1.04-.23.07-.95-.59-.94-.9.02-.43.37-1.16,1-1.21s1.02.77.96,1.07Z"/><path class="cls-1" d="m8.23,7.32c-.22,0-.45-.1-.7-.3-.17-.13-.72-.61-.7-1.12.02-.66.54-1.61,1.46-1.69.4-.03.78.13,1.08.47.26.3.5.8.41,1.21v.05c-.22.64-.71,1.13-1.34,1.35-.07.02-.13.03-.2.03Zm.16-2.11s-.01,0-.02,0c-.32.03-.53.49-.54.73.03.05.26.26.4.36.24-.12.45-.34.56-.61-.02-.09-.1-.27-.23-.39-.08-.07-.14-.08-.17-.08Z"/></g><g id="Path_3663-2"><path class="cls-1" d="m14.68,5.79c-.16.48-.54.87-1.02,1.04-.23.07-.95-.59-.94-.9.02-.43.37-1.16,1-1.21s1.02.77.96,1.07Z"/><path class="cls-1" d="m13.63,7.32c-.22,0-.45-.1-.71-.3-.17-.13-.72-.61-.7-1.12.02-.66.54-1.61,1.46-1.69.4-.03.78.13,1.08.47.26.3.5.8.41,1.21v.05c-.22.64-.71,1.13-1.34,1.35-.07.02-.13.03-.2.03Zm.16-2.11s-.01,0-.02,0c-.32.03-.53.49-.54.73.03.05.26.26.4.36.24-.12.45-.34.56-.61-.02-.09-.1-.27-.23-.39-.08-.07-.14-.08-.17-.08Z"/></g><path class="cls-1" d="m43.47,7.02h-10.3c-.69,0-1.25-.56-1.25-1.25s.56-1.25,1.25-1.25h10.3c.69,0,1.25.56,1.25,1.25s-.56,1.25-1.25,1.25Z"/><g id="Path_3663-3"><path class="cls-1" d="m20.18,5.79c-.16.48-.54.87-1.02,1.04-.23.07-.95-.59-.94-.9.02-.43.37-1.16,1-1.21s1.02.77.96,1.07Z"/><path class="cls-1" d="m19.13,7.32c-.22,0-.45-.1-.7-.3-.17-.13-.72-.61-.7-1.12.02-.66.54-1.61,1.46-1.69.4-.03.78.13,1.08.47.26.3.5.8.41,1.21v.05c-.22.64-.71,1.13-1.34,1.35-.07.02-.13.03-.2.03Zm.16-2.11s-.01,0-.02,0c-.32.03-.53.49-.54.73.03.05.26.26.4.36.24-.12.45-.34.56-.61-.02-.09-.1-.27-.23-.39-.08-.07-.14-.08-.17-.08Z"/></g><path class="cls-1" d="m17.81,35c-1.45,0-2.21-.68-2.83-1.23-.53-.47-.9-.78-1.73-.8h0c-.47,0-.85-.38-.85-.84,0-.47.37-.85.84-.86,1.49,0,2.25.68,2.88,1.23.53.47.95.83,1.73.8.82,0,1.19-.35,1.71-.84.61-.57,1.38-1.27,2.85-1.29,1.52,0,2.25.68,2.87,1.23.53.47.93.83,1.73.8.82,0,1.19-.35,1.71-.84.61-.57,1.38-1.27,2.85-1.29,1.49,0,2.25.68,2.87,1.23.53.47.89.77,1.72.8h0c.47,0,.85.38.85.84,0,.47-.37.85-.84.86-1.52,0-2.25-.68-2.87-1.23-.53-.47-.94-.8-1.72-.8-.82,0-1.19.35-1.71.84-.61.57-1.38,1.27-2.85,1.29-1.44.01-2.25-.68-2.87-1.23-.53-.47-.92-.78-1.73-.8-.82,0-1.19.35-1.71.84-.61.57-1.38,1.27-2.85,1.29h-.04Z"/></svg>