<?xml version="1.0" encoding="UTF-8"?><svg id="Layer_1" xmlns="http://www.w3.org/2000/svg" viewBox="0 0 47.23 55.86"><defs><style>.cls-1{fill:#19375d;}</style></defs><g><path class="cls-1" d="m7.76,23.73s.15,1.17.23,1.71c.16,1.05.45,1.96,1.22,2.35.26.13.52.24.79.33.31.1.93.27.93.27,0,0-.57.13-.85.22-.29.09-.58.19-.86.33-.77.39-1.08,1.31-1.23,2.37-.08.53-.22,1.66-.22,1.66,0,0-.19-1.36-.29-1.99-.2-1.35-.82-2.04-1.73-2.29-.39-.11-1.18-.32-1.18-.32,0,0,.91-.27,1.36-.41.94-.28,1.42-1.18,1.6-2.48.08-.55.23-1.75.23-1.75Z"/><path class="cls-1" d="m7.76,33.5c-.26,0-.47-.19-.51-.44,0,0-.19-1.35-.28-1.98-.21-1.4-.87-1.74-1.36-1.87l-1.18-.32c-.22-.06-.37-.26-.38-.49,0-.23.15-.43.36-.5l1.36-.41c.25-.07.99-.3,1.24-2.06.08-.55.23-1.75.23-1.75.03-.26.25-.45.51-.45h0c.26,0,.48.19.51.45,0,0,.15,1.17.23,1.7.17,1.12.46,1.72.94,1.96.24.12.48.22.72.3.3.09.91.26.91.26.23.06.38.27.38.51s-.17.44-.4.49c0,0-.54.12-.81.21-.26.08-.53.17-.79.3-.5.25-.79.86-.96,1.99-.08.52-.22,1.65-.22,1.65-.03.26-.25.45-.51.45h0Zm-1.43-5.13c.67.31,1.15.85,1.43,1.63.22-.62.58-1.19,1.23-1.52.08-.04.17-.08.25-.11-.08-.04-.17-.08-.25-.12-.64-.32-1-.89-1.22-1.52-.3.81-.77,1.36-1.43,1.64Z"/></g><g><path class="cls-1" d="m39.88,25.07s.09.69.13,1.01c.09.62.27,1.16.72,1.39.15.08.31.14.47.2.18.06.55.16.55.16,0,0-.34.08-.5.13-.17.05-.34.11-.51.2-.46.23-.64.77-.73,1.41-.05.31-.13.98-.13.98,0,0-.11-.8-.17-1.18-.12-.8-.49-1.21-1.02-1.35-.23-.06-.7-.19-.7-.19,0,0,.54-.16.81-.24.55-.17.84-.7.94-1.47.04-.33.14-1.04.14-1.04Z"/><path class="cls-1" d="m39.88,31.06c-.26,0-.47-.19-.51-.44,0,0-.11-.8-.17-1.17-.11-.7-.4-.87-.65-.94l-.7-.19c-.22-.06-.37-.26-.38-.49,0-.23.15-.43.36-.5l.81-.24c.11-.03.46-.14.58-1.04.04-.32.14-1.03.14-1.03.03-.26.25-.45.51-.45h0c.26,0,.48.19.51.45,0,0,.09.69.13,1,.09.58.23.9.45,1,.13.06.26.12.4.17.17.06.53.15.53.15.23.06.38.27.38.51s-.17.44-.4.49c0,0-.31.07-.46.12-.15.05-.29.1-.44.17-.23.11-.37.44-.45,1.02-.04.31-.13.97-.13.97-.03.26-.25.45-.51.45h0Zm-.44-3.24c.16.12.3.27.43.48.11-.18.25-.35.44-.48-.18-.13-.33-.29-.44-.48-.12.2-.26.36-.43.48Z"/></g><g><path class="cls-1" d="m24.14,2.5c1.24,0,2.26,1.01,2.26,2.26v29.67c0,.97.56,1.85,1.44,2.26,3.07,1.44,5.05,4.55,5.05,7.92,0,4.83-3.93,8.75-8.75,8.75s-8.75-3.93-8.75-8.75c0-3.38,1.98-6.49,5.05-7.92.88-.41,1.44-1.29,1.44-2.26V4.76c0-1.24,1.01-2.26,2.26-2.26m0-2.5c-2.63,0-4.76,2.13-4.76,4.76v29.67c-3.83,1.79-6.5,5.67-6.5,10.19,0,6.21,5.04,11.25,11.25,11.25s11.25-5.04,11.25-11.25c0-4.51-2.66-8.39-6.5-10.19V4.76c0-2.63-2.13-4.76-4.76-4.76h0Z"/><path class="cls-1" d="m23.74,8.89h-2.97c-.69,0-1.25-.56-1.25-1.25s.56-1.25,1.25-1.25h2.97c.69,0,1.25.56,1.25,1.25s-.56,1.25-1.25,1.25Z"/><path class="cls-1" d="m23.74,15h-2.97c-.69,0-1.25-.56-1.25-1.25s.56-1.25,1.25-1.25h2.97c.69,0,1.25.56,1.25,1.25s-.56,1.25-1.25,1.25Z"/><path class="cls-1" d="m23.74,21.11h-2.97c-.69,0-1.25-.56-1.25-1.25s.56-1.25,1.25-1.25h2.97c.69,0,1.25.56,1.25,1.25s-.56,1.25-1.25,1.25Z"/><path class="cls-1" d="m23.74,27.22h-2.97c-.69,0-1.25-.56-1.25-1.25s.56-1.25,1.25-1.25h2.97c.69,0,1.25.56,1.25,1.25s-.56,1.25-1.25,1.25Z"/><path class="cls-1" d="m23.74,33.34h-2.97c-.69,0-1.25-.56-1.25-1.25s.56-1.25,1.25-1.25h2.97c.69,0,1.25.56,1.25,1.25s-.56,1.25-1.25,1.25Z"/><path class="cls-1" d="m23.3,51.39c-.69,0-1.25-.56-1.25-1.25s.56-1.25,1.25-1.25c3.01,0,5.47-2.45,5.47-5.47,0-.69.56-1.25,1.25-1.25s1.25.56,1.25,1.25c0,4.39-3.57,7.97-7.97,7.97Z"/></g><g><path class="cls-1" d="m43.54,5.68s.15,1.17.23,1.71c.16,1.05.45,1.96,1.22,2.35.26.13.52.24.79.33.31.1.93.27.93.27,0,0-.57.13-.85.22-.29.09-.58.19-.86.33-.77.39-1.08,1.31-1.23,2.37-.08.53-.22,1.66-.22,1.66,0,0-.19-1.36-.29-1.99-.2-1.35-.82-2.04-1.73-2.29-.39-.11-1.18-.32-1.18-.32,0,0,.91-.27,1.36-.41.94-.28,1.42-1.18,1.6-2.48.08-.55.23-1.75.23-1.75Z"/><path class="cls-1" d="m43.54,15.44c-.26,0-.47-.19-.51-.44,0,0-.19-1.35-.28-1.98-.21-1.4-.87-1.74-1.36-1.87l-1.18-.32c-.22-.06-.37-.26-.38-.49s.15-.43.36-.5l1.36-.41c.25-.07.99-.3,1.24-2.06.07-.55.23-1.75.23-1.75.03-.26.25-.45.51-.45h0c.26,0,.48.19.51.45,0,0,.15,1.17.23,1.7.17,1.12.46,1.72.94,1.96.24.12.48.22.72.3.3.1.91.26.91.27.23.06.38.27.38.51,0,.24-.17.44-.4.49,0,0-.54.12-.81.21-.26.08-.53.17-.79.3-.5.25-.79.86-.96,1.99-.08.52-.22,1.65-.22,1.65-.03.26-.25.45-.51.45h0Zm-1.43-5.13c.67.31,1.15.85,1.43,1.63.22-.62.58-1.19,1.23-1.52.08-.04.17-.08.25-.11-.08-.04-.17-.08-.25-.12-.64-.32-1-.89-1.22-1.52-.3.81-.77,1.36-1.43,1.64Z"/></g><g><path class="cls-1" d="m2.4,7.22s.09.69.13,1.01c.09.62.27,1.16.72,1.39.15.08.31.14.47.2.18.06.55.16.55.16,0,0-.34.08-.5.13-.17.05-.34.11-.51.2-.46.23-.64.77-.73,1.41-.05.31-.13.98-.13.98,0,0-.11-.8-.17-1.18-.12-.8-.49-1.21-1.02-1.35-.23-.06-.7-.19-.7-.19,0,0,.54-.16.81-.24.55-.17.84-.7.94-1.47.04-.33.14-1.04.14-1.04Z"/><path class="cls-1" d="m2.4,13.21c-.26,0-.47-.19-.51-.44,0,0-.11-.8-.17-1.17-.11-.7-.4-.87-.65-.94l-.7-.19C.16,10.4,0,10.2,0,9.98c0-.23.15-.43.37-.5l.81-.24c.11-.03.46-.14.58-1.05l.14-1.03c.03-.26.25-.45.51-.45h0c.26,0,.48.19.51.45,0,0,.09.69.13,1,.09.58.23.9.44,1,.13.06.26.12.4.17.17.06.53.15.53.15.23.06.38.27.38.51s-.17.44-.4.49c0,0-.31.07-.46.12-.15.05-.29.1-.44.17-.23.11-.37.44-.45,1.02-.04.31-.13.97-.13.97-.03.26-.25.45-.51.45h0Zm-.44-3.24c.16.12.3.27.43.48.11-.18.25-.35.44-.48-.18-.13-.33-.29-.44-.48-.12.19-.26.35-.43.48Z"/></g></svg>