<?xml version="1.0" encoding="UTF-8"?><svg id="Layer_1" xmlns="http://www.w3.org/2000/svg" xmlns:xlink="http://www.w3.org/1999/xlink" viewBox="0 0 57.32 55.84"><defs><style>.cls-1,.cls-2{fill:none;}.cls-3{clip-path:url(#clippath);}.cls-4{fill:#19375d;}.cls-2{stroke:#19375d;stroke-miterlimit:10;stroke-width:2.5px;}</style><clipPath id="clippath"><path class="cls-1" d="m17.78,14.5L.08,54.61c-.34.78.51,1.54,1.25,1.1l37.69-22.42c.51-.3.58-1.01.13-1.4L19.16,14.2c-.44-.39-1.14-.24-1.38.3Z"/></clipPath></defs><path class="cls-4" d="m20.07,15.51h0,0m-.9,2.04l16.65,14.74L4.42,50.97l14.75-33.42m-.59-3.57c-.33,0-.65.19-.8.52L.08,54.61c-.27.62.22,1.23.8,1.23.15,0,.3-.04.45-.13l37.69-22.42c.51-.3.58-1.01.13-1.4L19.16,14.2c-.17-.15-.37-.22-.58-.22h0Z"/><polygon class="cls-4" points="47.93 1.29 31.26 17.91 52.22 6.46 47.93 1.29"/><polygon class="cls-4" points="21.3 .24 22.85 11.92 24.74 0 21.3 .24"/><path class="cls-4" d="m55.6,23.08c.78.09,1.2,1.01,1.2,1.56,0,.39-.92,1.18-1.22,1.09-.6-.23-1.05-.73-1.23-1.34-.07-.38.46-1.4,1.24-1.31Z"/><path class="cls-4" d="m55.64,26.26c-.07,0-.14-.01-.21-.03-.77-.3-1.35-.93-1.58-1.69-.09-.46.13-1.04.52-1.46.36-.39.82-.58,1.28-.52h0c1.08.13,1.66,1.29,1.66,2.07,0,.6-.73,1.17-.88,1.28-.3.23-.57.34-.81.34Zm-.05-1.04h0Zm-.1-1.62c-.1,0-.2.05-.3.14-.23.2-.33.5-.33.58.11.35.41.69.79.88.21-.11.58-.45.63-.61,0-.28-.29-.93-.75-.99h0s-.02,0-.04,0Z"/><polygon class="cls-4" points="51.76 28.84 40.16 26.78 50.95 32.19 51.76 28.84"/><path class="cls-4" d="m28,14.34c-.1,0-.21-.02-.31-.06-.44-.17-.65-.66-.48-1.1.42-1.06,1.42-1.28,2.08-1.42.59-.12.78-.19.86-.38.07-.18-.02-.37-.37-.86-.39-.55-.98-1.39-.57-2.46.42-1.06,1.42-1.28,2.08-1.42.59-.12.78-.19.86-.38.07-.18-.02-.37-.37-.86-.39-.55-.98-1.39-.56-2.46.42-1.06,1.42-1.28,2.08-1.42.59-.12.79-.19.86-.38.17-.44.67-.65,1.1-.48.44.17.65.66.48,1.1-.42,1.06-1.42,1.28-2.08,1.42-.59.12-.79.19-.86.38-.07.19.02.37.37.86.39.55.98,1.39.56,2.46-.42,1.06-1.42,1.28-2.08,1.42-.59.12-.78.19-.86.38-.07.18.02.37.37.86.39.55.98,1.39.57,2.46-.42,1.06-1.42,1.28-2.08,1.42-.59.12-.78.19-.86.38-.13.33-.45.54-.79.54Z"/><path class="cls-4" d="m40.55,22.07c-.78,0-1.38-.49-1.8-.83-.47-.38-.64-.49-.83-.43-.45.14-.92-.11-1.06-.56-.14-.45.11-.92.56-1.06,1.09-.34,1.88.31,2.41.74.47.38.64.49.83.43.19-.06.27-.25.44-.83.19-.65.47-1.64,1.56-1.98,1.09-.34,1.89.31,2.41.74.47.38.65.49.83.43.19-.06.27-.25.44-.83.19-.65.47-1.64,1.56-1.98,1.09-.34,1.89.31,2.41.74.47.38.64.49.83.43.45-.14.92.11,1.06.56.14.45-.11.92-.56,1.06-1.09.34-1.89-.31-2.41-.74-.47-.38-.64-.49-.83-.43-.19.06-.27.25-.44.83-.19.65-.47,1.64-1.56,1.98-1.09.34-1.88-.31-2.41-.74-.47-.38-.64-.49-.83-.43-.19.06-.27.25-.43.83-.19.65-.47,1.64-1.56,1.98-.21.07-.42.1-.61.1Z"/><path class="cls-4" d="m17.1,3.77c.78.09,1.2,1.01,1.2,1.56,0,.39-.92,1.18-1.22,1.09-.6-.23-1.05-.73-1.23-1.34-.07-.38.46-1.4,1.24-1.31Z"/><path class="cls-4" d="m17.15,6.95c-.07,0-.14-.01-.21-.03-.77-.3-1.35-.93-1.58-1.69-.09-.46.13-1.04.52-1.46.36-.39.82-.57,1.28-.52h0c1.08.13,1.66,1.29,1.66,2.07,0,.6-.73,1.17-.88,1.28-.3.23-.57.34-.81.34Zm-.05-1.04h0Zm-.1-1.62c-.1,0-.2.05-.3.14-.23.2-.33.5-.33.58.11.35.41.69.79.88.21-.11.58-.45.63-.61,0-.28-.29-.93-.75-.99h0s-.02,0-.04,0Z"/><g class="cls-3"><g><line class="cls-2" x1="4.93" y1="34.54" x2="13.89" y2="48.91"/><line class="cls-2" x1="10.65" y1="29.4" x2="19.61" y2="43.77"/><line class="cls-2" x1="14.4" y1="22.61" x2="25.96" y2="41.16"/><line class="cls-2" x1="19.05" y1="17.22" x2="32.31" y2="38.93"/></g></g></svg>