<?xml version="1.0" encoding="UTF-8"?><svg id="Layer_1" xmlns="http://www.w3.org/2000/svg" viewBox="0 0 47.56 56.09"><defs><style>.cls-1{fill:none;}.cls-2{fill:#19375d;}.cls-3{fill:#55b9ec;}</style></defs><g id="Ellipse_167"><path class="cls-2" d="m20.78,23.23c-3.33,0-6.04-2.71-6.04-6.04s2.71-6.04,6.04-6.04,6.04,2.71,6.04,6.04-2.71,6.04-6.04,6.04Zm0-11.57c-3.05,0-5.54,2.48-5.54,5.54s2.48,5.54,5.54,5.54,5.54-2.48,5.54-5.54-2.48-5.54-5.54-5.54Z"/><g><path class="cls-2" d="m20.78,22.98c-3.14,0-5.79-2.55-5.79-5.79s2.55-5.79,5.79-5.79,5.79,2.55,5.79,5.79-2.65,5.79-5.79,5.79Zm0-9.61c-2.06,0-3.82,1.67-3.82,3.82s1.67,3.82,3.82,3.82,3.82-1.67,3.82-3.82-1.77-3.82-3.82-3.82Z"/><path class="cls-2" d="m20.78,23.23c-3.33,0-6.04-2.71-6.04-6.04s2.71-6.04,6.04-6.04,6.04,2.71,6.04,6.04-2.71,6.04-6.04,6.04Zm0-11.57c-3.05,0-5.54,2.48-5.54,5.54s2.48,5.54,5.54,5.54,5.54-2.48,5.54-5.54-2.48-5.54-5.54-5.54Zm0,9.61c-2.25,0-4.07-1.83-4.07-4.07s1.83-4.07,4.07-4.07,4.07,1.87,4.07,4.07-1.83,4.07-4.07,4.07Zm0-7.65c-1.97,0-3.57,1.6-3.57,3.57s1.6,3.57,3.57,3.57,3.57-1.6,3.57-3.57-1.64-3.57-3.57-3.57Z"/></g></g><g id="Path_3348"><path class="cls-2" d="m24.91,55.84h-8.34v-.53l-2.65-22.64c-.31-3.7,2.43-7.03,6.1-7.44,1.8-.25,3.6.25,5.05,1.39,1.46,1.15,2.38,2.79,2.58,4.62v1.4s-2.66,22.77-2.66,22.77l-.06.06s-.03.02-.03.12v.25Zm-7.84-.5h7.38s.04-.1.08-.15l2.64-22.58v-1.34c-.18-1.67-1.03-3.19-2.39-4.25-1.35-1.05-3.01-1.51-4.68-1.28-3.41.38-5.95,3.47-5.67,6.89l2.65,22.72Z"/><g><path class="cls-2" d="m23,53.53l2.45-21.08v-.98c-.1-1.18-.69-2.26-1.57-3.04s-1.96-1.18-3.14-1.18h-.49c-2.55.29-4.41,2.55-4.12,5.1l2.45,21.08h4.41m1.67,2.06h-7.84v-.29l-2.65-22.65c-.39-3.63,2.26-6.86,5.88-7.26s6.86,2.26,7.26,5.88v1.37l-2.65,22.65c.1.2.1.29,0,.29Z"/><path class="cls-2" d="m24.66,55.75h-8.09v-.54l-2.65-22.62c-.41-3.75,2.33-7.13,6.1-7.53,3.76-.41,7.12,2.33,7.53,6.1v1.4s-2.64,22.61-2.64,22.61c.06.14.1.3.02.44-.06.09-.16.15-.28.15Zm-7.59-.5h7.34v-.07s2.66-22.65,2.66-22.65v-1.34c-.38-3.47-3.51-6.01-6.98-5.63-3.5.38-6.04,3.51-5.66,6.98l2.65,22.72Zm5.93-1.56h-4.63l-2.48-21.3c-.15-1.3.22-2.57,1.05-3.58.82-1.01,1.99-1.64,3.29-1.79h.52c1.25,0,2.39.43,3.3,1.24.96.86,1.55,2,1.65,3.21v1s-2.45,21.11-2.45,21.11l-.25-.03v.15Zm-4.19-.5h3.98l2.42-20.76v-.95c-.09-1.06-.62-2.08-1.49-2.85-.82-.73-1.85-1.11-2.97-1.11h-.49c-1.14.13-2.2.71-2.93,1.61-.74.91-1.07,2.05-.94,3.21l2.43,20.86Z"/></g></g><g id="Ellipse_167-2"><path class="cls-3" d="m5.48,30.15c-2.65,0-4.81-2.16-4.81-4.81s2.16-4.81,4.81-4.81,4.81,2.16,4.81,4.81-2.16,4.81-4.81,4.81Zm0-9.11c-2.38,0-4.31,1.93-4.31,4.31s1.93,4.31,4.31,4.31,4.31-1.93,4.31-4.31-1.93-4.31-4.31-4.31Z"/><g><path class="cls-2" d="m5.48,29.9c-2.47,0-4.56-2.01-4.56-4.56s2.01-4.56,4.56-4.56,4.56,2.01,4.56,4.56-2.09,4.56-4.56,4.56Zm0-7.57c-1.62,0-3.01,1.31-3.01,3.01s1.31,3.01,3.01,3.01,3.01-1.31,3.01-3.01-1.39-3.01-3.01-3.01Z"/><path class="cls-2" d="m5.48,30.15c-2.65,0-4.81-2.16-4.81-4.81s2.16-4.81,4.81-4.81,4.81,2.16,4.81,4.81-2.16,4.81-4.81,4.81Zm0-9.11c-2.38,0-4.31,1.93-4.31,4.31s1.93,4.31,4.31,4.31,4.31-1.93,4.31-4.31-1.93-4.31-4.31-4.31Zm0,7.57c-1.8,0-3.26-1.46-3.26-3.26s1.46-3.26,3.26-3.26,3.26,1.49,3.26,3.26-1.46,3.26-3.26,3.26Zm0-6.02c-1.52,0-2.76,1.24-2.76,2.76s1.24,2.76,2.76,2.76,2.76-1.24,2.76-2.76-1.29-2.76-2.76-2.76Z"/></g></g><g id="Path_3348-2"><path class="cls-3" d="m8.54,55.84H2.12v-.47L.03,37.55c-.25-2.94,1.93-5.59,4.86-5.92,1.43-.19,2.86.2,4.02,1.1,1.16.91,1.89,2.22,2.05,3.68v1.11s-2.1,17.96-2.1,17.96l-.06.06v.25l-.25.05Zm-5.93-.5h5.72s.03-.05.04-.08l2.08-17.77v-1.05c-.14-1.3-.81-2.48-1.86-3.31-1.05-.82-2.34-1.17-3.65-1-2.66.3-4.64,2.7-4.42,5.37l2.09,17.84Z"/><g><path class="cls-2" d="m7.23,53.97l1.93-16.61v-.77c-.08-.93-.54-1.78-1.24-2.39s-1.54-.93-2.47-.93h-.39c-2.01.23-3.48,2.01-3.24,4.02l1.93,16.61h3.48m1.31,1.62H2.37v-.23L.28,37.44c-.31-2.86,1.78-5.41,4.63-5.72s5.41,1.78,5.72,4.63v1.08l-2.09,17.84c.08.15.08.23,0,.23Z"/><path class="cls-2" d="m8.54,55.77H2.12v-.48L.03,37.47c-.16-1.45.26-2.87,1.18-4,.92-1.13,2.22-1.84,3.67-1.99,2.96-.31,5.67,1.86,5.99,4.86v1.11s-2.08,17.8-2.08,17.8c.04.1.09.25,0,.38l-.07.12-.19.02Zm-5.93-.5h5.68s2.09-17.85,2.09-17.85v-1.05c-.3-2.7-2.75-4.68-5.44-4.39-1.32.14-2.5.79-3.34,1.81-.84,1.03-1.22,2.32-1.08,3.63l2.08,17.85Zm4.62-1.12h-3.7l-1.96-16.83c-.24-2.12,1.31-4.04,3.46-4.29h.41c1,0,1.91.34,2.64.99.77.68,1.24,1.59,1.32,2.56v.79s-1.93,16.64-1.93,16.64l-.25-.03v.17Zm-3.25-.5h3.04l1.9-16.31v-.74c-.07-.82-.48-1.61-1.15-2.21-.64-.57-1.43-.86-2.31-.86h-.39c-1.85.22-3.21,1.89-3,3.74l1.91,16.39Z"/></g></g><g id="Ellipse_168"><circle class="cls-1" cx="39.19" cy="7.34" r="7.34"/><path class="cls-2" d="m39.19,14.69c-3.98,0-7.34-3.24-7.34-7.34S35.08,0,39.19,0s7.34,3.24,7.34,7.34-3.36,7.34-7.34,7.34Zm0-12.2c-2.61,0-4.85,2.12-4.85,4.85s2.12,4.85,4.85,4.85,4.85-2.12,4.85-4.85-2.24-4.85-4.85-4.85Z"/></g><g id="Path_3349"><path class="cls-1" d="m34.12,55.72v.37h9.96c0-.12,0-.25.12-.37l3.36-28.76v-1.74c-.5-4.61-4.61-7.97-9.21-7.47-4.61.5-7.97,4.61-7.47,9.21l3.24,28.76Z"/><path class="cls-2" d="m41.96,53.48l3.11-26.76v-1.24c-.12-1.49-.87-2.86-1.99-3.86s-2.49-1.49-3.98-1.49h-.62c-3.24.37-5.6,3.24-5.23,6.47l3.11,26.76h5.6m2.24,2.61h-9.96v-.37l-3.36-28.76c-.5-4.61,2.86-8.71,7.47-9.21s8.71,2.86,9.21,7.47v1.74l-3.36,28.76c0,.25,0,.37,0,.37Z"/></g></svg>