<?xml version="1.0" encoding="utf-8"?>
<!-- Generator: Adobe Illustrator 27.2.0, SVG Export Plug-In . SVG Version: 6.00 Build 0)  -->
<svg version="1.1" id="Layer_1" xmlns="http://www.w3.org/2000/svg" xmlns:xlink="http://www.w3.org/1999/xlink" x="0px" y="0px"
	 viewBox="0 0 71.9 71.9" style="enable-background:new 0 0 71.9 71.9;" xml:space="preserve">
<style type="text/css">
	.st0{fill:#19375D;}
	.st1{clip-path:url(#SVGID_00000104668580680063854240000010947820874088257408_);}
	.st2{opacity:0.997;fill:none;stroke:#FFFFFF;stroke-width:2;stroke-miterlimit:10;enable-background:new    ;}
	.st3{fill:none;stroke:#FFFFFF;stroke-width:0.7;stroke-linecap:round;stroke-linejoin:round;}
</style>
<g id="Component_26_3" transform="translate(225.463)">
	<g id="Group_3199">
		<ellipse id="Ellipse_172" class="st0" cx="-189.5" cy="36" rx="36" ry="36"/>
		<g>
			<g>
				<g>
					<g>
						<defs>
							<circle id="SVGID_1_" cx="-189.5" cy="36" r="36"/>
						</defs>
						<clipPath id="SVGID_00000092435540928886497340000000834876186724372387_">
							<use xlink:href="#SVGID_1_"  style="overflow:visible;"/>
						</clipPath>
						<g id="Group_3198" style="clip-path:url(#SVGID_00000092435540928886497340000000834876186724372387_);">
							<ellipse id="Ellipse_173" class="st2" cx="-171.1" cy="27.3" rx="8.7" ry="8.7"/>
							<path id="Path_3641" class="st2" d="M-181,78.5c0,0.1,19.9,0,19.9,0c0-0.1,0-31.1,0-31.1c0.1-0.7,0.1-1.4,0-2.1
								c-0.5-5.5-5.3-9.6-10.8-9.1s-9.6,5.3-9.1,10.8c0,0.1,0,0.3,0,0.4L-181,78.5L-181,78.5z"/>
							<g id="Group_3197" transform="translate(28.94 21.417)">
								<path id="Path_3642" class="st3" d="M-221.7,0c3.6,1,5.8,4.7,4.8,8.3c-0.5,2-2,3.7-3.9,4.5"/>
								<path id="Path_3643" class="st3" d="M-223.5,2.6c2.2,0.6,3.4,2.8,2.9,4.9c-0.3,1.2-1.2,2.2-2.3,2.7"/>
								<path id="Path_3644" class="st3" d="M-225.5,4.4c1.1,0.3,1.8,1.5,1.5,2.6c-0.2,0.6-0.6,1.1-1.2,1.4"/>
							</g>
							<ellipse id="Ellipse_174" class="st2" cx="-207.9" cy="27.3" rx="8.7" ry="8.7"/>
							<path id="Path_3645" class="st2" d="M-217.9,78.5c0,0.1,19.9,0,19.9,0c0-0.1,0-31.1,0-31.1c0.1-0.7,0.1-1.4,0-2.1
								c-0.5-5.5-5.3-9.6-10.8-9.1s-9.6,5.3-9.1,10.8c0,0.1,0,0.3,0,0.4L-217.9,78.5L-217.9,78.5z"/>
						</g>
					</g>
				</g>
			</g>
		</g>
	</g>
</g>
</svg>
