<?xml version="1.0" encoding="UTF-8"?><svg id="Layer_1" xmlns="http://www.w3.org/2000/svg" viewBox="0 0 65.52 56.09"><defs><style>.cls-1{fill:none;}.cls-2{fill:#fff;}.cls-3{fill:#19375d;}</style></defs><g id="Group_2753"><g id="Ellipse_168"><circle class="cls-1" cx="8.35" cy="7.34" r="7.34"/><path class="cls-3" d="m8.35,14.69c-3.98,0-7.34-3.24-7.34-7.34S4.25,0,8.35,0s7.34,3.24,7.34,7.34-3.36,7.34-7.34,7.34Zm0-12.2c-2.61,0-4.85,2.12-4.85,4.85s2.12,4.85,4.85,4.85,4.85-2.12,4.85-4.85-2.24-4.85-4.85-4.85Z"/></g><g id="Path_3349"><path class="cls-1" d="m3.29,55.72v.37h9.96c0-.12,0-.25.12-.37l3.36-28.76v-1.74c-.5-4.61-4.61-7.97-9.21-7.47C2.91,18.25-.45,22.36.05,26.96l3.24,28.76Z"/><path class="cls-3" d="m11.13,53.48l3.11-26.76v-1.24c-.12-1.49-.87-2.86-1.99-3.86s-2.49-1.49-3.98-1.49h-.62c-3.24.37-5.6,3.24-5.23,6.47l3.11,26.76h5.6m2.24,2.61H3.41v-.37L.05,26.84c-.5-4.61,2.86-8.71,7.47-9.21s8.71,2.86,9.21,7.47v1.74l-3.36,28.76c0,.25,0,.37,0,.37Z"/></g></g><g id="Group_2753-2"><g id="Ellipse_168-2"><circle class="cls-1" cx="32.75" cy="7.34" r="7.34"/><path class="cls-3" d="m32.75,14.69c-3.98,0-7.34-3.24-7.34-7.34S28.64,0,32.75,0s7.34,3.24,7.34,7.34-3.36,7.34-7.34,7.34Zm0-12.2c-2.61,0-4.85,2.12-4.85,4.85s2.12,4.85,4.85,4.85,4.85-2.12,4.85-4.85-2.24-4.85-4.85-4.85Z"/></g><g id="Path_3349-2"><path class="cls-1" d="m27.68,55.72v.37h9.96c0-.12,0-.25.12-.37l3.36-28.76v-1.74c-.5-4.61-4.61-7.97-9.21-7.47-4.61.5-7.97,4.61-7.47,9.21l3.24,28.76Z"/><path class="cls-3" d="m35.52,53.48l3.11-26.76v-1.24c-.12-1.49-.87-2.86-1.99-3.86s-2.49-1.49-3.98-1.49h-.62c-3.24.37-5.6,3.24-5.23,6.47l3.11,26.76h5.6m2.24,2.61h-9.96v-.37l-3.36-28.76c-.5-4.61,2.86-8.71,7.47-9.21s8.71,2.86,9.21,7.47v1.74l-3.36,28.76c0,.25,0,.37,0,.37Z"/></g></g><g id="Group_2753-3"><g id="Ellipse_168-3"><circle class="cls-1" cx="57.15" cy="7.34" r="7.34"/><path class="cls-3" d="m57.15,14.69c-3.98,0-7.34-3.24-7.34-7.34S53.04,0,57.15,0s7.34,3.24,7.34,7.34-3.36,7.34-7.34,7.34Zm0-12.2c-2.61,0-4.85,2.12-4.85,4.85s2.12,4.85,4.85,4.85,4.85-2.12,4.85-4.85-2.24-4.85-4.85-4.85Z"/></g><g id="Path_3349-3"><path class="cls-1" d="m52.08,55.72v.37h9.96c0-.12,0-.25.12-.37l3.36-28.76v-1.74c-.5-4.61-4.61-7.97-9.21-7.47-4.61.5-7.97,4.61-7.47,9.21l3.24,28.76Z"/><path class="cls-3" d="m59.92,53.48l3.11-26.76v-1.24c-.12-1.49-.87-2.86-1.99-3.86s-2.49-1.49-3.98-1.49h-.62c-3.24.37-5.6,3.24-5.23,6.47l3.11,26.76h5.6m2.24,2.61h-9.96v-.37l-3.36-28.76c-.5-4.61,2.86-8.71,7.47-9.21s8.71,2.86,9.21,7.47v1.74l-3.36,28.76c0,.25,0,.37,0,.37Z"/></g></g><g id="Group_2753-4"><circle class="cls-2" cx="20.5" cy="7.34" r="5.71"/><g id="Ellipse_168-4"><circle class="cls-1" cx="20.54" cy="7.34" r="7.34"/><path class="cls-3" d="m20.54,14.69c-3.98,0-7.34-3.24-7.34-7.34S16.43,0,20.54,0s7.34,3.24,7.34,7.34-3.36,7.34-7.34,7.34Zm0-12.2c-2.61,0-4.85,2.12-4.85,4.85s2.12,4.85,4.85,4.85,4.85-2.12,4.85-4.85-2.24-4.85-4.85-4.85Z"/></g><g id="Path_3349-4"><path class="cls-1" d="m15.47,55.72v.37h9.96c0-.12,0-.25.12-.37l3.36-28.76v-1.74c-.5-4.61-4.61-7.97-9.21-7.47-4.61.5-7.97,4.61-7.47,9.21l3.24,28.76Z"/><polygon class="cls-2" points="13.2 23.93 19.71 17.63 25.16 19.07 28.92 25.1 25.4 42.87 25.56 55.6 18.32 55.6 17.71 53.35 15.69 49.46 13.2 23.93"/><path class="cls-3" d="m23.32,53.48l3.11-26.76v-1.24c-.12-1.49-.87-2.86-1.99-3.86s-2.49-1.49-3.98-1.49h-.62c-3.24.37-5.6,3.24-5.23,6.47l3.11,26.76h5.6m2.24,2.61h-9.96v-.37l-3.36-28.76c-.5-4.61,2.86-8.71,7.47-9.21s8.71,2.86,9.21,7.47v1.74l-3.36,28.76c0,.25,0,.37,0,.37Z"/></g></g><g id="Group_2753-5"><circle class="cls-2" cx="44.9" cy="7.34" r="5.71"/><g id="Ellipse_168-5"><circle class="cls-1" cx="44.95" cy="7.34" r="7.34"/><path class="cls-3" d="m44.95,14.69c-3.98,0-7.34-3.24-7.34-7.34S40.84,0,44.95,0s7.34,3.24,7.34,7.34-3.36,7.34-7.34,7.34Zm0-12.2c-2.61,0-4.85,2.12-4.85,4.85s2.12,4.85,4.85,4.85,4.85-2.12,4.85-4.85-2.24-4.85-4.85-4.85Z"/></g><g id="Path_3349-5"><path class="cls-1" d="m39.88,55.72v.37h9.96c0-.12,0-.25.12-.37l3.36-28.76v-1.74c-.5-4.61-4.61-7.97-9.21-7.47-4.61.5-7.97,4.61-7.47,9.21l3.24,28.76Z"/><polygon class="cls-2" points="37.6 23.93 44.11 17.63 49.57 19.07 53.32 25.1 49.8 42.87 49.96 55.6 42.72 55.6 42.12 53.35 40.09 49.46 37.6 23.93"/><path class="cls-3" d="m47.72,53.48l3.11-26.76v-1.24c-.12-1.49-.87-2.86-1.99-3.86s-2.49-1.49-3.98-1.49h-.62c-3.24.37-5.6,3.24-5.23,6.47l3.11,26.76h5.6m2.24,2.61h-9.96v-.37l-3.36-28.76c-.5-4.61,2.86-8.71,7.47-9.21s8.71,2.86,9.21,7.47v1.74l-3.36,28.76c0,.25,0,.37,0,.37Z"/></g></g></svg>