<?xml version="1.0" encoding="UTF-8"?><svg id="Layer_1" xmlns="http://www.w3.org/2000/svg" viewBox="0 0 51.81 55.91"><defs><style>.cls-1{fill:#19375d;}</style></defs><g><path class="cls-1" d="m45.88,55.91H5.93c-1.59,0-2.89-1.29-2.89-2.89v-28.47h45.72v28.47c0,1.59-1.29,2.89-2.89,2.89ZM5.54,27.05v25.97c0,.21.17.39.39.39h39.95c.21,0,.39-.17.39-.39v-25.97H5.54Z"/><path class="cls-1" d="m50.21,27.05H1.6C.72,27.05,0,26.34,0,25.45v-9.04C0,15.53.72,14.81,1.6,14.81h48.61c.88,0,1.6.72,1.6,1.6v9.04c0,.88-.72,1.6-1.6,1.6ZM2.5,24.55h46.81v-7.24H2.5v7.24Z"/><path class="cls-1" d="m26.09,16.63c-.3,0-.6-.11-.83-.32-.4-.35-.52-.92-.32-1.41l4.15-9.95c.68-1.64,1.73-2.96,3.02-3.84,2.13-1.44,4.51-1.46,6.7-.05,1.8,1.16,2.19,2.57,2.2,3.54.03,3.32-4.17,6.15-4.34,6.27-.94.63-9.05,5.1-9.97,5.61-.19.1-.4.16-.6.16Zm9.39-14.12c-.66,0-1.32.22-1.98.67-.89.6-1.62,1.55-2.12,2.73l-2.77,6.64c3.05-1.69,6.18-3.45,6.65-3.77,1.13-.75,3.24-2.75,3.23-4.17,0-.19,0-.79-1.05-1.46-.67-.43-1.33-.65-1.98-.65Z"/><path class="cls-1" d="m25.59,15.93c-.13,0-.27-.02-.4-.07-.75-.25-7.33-2.48-8.12-2.82-.15-.07-3.77-1.67-4.22-4.28-.14-.8-.03-2,1.25-3.19,1.53-1.42,3.4-1.74,5.29-.91,1.13.5,2.12,1.38,2.87,2.55l4.38,6.79c.29.45.26,1.03-.06,1.45-.24.31-.61.48-.99.48Zm-8.24-9.21c-.55,0-1.05.23-1.55.69-.56.52-.5.83-.49.93.16.92,1.9,2.04,2.75,2.41.34.15,2.37.85,4.53,1.59l-2.43-3.77c-.49-.76-1.1-1.31-1.78-1.62-.36-.16-.7-.24-1.02-.24Z"/><rect class="cls-1" x="24.66" y="15.04" width="2.5" height="38.29"/></g><g id="Path_3663"><path class="cls-1" d="m8.11,30.76c.16-.48.54-.87,1.02-1.04.23-.07.95.59.94.9-.02.43-.37,1.16-1,1.21s-1.02-.77-.96-1.07Z"/><path class="cls-1" d="m9,32.33c-.36,0-.71-.17-.98-.48-.26-.3-.5-.8-.41-1.21v-.05c.22-.63.72-1.13,1.34-1.35.29-.08.58.01.91.27.17.13.72.61.7,1.12-.02.66-.54,1.61-1.46,1.69-.03,0-.07,0-.1,0Zm-.4-1.48c.02.09.1.27.23.39.1.09.17.09.19.08.32-.03.53-.49.54-.73-.03-.05-.26-.26-.4-.36-.24.12-.45.34-.56.61Z"/></g><g id="Path_3663-2"><path class="cls-1" d="m9.18,49.19c.16-.48.54-.87,1.02-1.04.23-.07.95.59.94.9-.02.43-.37,1.16-1,1.21s-1.02-.77-.96-1.07Z"/><path class="cls-1" d="m10.07,50.77c-.36,0-.71-.17-.98-.48-.26-.3-.5-.8-.41-1.21v-.05c.22-.63.71-1.13,1.34-1.35.29-.08.58.01.91.27.17.13.72.61.7,1.12-.02.66-.54,1.61-1.46,1.69-.03,0-.07,0-.1,0Zm-.4-1.48c.02.09.1.27.23.39.1.09.17.09.19.08.32-.03.53-.49.54-.73-.03-.05-.26-.26-.4-.36-.24.12-.45.34-.56.61Z"/></g><g id="Path_3663-3"><path class="cls-1" d="m17.77,43.25c.16-.48.54-.87,1.02-1.04.23-.07.95.59.94.9-.02.43-.37,1.16-1,1.21s-1.02-.77-.96-1.07Z"/><path class="cls-1" d="m18.66,44.83c-.36,0-.71-.17-.98-.48-.26-.3-.5-.8-.41-1.21v-.05c.22-.63.72-1.13,1.34-1.35.29-.08.57.01.91.27.17.13.72.61.7,1.12-.02.66-.54,1.61-1.46,1.69-.03,0-.07,0-.1,0Zm-.4-1.48c.02.09.1.27.23.39.1.09.17.08.19.08.32-.03.53-.49.54-.73-.03-.04-.26-.26-.4-.36-.24.12-.45.34-.56.61Z"/></g><g id="Path_3663-4"><path class="cls-1" d="m19.12,31.97c.16-.48.54-.87,1.02-1.04.23-.07.95.59.94.9-.02.43-.37,1.16-1,1.21s-1.02-.77-.96-1.07Z"/><path class="cls-1" d="m20.01,33.54c-.36,0-.71-.17-.98-.48-.26-.3-.5-.8-.41-1.21v-.05c.22-.64.71-1.13,1.34-1.35.29-.08.57.01.91.27.17.13.72.61.7,1.12-.02.66-.54,1.61-1.46,1.69-.03,0-.07,0-.1,0Zm-.4-1.48c.02.09.1.27.23.39.1.09.17.09.19.08.32-.03.53-.49.54-.73-.03-.04-.26-.26-.4-.36-.24.12-.45.34-.56.61Z"/></g><g id="Path_3663-5"><path class="cls-1" d="m34.67,29.73c-.16.48-.54.87-1.02,1.04-.23.07-.95-.59-.94-.9.02-.43.37-1.16,1-1.21s1.02.77.96,1.07Z"/><path class="cls-1" d="m33.61,31.26c-.22,0-.45-.1-.7-.3-.17-.13-.72-.61-.7-1.12.02-.66.54-1.61,1.46-1.69.4-.03.78.13,1.08.47.26.3.5.8.41,1.21v.05c-.22.63-.72,1.13-1.34,1.35-.07.02-.14.03-.2.03Zm.16-2.11s-.01,0-.02,0c-.32.03-.53.5-.54.73.03.05.26.26.4.36.24-.12.45-.34.56-.61-.02-.09-.1-.27-.23-.39-.08-.07-.14-.08-.17-.08Z"/></g><g id="Path_3663-6"><path class="cls-1" d="m41.41,36.18c-.16.48-.54.87-1.02,1.04-.23.07-.95-.59-.94-.9.02-.43.37-1.16,1-1.21s1.02.77.96,1.07Z"/><path class="cls-1" d="m40.36,37.71c-.22,0-.45-.1-.7-.3-.17-.13-.72-.61-.7-1.12.02-.66.54-1.61,1.46-1.69.4-.03.78.13,1.08.47.26.3.5.8.41,1.21v.05c-.22.63-.72,1.13-1.34,1.35-.07.02-.14.03-.2.03Zm.16-2.11s-.01,0-.02,0c-.32.03-.53.49-.54.73.03.04.26.26.4.36.24-.12.45-.34.56-.61-.02-.09-.1-.27-.23-.39-.08-.07-.14-.08-.17-.08Z"/></g><g id="Path_3663-7"><path class="cls-1" d="m44.25,49.14c-.16.48-.54.87-1.02,1.04-.23.07-.95-.59-.94-.9.02-.43.37-1.16,1-1.21s1.02.77.96,1.07Z"/><path class="cls-1" d="m43.19,50.68c-.22,0-.45-.1-.7-.3-.17-.13-.72-.61-.7-1.12.02-.66.54-1.61,1.46-1.69.4-.03.78.13,1.08.47.26.3.5.8.41,1.21v.05c-.23.64-.71,1.13-1.34,1.35-.07.02-.14.03-.2.03Zm.16-2.11s-.01,0-.02,0c-.32.03-.53.49-.54.73.03.05.26.26.4.36.24-.12.45-.34.56-.61-.02-.09-.1-.27-.23-.39-.08-.07-.14-.08-.17-.08Z"/></g><g id="Path_3663-8"><path class="cls-1" d="m33.81,46.64c-.16.48-.54.87-1.02,1.04-.23.07-.95-.59-.94-.9.02-.43.37-1.16,1-1.21s1.02.77.96,1.07Z"/><path class="cls-1" d="m32.76,48.17c-.22,0-.45-.1-.7-.3-.17-.13-.72-.61-.7-1.12.02-.66.54-1.61,1.46-1.69.4-.04.78.13,1.08.47.26.3.5.8.41,1.21v.05c-.22.63-.71,1.13-1.34,1.35-.07.02-.14.03-.2.03Zm.16-2.11s-.01,0-.02,0c-.32.03-.53.49-.54.73.03.05.26.26.4.36.24-.12.45-.34.56-.61-.02-.09-.1-.27-.23-.39-.08-.07-.14-.08-.17-.08Z"/></g></svg>