<?xml version="1.0" encoding="UTF-8"?><svg id="Layer_1" xmlns="http://www.w3.org/2000/svg" viewBox="0 0 57.08 55.95"><defs><style>.cls-1{fill:#19375d;}</style></defs><path class="cls-1" d="m49.42,19.74c1.48-.02,2.7-.32,3.74-.9,2.33-1.3,3.67-3.33,3.89-5.88.13-1.52-.15-2.89-.82-4.06-1.35-2.32-3.45-3.63-6.08-3.77-1.76-.1-3.38.38-4.67,1.39-1.31,1.02-2.32,2.43-3.18,4.46-.22.51-.54.85-1.47.92-.54.05-.89-.12-1.17-.55l-.26-.4c-.68-1.03-1.32-2.01-1.86-3.04-.92-1.76-1.8-3.58-2.65-5.35l-.59-1.21c-.56-1.15-1.18-1.7-2.72-1.12l-.98.37c-1.86.7-3.78,1.43-5.64,2.26-1.37.61-2.65,1.41-3.81,2.19-.63.42-1.19,1.14-1.49,1.94-.58,1.53.21,3.49,1.74,4.29.69.36,1.23.67,1.69.98,1.38.9,2.12,1.84,2.42,3.02.21.83.11,1.73-.29,2.76-.49,1.26-1.29,2.12-2.43,2.64-1.04.47-2.14.55-3.57.25-1.1-.23-1.89-.91-2.58-2.2-.48-.91-.68-1.94-.83-3.21-.15-1.32-1.03-2.52-2.24-3.06-1.17-.52-2.51-.34-3.66.49-2.03,1.46-3.7,3.2-5.59,5.36-.94,1.07-1.76,2.05-2.55,3.04-1.06,1.25-.27,2.22,0,2.48l1.06,1.04c1.06,1.04,2.17,2.12,3.19,3.22,1.16,1.25,2.33,2.62,3.57,4.19.59.74.43,1.26.2,1.68-.34.62-.78.88-1.61.97-1.87.19-4.01.53-5.76,2.15-1.22,1.13-1.97,2.46-2.25,3.95-.47,2.56.21,4.84,1.97,6.59,1.16,1.16,2.61,1.86,4.18,2.04,3.46.4,6.59-1.52,7.96-4.89.31-.77.69-1.25.92-1.37,1-.55,1.4-.45,2.14.54.86,1.15,1.61,2.35,2.21,3.56.88,1.76,1.71,3.59,2.51,5.37l.77,1.7c.29.64.77,1.38,1.72,1.38.29,0,.63-.07,1.02-.24,1.04-.44,2.07-.9,3.1-1.38l.98-.45c1.24-.57,2.51-1.16,3.75-1.81,1.02-.54,2.19-1.19,3.15-2.08,1.13-1.04,1.66-2.38,1.45-3.67-.21-1.28-1.12-2.38-2.5-3.01-1.79-.81-2.85-1.7-3.53-2.97-1.05-1.96-.52-4.55,1.21-5.92,1.22-.97,2.58-1.24,4.14-.84,1.71.44,2.84,1.53,3.44,3.33.2.6.31,1.28.41,1.99.04.29.09.58.14.86.34,1.95,1.78,3.24,3.66,3.28,1.22.04,2.33-.37,3.3-1.14.93-.74,1.79-1.56,2.58-2.34,1.27-1.24,2.62-2.6,4.12-4.15.49-.5.97-1.07,1.52-1.77.61-.79.52-1.74-.25-2.43-1.33-1.21-2.48-2.3-3.5-3.35-1.08-1.11-2.14-2.24-3.19-3.38l-.95-1.02c-.03-.15-.1-.29-.19-.42-.08-.11-.16-.21-.24-.32-.13-.17-.25-.33-.35-.51-.32-.59-.42-.84-.34-1.12.09-.33.37-1.35,1.96-1.37Zm-3.74,3.64c.13.23.27.44.41.63.03.25.14.49.32.68l1.35,1.45c1.07,1.15,2.14,2.29,3.23,3.42.95.98,2,1.99,3.21,3.09-.34.42-.66.78-.98,1.11-1.49,1.53-2.82,2.87-4.08,4.1-.75.74-1.55,1.51-2.39,2.18-.53.42-1.12.62-1.75.62-1-.02-1.27-.91-1.34-1.29-.05-.27-.09-.53-.13-.8-.12-.78-.24-1.59-.51-2.39-.87-2.6-2.6-4.25-5.13-4.9-2.31-.59-4.41-.16-6.24,1.28-2.66,2.1-3.45,5.95-1.83,8.95,1.2,2.24,3.12,3.33,4.66,4.02.65.29,1.04.72,1.12,1.2.08.49-.17,1.03-.7,1.51-.75.69-1.72,1.23-2.65,1.72-1.18.62-2.42,1.19-3.63,1.75l-.99.46c-.9.42-1.81.83-2.72,1.22l-.67-1.49c-.81-1.8-1.65-3.65-2.55-5.46-.67-1.34-1.49-2.66-2.44-3.92-.92-1.23-1.94-1.84-3.08-1.84-.67,0-1.39.21-2.15.63-1.01.56-1.65,1.71-2,2.58-.95,2.34-3.08,3.67-5.44,3.4-1.03-.12-1.98-.59-2.75-1.36-1.21-1.2-1.63-2.66-1.3-4.45.18-.98.68-1.83,1.52-2.61,1.2-1.11,2.81-1.36,4.36-1.52,1.61-.16,2.75-.88,3.48-2.2.8-1.45.66-2.99-.42-4.34-1.28-1.62-2.49-3.03-3.7-4.33-1.06-1.14-2.18-2.24-3.26-3.3l-.61-.6c.67-.83,1.4-1.7,2.23-2.65,1.78-2.03,3.34-3.66,5.18-4.99.46-.33.89-.41,1.27-.24.42.19.77.66.82,1.13.16,1.34.4,2.75,1.09,4.07,1.02,1.93,2.4,3.05,4.22,3.43,1.93.4,3.54.27,5.05-.41,1.73-.78,2.97-2.11,3.69-3.96.59-1.52.72-2.9.38-4.22-.45-1.79-1.54-3.21-3.43-4.45-.53-.35-1.14-.7-1.9-1.1-.46-.24-.74-.95-.61-1.29.12-.32.36-.65.58-.79,1.08-.72,2.25-1.46,3.45-2,1.8-.8,3.69-1.51,5.52-2.21l.76-.29.5,1.04c.86,1.78,1.75,3.63,2.69,5.42.6,1.14,1.3,2.21,1.98,3.24l.26.39c.77,1.17,1.96,1.75,3.39,1.63,1.71-.14,2.88-.94,3.49-2.38.69-1.63,1.47-2.74,2.44-3.5.83-.65,1.89-.95,3.06-.89,1.83.1,3.18.94,4.12,2.57.43.74.6,1.61.51,2.64-.15,1.76-1.03,3.06-2.67,3.98-.68.38-1.53.58-2.6.59-2.13.03-3.72,1.21-4.25,3.15-.34,1.27.19,2.25.55,2.91Z"/></svg>