<?xml version="1.0" encoding="utf-8"?>
<!-- Generator: Adobe Illustrator 26.5.0, SVG Export Plug-In . SVG Version: 6.00 Build 0)  -->
<svg version="1.1" id="a" xmlns="http://www.w3.org/2000/svg" xmlns:xlink="http://www.w3.org/1999/xlink" x="0px" y="0px"
	 viewBox="0 0 1948.1 355.8" style="enable-background:new 0 0 1948.1 355.8;" xml:space="preserve">
<style type="text/css">
	.st0{fill:#FFFFFF;}
	.st1{fill:#1B365D;}
</style>
<path class="st0" d="M556.9,97.1h27.5c2.5,0,4.6,2,4.6,4.6v154.7c0,2.5-2,4.6-4.6,4.6h-27.5c-2.5,0-4.6-2-4.6-4.6V101.7
	C552.3,99.2,554.4,97.2,556.9,97.1L556.9,97.1z M743.7,97.1h27.5c2.5,0,4.5,2,4.5,4.5v154.9c0,2.4-2,4.4-4.4,4.4h-29.8
	c-1.5,0-2.9-0.7-3.8-1.9l-76.7-100.8v98.2c0,2.5-2,4.5-4.5,4.5H629c-2.5,0-4.5-2-4.5-4.5V101.7c0-2.5,2.1-4.6,4.6-4.6h27.4
	c1.4,0,2.8,0.7,3.6,1.8l79,103.7v-101C739.2,99.2,741.2,97.1,743.7,97.1L743.7,97.1z M1114.9,101.6v23.6c0,2.5-2,4.5-4.5,4.5h-77.1
	v33.8h68.8c2.5,0,4.6,2.1,4.6,4.6v22c0,2.5-2.1,4.6-4.6,4.6h-68.8v34h79.7c2.4,0,4.4,2,4.4,4.4v23.5c0,2.4-2,4.4-4.4,4.4h-111.8
	c-2.5,0-4.5-2-4.5-4.5V101.8c0-2.6,2.1-4.6,4.6-4.6h109C1112.9,97.1,1114.9,99.1,1114.9,101.6z M1283,151.5
	c0,26.2-10.4,43.2-31.2,50.9l36.7,51.8c2,2.9,0,6.8-3.5,6.8h-34.5c-1.4,0-2.7-0.7-3.5-1.8l-33.7-48.5c-0.9-1.2-2.3-2-3.8-2h-22.9
	v47.9c0,2.4-1.9,4.4-4.3,4.4h-27.9c-2.4,0-4.3-2-4.3-4.4V101.8c0-2.6,2.1-4.7,4.7-4.7h57.5c25.5,0,43.6,4.3,54.5,12.9
	C1277.6,118.6,1283,132.5,1283,151.5L1283,151.5z M1238.9,171c4.5-4.1,6.8-10.5,6.8-19.3s-2.3-14.9-7-18.2
	c-4.7-3.3-12.9-4.9-24.6-4.9h-27.4v48.5h26.7C1225.9,177.1,1234.4,175,1238.9,171L1238.9,171z M1499.6,101.6v23.1
	c0,2.5-2,4.5-4.5,4.5h-71.4v35.4h67.7c2.5,0,4.5,2,4.5,4.5v23.1c0,2.5-2,4.5-4.5,4.5h-67.7v59.8c0,2.4-2,4.4-4.4,4.4h-27.5
	c-2.6,0-4.6-2.1-4.6-4.6V101.8c0-2.6,2.1-4.6,4.6-4.6h103.4C1497.6,97.1,1499.6,99.2,1499.6,101.6L1499.6,101.6z M1668.4,238.4
	c-16.6,16.2-37,24.3-61.2,24.3s-44.6-8.1-61.2-24.3c-16.6-16.2-24.8-36.3-24.8-60.4s8.3-44.2,24.8-60.4s37-24.3,61.2-24.3
	s44.6,8.1,61.2,24.3c16.6,16.2,24.8,36.3,24.8,60.4S1685,222.2,1668.4,238.4L1668.4,238.4z M1656,178.1c0-14.6-4.7-27.1-14.1-37.4
	s-20.9-15.5-34.6-15.5s-25.2,5.2-34.6,15.5c-9.4,10.3-14.1,22.8-14.1,37.4s4.7,27,14.1,37.3c9.4,10.2,20.9,15.4,34.6,15.4
	s25.2-5.1,34.6-15.4S1656,192.8,1656,178.1z M1807.9,97.1h33.2c3.6,0,5.8,4,3.8,7l-46.6,72l50.9,78.1c1.9,2.9-0.2,6.8-3.7,6.8h-34.3
	c-1.3,0-2.6-0.7-3.3-1.8l-33.8-52.1l-33.3,51.8c-0.8,1.3-2.3,2.1-3.8,2.1h-33.4c-3.5,0-5.6-3.9-3.7-6.9l50.6-77.1l-46.9-73.1
	c-1.9-3,0.2-6.9,3.8-6.9h33.1c1.6,0,3.1,0.8,3.9,2.2l29.8,46.4l29.8-46.4C1804.8,98,1806.3,97.1,1807.9,97.1L1807.9,97.1z
	 M520.3,185.5h-63.9c-2.4,0-4.3,1.9-4.3,4.3v15.1c0,2.4,1.9,4.3,4.3,4.3H483c-9.7,13.3-25.3,22-43,22c-29.4,0-53.2-23.8-53.2-53.2
	s23.8-53.2,53.2-53.2c17.3,0,32.7,8.3,42.4,21.1l25.1-10.5c0.1,0,0.1-0.1,0.2-0.1c1.5-0.7,2.5-2.2,2.5-3.9c0-0.9-0.3-1.7-0.7-2.4h0
	c-15.4-21.8-40.8-36.1-69.5-36.1c-47,0-85,38.1-85,85s38.1,85,85,85c18.2,0,35-5.7,48.8-15.4l2.8,10.2c0.5,1,1.4,1.5,2.5,1.5h10.8
	c1.7,0,3.2-1.1,3.7-2.7c0,0,14.7-60.8,15.4-65.8c0-0.2,0.1-0.4,0.1-0.7c0-0.1,0-0.2,0-0.3C524.2,187.5,522.5,185.7,520.3,185.5
	L520.3,185.5z M963.2,185.5h-63.9c-2.3,0-4.3,1.9-4.3,4.3v15.1c0,2.4,1.9,4.3,4.3,4.3h26.5c-9.7,13.3-25.3,22-43,22
	c-29.4,0-53.2-23.8-53.2-53.2s23.8-53.2,53.2-53.2c17.3,0,32.7,8.3,42.4,21.1l25.1-10.5c0.1,0,0.2-0.1,0.2-0.1
	c1.5-0.7,2.5-2.2,2.5-3.9c0-0.9-0.3-1.7-0.7-2.4h0c-15.4-21.8-40.8-36.1-69.5-36.1c-47,0-85,38.1-85,85s38.1,85,85,85
	c18.2,0,35-5.7,48.8-15.4l2.8,10.2c0.5,1,1.4,1.5,2.5,1.5h10.8c1.7,0,3.2-1.1,3.7-2.7c0,0,14.7-60.8,15.4-65.8
	c0-0.2,0.1-0.4,0.1-0.7c0-0.1,0-0.2,0-0.3C967.1,187.5,965.4,185.7,963.2,185.5L963.2,185.5z M1888.8,99.1c2.9,1.7,5.1,3.9,6.8,6.8
	c1.6,2.9,2.5,6.1,2.5,9.6s-0.8,6.7-2.5,9.6c-1.7,2.9-4,5.2-6.9,6.9c-2.9,1.7-6.1,2.5-9.6,2.5s-6.7-0.8-9.6-2.5
	c-2.9-1.7-5.2-4-6.8-6.9c-1.7-2.9-2.5-6.1-2.5-9.6s0.8-6.7,2.5-9.6s3.9-5.2,6.8-6.9c2.9-1.7,6.1-2.5,9.7-2.5
	S1885.9,97.4,1888.8,99.1L1888.8,99.1z M1887.1,129.4c2.4-1.4,4.3-3.4,5.7-5.8c1.4-2.4,2.1-5.2,2.1-8.1s-0.7-5.7-2-8.1
	c-1.4-2.4-3.2-4.3-5.6-5.7c-2.4-1.4-5.1-2.1-8.1-2.1s-5.7,0.7-8.2,2.1s-4.3,3.3-5.7,5.8c-1.4,2.4-2.1,5.1-2.1,8.1s0.7,5.7,2.1,8.1
	c1.4,2.4,3.3,4.3,5.7,5.8c2.4,1.4,5.1,2.1,8.1,2.1S1884.7,130.8,1887.1,129.4L1887.1,129.4z M1887.8,116.3c-0.7,1.1-1.8,1.9-3.1,2.5
	l4.7,7.2h-4.6l-4.2-6.4h-4.8v6.4h-4.6V105h8.8c2.8,0,4.9,0.7,6.5,2c1.6,1.3,2.4,3.1,2.4,5.4C1888.9,113.9,1888.5,115.2,1887.8,116.3
	L1887.8,116.3z M1879.7,116.1c1.5,0,2.7-0.3,3.5-1c0.8-0.7,1.2-1.6,1.2-2.8s-0.4-2.1-1.2-2.7c-0.8-0.6-2-1-3.5-1h-4v7.4H1879.7z"/>
<g>
	<g>
		<path class="st1" d="M158.4,188.4c-3.5,0-6.3,2.8-6.3,6.3s2.8,6.3,6.3,6.3s6.3-2.8,6.3-6.3S161.8,188.4,158.4,188.4z"/>
		<path class="st1" d="M189.2,178.8c0,3.5,2.8,6.3,6.3,6.3s6.3-2.8,6.3-6.3s-2.8-6.3-6.3-6.3S189.2,175.3,189.2,178.8z"/>
		<path class="st1" d="M266.1,183.1h-48.6l-0.2-0.1l-16.4,45.2c-0.3,1.5-1.1,2.8-2.3,3.7c-0.1,0.1-0.1,0.1-0.2,0.1
			c-0.4,0.3-0.8,0.5-1.2,0.7c-1.3,0.5-2.8,0.6-4.2,0l-52.6-22c-2.4-0.9-4.4-2.9-5.4-5.2l-23.1-53.3c-1.5-3.4,1.2-7.1,4.9-6.9
			l43.8,12.5l0,0c0.6,0.1,1.1,0.2,1.7,0.2c0.8,0,1.6-0.2,2.3-0.5c1.2-0.5,2.2-1.4,2.8-2.5c0.1-0.2,0.2-0.4,0.3-0.6l19.7-38.5l0,0
			c0.2-0.5,0.4-1,0.7-1.4l0.1-0.1c0,0,0.1-0.1,0.1-0.1c0.1-0.1,0.2-0.2,0.3-0.3c0.4-0.4,0.9-0.7,1.4-0.9c0.6-0.3,1.3-0.5,2-0.5
			c1.2,0,2.3,0.4,3.1,1.2c0,0,0.1,0.1,0.1,0.1c0.1,0.1,0.2,0.2,0.3,0.3c0.2,0.2,0.3,0.3,0.4,0.5c0.2,0.3,0.4,0.5,0.5,0.9l12.3,28.4
			l43-17.9c1.7-0.7,2.9-2.4,2.9-4.4c0-1-0.3-1.9-0.8-2.7h0C236.3,94.1,207.5,78,174.9,78c-53.3,0-96.5,43.2-96.5,96.5
			s43.2,96.5,96.5,96.5c20.6,0,39.7-6.5,55.4-17.5l3.2,11.5c0.5,1.1,1.6,1.7,2.8,1.7h10.9c1.9,0,3.6-1.2,4.2-3.1
			c0,0,18.1-69.1,18.9-74.8c0-0.2,0-0.3,0.1-0.5c0-0.1,0-0.3,0-0.5C270.4,185.4,268.5,183.4,266.1,183.1L266.1,183.1z"/>
	</g>
</g>
</svg>
