<?xml version="1.0" encoding="utf-8"?>
<!-- Generator: Adobe Illustrator 26.0.1, SVG Export Plug-In . SVG Version: 6.00 Build 0)  -->
<svg version="1.1" id="Layer_1" xmlns="http://www.w3.org/2000/svg" xmlns:xlink="http://www.w3.org/1999/xlink" x="0px" y="0px"
	 viewBox="0 0 97 97" style="enable-background:new 0 0 97 97;" xml:space="preserve">
<style type="text/css">
	.st0{fill:#FF8200;}
	.st1{fill:#FFFFFF;}
</style>
<g>
	<g id="Group_4555_00000039854142284001347280000006196842084444672174_" transform="translate(-444 -399)">
		<circle id="Ellipse_231_00000034057345954027310990000012534964253874586015_" class="st0" cx="492.5" cy="447.5" r="48.5"/>
	</g>
	<g id="Component_135_1_00000045614641779291235460000006355711065261134256_" transform="translate(400 24.612)">
		<g id="Group_4558_00000094582448713071141620000001579463557749694606_">
			<path class="st1" d="M-351.9,56.3c-0.2,0-0.4,0-0.5-0.1c-30.3-18.5-31-37.2-30.5-42.5c0.6-6.6,4.2-11.7,9.5-13.7
				c6.5-2.4,14.3-0.1,21.6,6.5c7.6-6.6,15.6-9,22.1-6.4c5.3,2.1,8.8,7.4,9.3,14.1c1.2,17-15.2,32.9-31,42
				C-351.5,56.2-351.7,56.3-351.9,56.3z M-368.1,1c-1.6,0-3.1,0.3-4.6,0.8c-4.6,1.7-7.7,6.2-8.3,12c-0.5,5,0.3,22.5,29,40.3
				c15.1-8.9,30.6-23.9,29.5-39.9c-0.4-5.9-3.4-10.5-8-12.4c-5.9-2.4-13.4,0-20.7,6.6c-0.4,0.4-1,0.3-1.4,0
				C-357.7,3.6-363.1,1-368.1,1z"/>
			<path class="st1" d="M-328.2,18.1C-328.2,18.1-328.2,18.1-328.2,18.1c-0.3,0-0.5-0.3-0.5-0.6c0.6-4.1-0.3-7.2-2.5-9.1
				c-2.2-1.8-5.2-1.9-7.1-1.3c-0.3,0.1-0.5,0-0.6-0.3c-0.1-0.3,0-0.5,0.3-0.6c2.2-0.8,5.6-0.6,8.1,1.4c1.8,1.4,3.7,4.4,2.9,10
				C-327.7,17.9-327.9,18.1-328.2,18.1z"/>
		</g>
	</g>
</g>
</svg>
