<svg xmlns="http://www.w3.org/2000/svg" viewBox="0 0 286.04 159.52"><defs><style>.a{fill:#fff;}.b{fill:#ff8200;}.c{fill:#1b365d;}</style></defs><path class="a" d="M39.16,126.28h5a.83.83,0,0,1,.83.83v28.22a.83.83,0,0,1-.83.83h-5a.83.83,0,0,1-.83-.83V127.11A.83.83,0,0,1,39.16,126.28Zm34.06,0h5a.82.82,0,0,1,.82.82v28.25a.8.8,0,0,1-.8.81H72.82a.86.86,0,0,1-.68-.34l-14-18.38v17.9a.82.82,0,0,1-.82.82h-5a.83.83,0,0,1-.83-.82V127.12a.84.84,0,0,1,.84-.84h5a.81.81,0,0,1,.66.33l14.42,18.9V127.1A.82.82,0,0,1,73.22,126.28Zm67.7.82v4.31a.82.82,0,0,1-.82.81H126v6.16h12.55a.83.83,0,0,1,.83.83v4a.83.83,0,0,1-.83.83H126v6.2h14.54a.81.81,0,0,1,.81.81v4.28a.81.81,0,0,1-.81.81H120.2a.83.83,0,0,1-.83-.83V127.12a.85.85,0,0,1,.85-.84H140.1A.82.82,0,0,1,140.92,127.1Zm30.64,9.1c0,4.78-1.89,7.88-5.68,9.27l6.69,9.45a.79.79,0,0,1-.64,1.24h-6.29a.78.78,0,0,1-.63-.33L158.87,147a.84.84,0,0,0-.7-.36H154v8.74a.8.8,0,0,1-.8.79h-5.08a.79.79,0,0,1-.79-.79V127.13a.85.85,0,0,1,.85-.85h10.48q7,0,9.93,2.35T171.56,136.2Zm-8,3.54a4.52,4.52,0,0,0,1.24-3.52c0-1.61-.43-2.72-1.28-3.32A8.33,8.33,0,0,0,159,132h-5v8.85h4.87C161.15,140.86,162.7,140.49,163.53,139.74Zm47.53-12.64v4.21a.83.83,0,0,1-.82.83h-13v6.45h12.34a.83.83,0,0,1,.83.82v4.21a.83.83,0,0,1-.83.83H197.21v10.9a.81.81,0,0,1-.81.81h-5a.85.85,0,0,1-.85-.85V127.12a.85.85,0,0,1,.85-.84h18.85A.82.82,0,0,1,211.06,127.1ZM241.84,152a16.27,16.27,0,0,1-22.32,0,15.63,15.63,0,0,1,0-22,16.3,16.3,0,0,1,22.32,0,15.63,15.63,0,0,1,0,22Zm-2.27-11a9.77,9.77,0,0,0-2.56-6.82,8.46,8.46,0,0,0-12.61,0,10.29,10.29,0,0,0,0,13.61,8.5,8.5,0,0,0,12.61,0A9.68,9.68,0,0,0,239.57,141.05Zm27.69-14.77h6.06a.82.82,0,0,1,.69,1.27l-8.49,13.13,9.28,14.24a.8.8,0,0,1-.67,1.24h-6.25a.73.73,0,0,1-.61-.33l-6.16-9.5L255,155.78a.83.83,0,0,1-.69.38h-6.09a.81.81,0,0,1-.68-1.25l9.23-14-8.56-13.33a.81.81,0,0,1,.69-1.25h6a.87.87,0,0,1,.72.39l5.43,8.46,5.44-8.46A.85.85,0,0,1,267.26,126.28ZM32.5,142.39H20.86a.78.78,0,0,0-.78.78v2.75a.78.78,0,0,0,.78.78h4.83a9.7,9.7,0,1,1-.12-11.56l4.58-1.91h0a.78.78,0,0,0,.33-1.14h0a15.51,15.51,0,1,0-3.77,21.63l.51,1.85a.5.5,0,0,0,.45.28h2a.71.71,0,0,0,.68-.5s2.68-11.09,2.82-12c0,0,0-.08,0-.12a.13.13,0,0,0,0-.06A.78.78,0,0,0,32.5,142.39Zm80.76,0H101.61a.78.78,0,0,0-.78.78v2.75a.78.78,0,0,0,.78.78h4.84a9.7,9.7,0,1,1-.12-11.56l4.58-1.91h0a.78.78,0,0,0,.33-1.14h0a15.51,15.51,0,1,0-3.77,21.63l.51,1.85a.49.49,0,0,0,.44.28h2a.72.72,0,0,0,.68-.5s2.68-11.09,2.81-12a.5.5,0,0,0,0-.12v-.06A.77.77,0,0,0,113.26,142.39ZM282,126.63a3.26,3.26,0,0,1,1.24,1.23,3.48,3.48,0,0,1,.45,1.75,3.39,3.39,0,0,1-.46,1.75,3.29,3.29,0,0,1-1.25,1.26,3.56,3.56,0,0,1-3.5,0,3.31,3.31,0,0,1-1.24-1.25,3.59,3.59,0,0,1,0-3.48,3.26,3.26,0,0,1,1.25-1.25,3.4,3.4,0,0,1,1.76-.46A3.46,3.46,0,0,1,282,126.63Zm-.3,5.52a2.79,2.79,0,0,0,1-1.06,2.89,2.89,0,0,0,.38-1.48,2.92,2.92,0,0,0-.37-1.47,2.75,2.75,0,0,0-1-1,2.85,2.85,0,0,0-1.48-.39,2.91,2.91,0,0,0-1.49.39,2.83,2.83,0,0,0-1,1.05,3.07,3.07,0,0,0,0,3,2.83,2.83,0,0,0,1,1,2.93,2.93,0,0,0,1.47.38A2.84,2.84,0,0,0,281.71,132.15Zm.12-2.37a1.37,1.37,0,0,1-.57.46l.86,1.32h-.84l-.77-1.18h-.87v1.18h-.84V127.7h1.61a1.79,1.79,0,0,1,1.18.36,1.23,1.23,0,0,1,.44,1A1.36,1.36,0,0,1,281.83,129.78Zm-1.47-.05a1,1,0,0,0,.63-.18.62.62,0,0,0,.23-.51.61.61,0,0,0-.23-.5,1,1,0,0,0-.63-.17h-.73v1.36Z"/><circle class="b" cx="143.02" cy="55.19" r="52.19"/><path class="c" d="M135.15,59.47A2.57,2.57,0,1,0,137.71,62,2.57,2.57,0,0,0,135.15,59.47Z"/><path class="c" d="M147.77,55.56A2.57,2.57,0,1,0,150.33,53,2.56,2.56,0,0,0,147.77,55.56Z"/><path class="c" d="M179.22,57.32H159.34l-.09,0-6.69,18.5a2.3,2.3,0,0,1-.93,1.5l-.08,0a2.06,2.06,0,0,1-.5.28,2.38,2.38,0,0,1-1.74,0l-21.51-9a4,4,0,0,1-2.21-2.15l-9.45-21.8a2,2,0,0,1,2-2.8L136.05,47h0a2.4,2.4,0,0,0,.71.11,2.45,2.45,0,0,0,.93-.19,2.38,2.38,0,0,0,1.14-1,1.63,1.63,0,0,0,.11-.23L147,29.88h0a2.19,2.19,0,0,1,.29-.57l0-.05s0,0,0,0a.86.86,0,0,1,.13-.14,2,2,0,0,1,1.4-.58,2,2,0,0,1,1.29.48l0,0a.53.53,0,0,1,.13.13,1.18,1.18,0,0,1,.17.22,1.33,1.33,0,0,1,.2.35l5,11.6L173.3,34a2,2,0,0,0,1.21-1.82,1.94,1.94,0,0,0-.34-1.11h0a39.48,39.48,0,1,0-9.61,55.08l1.3,4.71a1.29,1.29,0,0,0,1.15.71h4.47a1.79,1.79,0,0,0,1.72-1.27S180.6,62,181,59.68l0-.2c0-.06,0-.13,0-.19A2,2,0,0,0,179.22,57.32Z"/></svg>