<?xml version="1.0" encoding="utf-8"?>
<!-- Generator: Adobe Illustrator 25.2.0, SVG Export Plug-In . SVG Version: 6.00 Build 0)  -->
<svg version="1.1" id="Layer_1" xmlns="http://www.w3.org/2000/svg" xmlns:xlink="http://www.w3.org/1999/xlink" x="0px" y="0px"
	 viewBox="0 0 64 63.8" style="enable-background:new 0 0 64 63.8;" xml:space="preserve">
<style type="text/css">
	.st0{fill:#EF8A33;}
</style>
<path id="Icon_ionic-md-search-2" class="st0" d="M42.6,38.2h-2.3l-0.9-0.7c2.9-3.4,4.4-7.7,4.4-12.1C43.8,15.2,35.5,7,25.3,7
	C15.1,7.1,6.9,15.4,7,25.6C7.1,35.8,15.3,44,25.5,43.9c4.4,0,8.7-1.6,12.1-4.4l0.9,0.7v2.3l14.2,14.3l4.3-4.3L42.6,38.2z M25.5,38.2
	c-7.1,0-12.9-5.7-12.9-12.8c0-7.1,5.7-12.9,12.8-12.9c7.1,0,12.9,5.7,12.9,12.8c0,0,0,0,0,0c0,7.1-5.7,12.8-12.7,12.9
	C25.6,38.2,25.5,38.2,25.5,38.2z"/>
</svg>
