<?xml version="1.0" encoding="utf-8"?>
<!-- Generator: Adobe Illustrator 25.2.0, SVG Export Plug-In . SVG Version: 6.00 Build 0)  -->
<svg version="1.1" id="Layer_1" xmlns="http://www.w3.org/2000/svg" xmlns:xlink="http://www.w3.org/1999/xlink" x="0px" y="0px"
	 viewBox="0 0 64 63.8" style="enable-background:new 0 0 64 63.8;" xml:space="preserve">
<style type="text/css">
	.st0{fill:#ff8200;}
</style>
<path id="Icon_metro-cart-2" class="st0" d="M25.4,51.7c0,2.7-2.2,5-5,5s-5-2.2-5-5c0-2.7,2.2-5,5-5l0,0
	C23.2,46.8,25.4,49,25.4,51.7z M58.4,51.7c0,2.7-2.2,5-5,5s-5-2.2-5-5c0-2.7,2.2-5,5-5l0,0C56.2,46.8,58.4,49,58.4,51.7
	C58.4,51.7,58.4,51.7,58.4,51.7L58.4,51.7z M58.4,30.2V10.4H18.8c0-1.8-1.5-3.3-3.3-3.3l0,0H5.6v3.3h6.6l2.5,21.3
	c-2.8,2.3-3.3,6.4-1,9.3c1.3,1.6,3.2,2.5,5.2,2.5h39.6v-3.3H18.8c-1.8,0-3.3-1.5-3.3-3.3c0,0,0,0,0,0L58.4,30.2L58.4,30.2z"/>
</svg>
