<?xml version="1.0" encoding="utf-8"?>
<!-- Generator: Adobe Illustrator 26.0.1, SVG Export Plug-In . SVG Version: 6.00 Build 0)  -->
<svg version="1.1" id="Layer_1" xmlns="http://www.w3.org/2000/svg" xmlns:xlink="http://www.w3.org/1999/xlink" x="0px" y="0px"
	 viewBox="0 0 244.8 369.7" style="enable-background:new 0 0 244.8 369.7;" xml:space="preserve">
<style type="text/css">
	.st0{opacity:0.619;}
	.st1{fill:#FD8001;stroke:#FD8001;stroke-width:0.598;stroke-miterlimit:10;}
	.st2{fill:none;stroke:#023A9C;stroke-width:1.5;stroke-miterlimit:10;}
	.st3{fill:#023A9C;stroke:#023A9C;stroke-miterlimit:10;}
	.st4{fill:#FD8001;stroke:#FD8001;stroke-width:0.5979;stroke-miterlimit:9.9979;}
	.st5{fill:none;stroke:#FD8001;stroke-width:1.5;stroke-miterlimit:10;}
	.st6{fill:#023A9C;}
	.st7{fill:none;stroke:#FD8001;stroke-width:1.5004;stroke-miterlimit:10.0025;}
	.st8{fill:#FD8001;stroke:#FD8001;stroke-width:1.5;stroke-miterlimit:10;}
	.st9{fill:#FD8001;stroke:#FD8001;stroke-width:0.5981;stroke-miterlimit:10.0012;}
	.st10{fill:none;stroke:#023A9C;stroke-width:1.5002;stroke-miterlimit:10.001;}
	.st11{fill:none;stroke:#FD8001;stroke-width:1.4996;stroke-miterlimit:9.9973;}
	.st12{fill:none;stroke:#023A9C;stroke-width:1.5007;stroke-miterlimit:10.0045;}
	.st13{fill:#FD8001;}
</style>
<g>
	
		<g id="Group_2966_00000119080713946772803030000015806403643109354171_" transform="translate(1684.138 120.083) rotate(-180)" class="st0">
		
			<ellipse id="Ellipse_155-3_00000058565315954269174160000011020189854318448523_" class="st1" cx="1509.3" cy="23.3" rx="4.2" ry="4.2"/>
		<path id="Path_1167-3_00000163044453590023225450000012780805557549187484_" class="st2" d="M1454.1-3.5l6.6-9.7l-10.8-0.3
			L1454.1-3.5z"/>
		<circle id="Ellipse_156-3_00000059270675326989146670000005539902767793437861_" class="st1" cx="1500.8" cy="-5.6" r="2.1"/>
		<path id="Path_1168-3_00000053513119954697758110000005636176232793022121_" class="st3" d="M1525.4-1.3l2,5.5l3.3-4.3L1525.4-1.3
			z"/>
		
			<ellipse id="Ellipse_157-3_00000029021059478213360860000008274243521472445623_" class="st4" cx="1532" cy="-52" rx="4.2" ry="4.2"/>
		<path id="Path_1169-3_00000103229508246187394690000000262145476572840630_" class="st2" d="M1515.3-33.3l-10.3-5.6l0.9,10.8
			L1515.3-33.3z"/>
		<path id="Path_1170-3_00000171689546284604218280000000775194046738702234_" class="st5" d="M1559.9,14.2l-4.7-3.2l-0.1,5.2
			L1559.9,14.2z"/>
		<circle id="Ellipse_159-3_00000016764042856438829160000014447501346117611161_" class="st6" cx="1550.4" cy="-16.9" r="2.1"/>
		<path id="Path_1172-3_00000087382174746533911100000010629389616444984961_" class="st7" d="M1574.7-40.3l-1.6-11.6l-8.2,7
			L1574.7-40.3z"/>
		<circle id="Ellipse_163-3_00000011001190853072019330000018041521224433251258_" class="st1" cx="1464.7" cy="-35" r="2.1"/>
		<circle id="Ellipse_164-3_00000100382097793203289620000008209563818201442459_" class="st6" cx="1553.5" cy="-56.5" r="2.1"/>
		<circle id="Ellipse_165-3_00000039132069111589205900000011557285487538837658_" class="st6" cx="1586.9" cy="-16.9" r="2.1"/>
		<path id="Path_2204-3_00000074399709061079741390000006638022622391315844_" class="st8" d="M1475.8-14.5l-5.4,1.7l4,3.3
			L1475.8-14.5z"/>
		
			<ellipse id="Ellipse_155-4_00000068658085153286196760000018059182433963957914_" class="st9" cx="1468.8" cy="84.9" rx="4.2" ry="4.2"/>
		<path id="Path_1167-4_00000034783158046967062150000007578410028824086434_" class="st2" d="M1564.3,48.2l-10,6.2l9.8,4.6
			L1564.3,48.2z"/>
		<circle id="Ellipse_156-4_00000132784181718209570530000008787759782027154825_" class="st1" cx="1528" cy="57.6" r="2.1"/>
		<path id="Path_1168-4_00000049191350946014215740000017095314417353596035_" class="st3" d="M1603-33.6l0.4-5.8l-4.7,2.6
			L1603-33.6z"/>
		<path id="Path_1169-4_00000112616528816113109190000007422328356036918930_" class="st10" d="M1469.1,14.6l7.2,9.3l3.6-10.2
			L1469.1,14.6z"/>
		<circle id="Ellipse_158-4_00000018228591834488225250000001434249203491619480_" class="st6" cx="1640.2" cy="61.1" r="2.1"/>
		<path id="Path_1170-4_00000158729974693156027760000017520439025090919865_" class="st8" d="M1496.6,65.5l3,4.8l2.2-4.7
			L1496.6,65.5z"/>
		<circle id="Ellipse_159-4_00000176734867358129003930000007493963662851957890_" class="st6" cx="1465.6" cy="60.5" r="2.1"/>
		<path id="Path_1172-4_00000149370526301186883820000004227892032710051758_" class="st11" d="M1453.2,107.7l-3.3,11.3l10.4-3.1
			L1453.2,107.7z"/>
		<circle id="Ellipse_163-4_00000045614754287322628570000004472360822764603521_" class="st1" cx="1613" cy="42.5" r="2.1"/>
		<circle id="Ellipse_164-4_00000002361815129913930590000013592802042159411625_" class="st6" cx="1598.3" cy="29.2" r="2.1"/>
		<circle id="Ellipse_165-4_00000024716329236592548160000013874413591545759899_" class="st6" cx="1502.9" cy="47.8" r="2.1"/>
		<path id="Path_2204-4_00000135649267016047930280000005883957994332374189_" class="st12" d="M1512.9,92.6l5.6,0.6l-2.3-4.6
			L1512.9,92.6z"/>
		
			<ellipse id="Ellipse_178-2_00000163751315136276027420000010314329488710118552_" class="st6" cx="1544.8" cy="77.2" rx="3.1" ry="3.1"/>
		<path id="Path_2205-2_00000180350185827708821290000014610213559857228174_" class="st11" d="M1600.8,57.7l-3.3,11.3l10.4-3.1
			L1600.8,57.7z"/>
		<path id="Path_2206-2_00000017490057589093339420000010486536392713589949_" class="st2" d="M1660.9,47.3l3.7-4.2l-5.1-0.8
			L1660.9,47.3z"/>
		<path id="Path_2207_00000078011316637006538480000015774765564830175883_" class="st8" d="M1682.7,59.7l-11.7-0.3l5.7,9.2
			L1682.7,59.7z"/>
		
			<ellipse id="Ellipse_179_00000072260168383614706970000004816448830236844682_" class="st9" cx="1624.3" cy="80.6" rx="4.2" ry="4.2"/>
		<path id="Path_2208_00000072998646383809455540000003313688094248862398_" class="st3" d="M1577.4,91.1l2,5.5l3.3-4.3L1577.4,91.1
			z"/>
		<path id="Path_2209-2_00000084524339316655058120000006885693621897927823_" class="st8" d="M1456.5,34.1l-5.4,1.7l4,3.3
			L1456.5,34.1z"/>
	</g>
	<path class="st13" d="M248.1,235.5c-1.3-0.6-2.7,0-3.3,1.2l-11.7,25.6c-5.5,13-17,32.2-40.1,49.7c-26.4,20-61.6,32.9-104.6,38.4
		l24.4-20.5c1.1-0.9,1.2-2.5,0.3-3.5c-0.9-1.1-2.5-1.2-3.5-0.3l-30.8,25.8c0,0-0.1,0.1-0.1,0.1l-0.4,0.3c-1.1,0.9-1.2,2.5-0.3,3.5
		c0.5,0.6,1.1,0.9,1.8,0.9c0.1,0.1,0.3,0.1,0.5,0.2l37.2,11.3c0.2,0.1,0.5,0.1,0.7,0.1c1.1,0,2.1-0.7,2.4-1.8
		c0.4-1.3-0.3-2.7-1.7-3.1l-27.6-8.4c42.8-5.8,78-18.9,104.6-39.1c24-18.2,36-38.2,41.7-51.6l11.7-25.5
		C249.9,237.6,249.4,236.1,248.1,235.5z"/>
</g>
</svg>
