<?xml version="1.0" encoding="utf-8"?>
<!-- Generator: Adobe Illustrator 26.0.1, SVG Export Plug-In . SVG Version: 6.00 Build 0)  -->
<svg version="1.1" id="Layer_1" xmlns="http://www.w3.org/2000/svg" xmlns:xlink="http://www.w3.org/1999/xlink" x="0px" y="0px"
	 viewBox="0 0 326.2 364" style="enable-background:new 0 0 326.2 364;" xml:space="preserve">
<style type="text/css">
	.st0{opacity:0.619;}
	.st1{fill:#FD8001;}
	.st2{fill:#023A9C;}
</style>
<g>
	
		<g id="Group_2965_00000159430234792353877120000004119801071510802055_" transform="translate(23.151 247.131) rotate(16)" class="st0">
		<g>
			
				<ellipse id="Ellipse_157_00000126285448495206824630000004034821915417730725_" transform="matrix(-0.9613 0.2756 -0.2756 -0.9613 -1.7022 32.4552)" class="st1" cx="-3.1" cy="16.1" rx="4.2" ry="4.2"/>
			<path class="st1" d="M-1.9,20.4c-0.5,0.1-1.1,0.2-1.6,0.2c-2.5-0.2-4.3-2.4-4.1-4.9c0.1-1.2,0.7-2.3,1.6-3.1
				c0.9-0.8,2.1-1.1,3.3-1c1.2,0.1,2.3,0.7,3.1,1.6c0.8,0.9,1.1,2.1,1,3.3l0,0C1.2,18.4-0.2,19.9-1.9,20.4z M-4.2,12.3
				c-0.5,0.1-1,0.4-1.4,0.8c-0.8,0.7-1.3,1.6-1.4,2.7c-0.2,2.1,1.4,4,3.6,4.2c2.1,0.2,4-1.4,4.2-3.6l0,0c0.1-1-0.2-2.1-0.9-2.9
				c-0.7-0.8-1.6-1.3-2.7-1.4C-3.3,12.2-3.8,12.2-4.2,12.3z"/>
		</g>
		<path class="st1" d="M19.2,85.4l0.2-7.7l6.9,4.7L19.2,85.4z M20.8,80.5l-0.1,2.7l2.4-1L20.8,80.5z"/>
		<circle id="Ellipse_159_00000135681803290371940610000015418081136990271123_" class="st2" cx="15.3" cy="51.1" r="2.1"/>
		<path class="st1" d="M40.4,29l-12.1-5.7l10.1-8.7L40.4,29z M31.1,23l7.5,3.5l-1.2-8.9L31.1,23z"/>
		<g>
			<circle id="Ellipse_163_00000016077512212515127280000010708326851678447530_" class="st1" cx="22.4" cy="-11.4" r="2.1"/>
			<path class="st1" d="M23.1-9.1c-0.8,0.2-1.8,0-2.4-0.7c-0.4-0.5-0.7-1.1-0.6-1.7c0-0.6,0.3-1.2,0.8-1.7l0,0
				c0.5-0.4,1.1-0.7,1.7-0.6c0.6,0,1.2,0.3,1.7,0.8c0.9,1,0.9,2.5-0.1,3.4C23.8-9.4,23.4-9.2,23.1-9.1z M21.9-13.2
				c-0.3,0.1-0.5,0.2-0.7,0.4l0,0c-0.7,0.7-0.8,1.8-0.1,2.6c0.7,0.7,1.8,0.8,2.6,0.1c0.7-0.7,0.8-1.8,0.1-2.6
				c-0.3-0.4-0.8-0.6-1.3-0.6C22.3-13.2,22.1-13.2,21.9-13.2z"/>
		</g>
		<circle id="Ellipse_164_00000121262372706801707290000008056561163285736096_" class="st2" cx="18.3" cy="11.5" r="2.1"/>
		<circle id="Ellipse_165_00000076561770292392137350000014963536843209941939_" class="st2" cx="51.7" cy="51.1" r="2.1"/>
		<g>
			<path id="Path_2204_00000066481729132711202030000010322289573202575544_" class="st1" d="M28.1,107.4l-5.4,1.7l4,3.3L28.1,107.4
				z"/>
			<path class="st1" d="M27.2,113.7l-6-4.9l8-2.6L27.2,113.7z M24.3,109.4l2,1.7l0.7-2.6L24.3,109.4z"/>
		</g>
		<g>
			
				<ellipse id="Ellipse_155-2_00000010993431792560762460000001223252872190000292_" transform="matrix(-0.9613 0.2756 -0.2756 -0.9613 287.942 58.6679)" class="st1" cx="139.8" cy="49.6" rx="4.2" ry="4.2"/>
			<path class="st1" d="M141.1,53.9c-1.3,0.4-2.7,0.2-3.8-0.6c-1-0.7-1.6-1.7-1.9-2.9c-0.2-1.2,0.1-2.4,0.7-3.4
				c0.7-1,1.7-1.6,2.9-1.9c1.2-0.2,2.4,0.1,3.4,0.7c1,0.7,1.6,1.7,1.9,2.9c0.2,1.2-0.1,2.4-0.7,3.4C142.9,53,142.1,53.6,141.1,53.9z
				 M138.8,45.8c-0.9,0.2-1.6,0.8-2.1,1.5c-0.6,0.9-0.8,1.9-0.6,2.9c0.2,1,0.8,1.9,1.6,2.5c1.8,1.2,4.2,0.8,5.4-1
				c0.6-0.9,0.8-1.9,0.6-2.9c-0.2-1-0.8-1.9-1.6-2.5c-0.9-0.6-1.9-0.8-2.9-0.6C139,45.7,138.9,45.8,138.8,45.8z"/>
		</g>
		<path class="st2" d="M-10.8-14.2l-12.1-5.7l12.3-7.6L-10.8-14.2z M-19.7-20.1l7.5,3.6l0.2-8.3L-19.7-20.1z"/>
		<g>
			<circle id="Ellipse_156-2_00000047754258418845630710000003312145652428141999_" class="st1" cx="199.1" cy="22.3" r="2.1"/>
			<path class="st1" d="M199.8,24.6c-0.6,0.2-1.2,0.1-1.7-0.2c-0.6-0.3-1-0.8-1.2-1.4c-0.4-1.3,0.2-2.6,1.5-3.1
				c1.2-0.4,2.6,0.2,3.1,1.5c0.4,1.3-0.2,2.6-1.5,3.1l0,0C199.8,24.6,199.8,24.6,199.8,24.6z M198.6,20.6
				C198.6,20.6,198.5,20.6,198.6,20.6c-1,0.4-1.5,1.4-1.2,2.3c0.2,0.5,0.5,0.8,0.9,1c0.4,0.2,0.9,0.2,1.4,0.1l0,0
				c0.9-0.3,1.4-1.4,1.1-2.3C200.5,20.8,199.5,20.3,198.6,20.6z"/>
		</g>
		<g>
			<path id="Path_1168-2_00000058575954996323079330000015196371352419649953_" class="st2" d="M67.8,34.5l0.4-5.8l-4.7,2.6
				L67.8,34.5z"/>
			<path class="st2" d="M68.2,35.4l-5.7-4.3l6.2-3.4L68.2,35.4z M64.4,31.3l3,2.2l0.3-4L64.4,31.3z"/>
		</g>
		<g>
			
				<ellipse id="Ellipse_157-2_00000112626795562951495200000000830787195661684361_" transform="matrix(-0.9613 0.2756 -0.2756 -0.9613 208.5079 -15.7314)" class="st1" cx="105.4" cy="6.8" rx="4.2" ry="4.2"/>
			<path class="st1" d="M106.6,11.1c-1.1,0.3-2.3,0.2-3.4-0.4c-2.2-1.2-3-4-1.8-6.1l0,0c1.2-2.2,4-3,6.1-1.8c2.2,1.2,3,4,1.8,6.1
				C108.7,10.1,107.7,10.8,106.6,11.1z M101.9,4.9L101.9,4.9c-1,1.9-0.4,4.3,1.5,5.3c1.9,1,4.3,0.4,5.3-1.5c1-1.9,0.4-4.3-1.5-5.3
				C105.4,2.3,103,3,101.9,4.9z"/>
		</g>
		<path class="st2" d="M104.2,51.1l-8.9-11.5l13.3-1.1L104.2,51.1z M98.2,40.9l5.5,7.1l2.8-7.8L98.2,40.9z"/>
		<circle id="Ellipse_158-2_00000113346491833158894620000015447119084241627304_" class="st2" cx="294.4" cy="27.1" r="2.1"/>
		<g>
			<path id="Path_1170-2_00000140735729920412817290000001430642091886714800_" class="st1" d="M167.7,30.2l3,4.8l2.2-4.7
				L167.7,30.2z"/>
			<path class="st1" d="M170.8,36.6l-4.4-7.1l7.7,0.2L170.8,36.6z M169.1,31l1.5,2.4l1.1-2.4L169.1,31z"/>
		</g>
		<circle id="Ellipse_159-2_00000056388227329922965890000013178910964239757696_" class="st2" cx="136.7" cy="25.2" r="2.1"/>
		<path class="st1" d="M64.7,77.8l4.1-13.9L77.5,74L64.7,77.8z M69.4,66.9l-2.5,8.6l7.9-2.4L69.4,66.9z"/>
		<g>
			<circle id="Ellipse_163-2_00000096755380715304193100000003539990875506468501_" class="st1" cx="284.1" cy="7.2" r="2.1"/>
			<path class="st1" d="M284.8,9.5c-1.2,0.3-2.5-0.3-2.9-1.5c-0.2-0.6-0.2-1.3,0.1-1.8c0.3-0.6,0.8-1,1.4-1.2
				c0.6-0.2,1.3-0.2,1.8,0.1c0.6,0.3,1,0.8,1.2,1.4c0.4,1.3-0.2,2.6-1.5,3.1l0,0C284.8,9.4,284.8,9.5,284.8,9.5z M283.6,5.4
				C283.6,5.4,283.5,5.4,283.6,5.4c-0.5,0.2-0.9,0.5-1.1,0.9c-0.2,0.4-0.2,0.9-0.1,1.4c0.3,0.9,1.3,1.5,2.3,1.1l0,0
				c0.9-0.3,1.4-1.4,1.1-2.3c-0.2-0.5-0.5-0.8-0.9-1C284.5,5.3,284,5.3,283.6,5.4z"/>
		</g>
		<circle id="Ellipse_164-2_00000041268807254441422870000018033188107653640857_" class="st2" cx="63.1" cy="97.3" r="2.1"/>
		<circle id="Ellipse_165-2_00000038399088088705329900000011963751645682743705_" class="st2" cx="174" cy="12.5" r="2.1"/>
		<path class="st2" d="M190.9,58.8l-8.3-0.9l4.9-6L190.9,58.8z M185.5,56.6l2.9,0.3l-1.2-2.4L185.5,56.6z"/>
		
			<ellipse id="Ellipse_178_00000085211051312168643530000001362363445006850716_" transform="matrix(-0.9613 0.2756 -0.2756 -0.9613 434.903 22.6335)" class="st2" cx="215.9" cy="41.9" rx="3.1" ry="3.1"/>
		<path class="st1" d="M255,42.1l4.1-13.9l8.7,10.1L255,42.1z M259.7,31.2l-2.5,8.6l7.9-2.4L259.7,31.2z"/>
		<path class="st2" d="M312.4,15.6l-2.1-7.4l7.6,1.1L312.4,15.6z M312.4,10l0.7,2.6l1.9-2.2L312.4,10z"/>
	</g>
	<path class="st1" d="M156.3,31.4c0-0.2-0.1-0.4-0.1-0.5c-0.1-0.3-0.3-0.7-0.5-1L130,0.6c-0.9-1-2.5-1.1-3.5-0.2
		c-1,0.9-1.1,2.5-0.2,3.5L146,26.5C84.1,4.4,33.6,12,1.7,22.6l-5.6,2.6c-1.3,0.6-1.8,2.1-1.2,3.3c0.6,1.3,2.1,1.8,3.3,1.2l5.2-2.4
		C34.4,17.1,83.1,9.7,143,30.7l-30,4.2c-1.4,0.2-2.3,1.5-2.1,2.8c0.2,1.3,1.2,2.2,2.5,2.2c0.1,0,0.2,0,0.3,0l40.4-5.7
		C155.5,34,156.5,32.8,156.3,31.4z"/>
</g>
</svg>
