<?xml version="1.0" encoding="utf-8"?>
<!-- Generator: Adobe Illustrator 26.0.1, SVG Export Plug-In . SVG Version: 6.00 Build 0)  -->
<svg version="1.1" id="Layer_1" xmlns="http://www.w3.org/2000/svg" xmlns:xlink="http://www.w3.org/1999/xlink" x="0px" y="0px"
	 viewBox="0 0 187 253" style="enable-background:new 0 0 187 253;" xml:space="preserve">
<style type="text/css">
	.st0{opacity:0.619;}
	.st1{fill:#FD8001;}
	.st2{fill:#023A9C;}
	.st3{fill:#6182C0;}
</style>
<g>
	<g id="Group_4178" transform="translate(-50.135 733.552) rotate(28)" class="st0">
		<g>
			
				<ellipse id="Ellipse_155_00000010312704226553978310000000997535532622549662_" transform="matrix(-0.8829 0.4695 -0.4695 -0.8829 -584.5701 -812.5382)" class="st1" cx="-191" cy="-479.1" rx="4.2" ry="4.2"/>
			<path class="st1" d="M-188.9-475.2c-0.4,0.2-0.9,0.4-1.3,0.5c-1.2,0.2-2.4-0.1-3.4-0.7c-2-1.4-2.5-4.2-1.1-6.3
				c0.7-1,1.7-1.6,2.9-1.9c1.2-0.2,2.4,0.1,3.4,0.7c2,1.4,2.5,4.2,1.1,6.3C-187.7-476-188.2-475.5-188.9-475.2z M-192.8-482.6
				c-0.5,0.3-1,0.7-1.4,1.2c-1.2,1.8-0.8,4.2,1,5.4c1.8,1.2,4.2,0.8,5.4-1c1.2-1.8,0.8-4.2-1-5.4c-0.9-0.6-1.9-0.8-2.9-0.6
				C-192.1-482.9-192.5-482.8-192.8-482.6z"/>
		</g>
		<g>
			<circle id="Ellipse_156_00000067203111100861682060000015926448175495240844_" class="st1" cx="-211" cy="-509.1" r="1.8"/>
			<path class="st1" d="M-210-507.3c-0.1,0-0.2,0.1-0.3,0.1l0,0c-1,0.4-2.2-0.2-2.6-1.2c-0.2-0.5-0.1-1.1,0.1-1.5
				c0.2-0.5,0.6-0.8,1.2-1c0.5-0.2,1.1-0.1,1.5,0.1c0.5,0.2,0.8,0.6,1,1.2C-208.7-508.8-209.2-507.8-210-507.3z M-210.5-507.7
				c0.8-0.3,1.2-1.1,0.9-1.9c-0.1-0.4-0.4-0.7-0.8-0.9c-0.4-0.2-0.8-0.2-1.2-0.1c-0.4,0.1-0.7,0.4-0.9,0.8c-0.2,0.4-0.2,0.8-0.1,1.2
				C-212.1-507.8-211.3-507.4-210.5-507.7L-210.5-507.7z"/>
		</g>
		<circle id="Ellipse_158_00000042729283934303979880000017657291714406505663_" class="st2" cx="-154.8" cy="-467.2" r="2.1"/>
		<g>
			<circle id="Ellipse_163_00000090978785160242112210000006669340514388157848_" class="st3" cx="-171.3" cy="-473.1" r="2.1"/>
			<path class="st3" d="M-170.1-470.9c-0.1,0.1-0.2,0.1-0.3,0.2c-1.3,0.4-2.6-0.2-3.1-1.5c-0.4-1.3,0.2-2.6,1.5-3.1
				c0.6-0.2,1.3-0.2,1.8,0.1c0.6,0.3,1,0.8,1.2,1.4C-168.6-472.7-169.1-471.5-170.1-470.9z M-172.1-474.7c-0.3,0.2-0.6,0.5-0.8,0.8
				c-0.2,0.4-0.2,0.9-0.1,1.4c0.2,0.5,0.5,0.8,0.9,1c0.4,0.2,0.9,0.2,1.4,0.1c0.5-0.2,0.8-0.5,1-0.9c0.2-0.4,0.2-0.9,0.1-1.4
				c-0.2-0.5-0.5-0.8-0.9-1c-0.4-0.2-0.9-0.2-1.4-0.1C-172-474.7-172-474.7-172.1-474.7z"/>
		</g>
		<path class="st2" d="M-203.2-492l-3.8-5.1l5.9-0.4L-203.2-492z M-205-496.3l1.6,2.2l0.9-2.3L-205-496.3z"/>
		<path class="st1" d="M-178.9-451.6l-3.4-14.1l12.6,4.4L-178.9-451.6z M-180.2-463.3l2.1,8.7l5.7-6L-180.2-463.3z"/>
		<path class="st2" d="M-141.2-471.9l-2.1-7.4l7.6,1.1L-141.2-471.9z M-141.2-477.5l0.7,2.6l1.9-2.2L-141.2-477.5z"/>
	</g>
	<g id="Group_4179" transform="translate(6.771 624.479) rotate(45)" class="st0">
		<g>
			<circle id="Ellipse_156-2_00000054983679533374869570000003251032398347066814_" class="st1" cx="-337.4" cy="-332.4" r="2.1"/>
			<path class="st1" d="M-335.7-330.7c-0.3,0.3-0.6,0.4-0.9,0.6c-0.6,0.2-1.3,0.2-1.8-0.1c-0.6-0.3-1-0.8-1.2-1.4
				c-0.2-0.6-0.2-1.3,0.1-1.8c0.3-0.6,0.8-1,1.4-1.2c1.3-0.4,2.6,0.2,3.1,1.5c0.2,0.6,0.2,1.3-0.1,1.8
				C-335.3-331.1-335.5-330.9-335.7-330.7z M-338.6-333.7c-0.5,0.5-0.7,1.2-0.4,1.9c0.2,0.5,0.5,0.8,0.9,1c0.4,0.2,0.9,0.2,1.4,0.1
				c0.5-0.2,0.8-0.5,1-0.9c0.2-0.4,0.2-0.9,0.1-1.4c-0.3-0.9-1.4-1.4-2.3-1.1C-338.2-334.1-338.4-333.9-338.6-333.7z"/>
		</g>
		<g>
			<path id="Path_1170_00000010309647726044058040000007792717049043700671_" class="st1" d="M-342.2-347.5l-0.2,3.6l2.9-1.6
				L-342.2-347.5z"/>
			<path class="st1" d="M-338.2-345.4l-5.1,2.9l0.4-6.3L-338.2-345.4z M-341.6-345.2l0.7-0.4l-0.6-0.5L-341.6-345.2z"/>
		</g>
		
			<rect x="-327.2" y="-317.9" transform="matrix(0.3162 -0.9487 0.9487 0.3162 78.9593 -524.8068)" class="st2" width="5.2" height="1.5"/>
		
			<ellipse id="Ellipse_178_00000129919626602998771210000016557204557211550114_" transform="matrix(-0.7071 0.7071 -0.7071 -0.7071 -855.1946 -347.9911)" class="st2" cx="-355.5" cy="-351.1" rx="3.1" ry="3.1"/>
	</g>
	<g id="Group_4177" transform="matrix(-0.809, -0.588, 0.588, -0.809, 706.017, 966.304)" class="st0">
		<g>
			<circle id="Ellipse_163-2_00000181074732985581647410000005417208288114899845_" class="st1" cx="1038.8" cy="436.5" r="2.1"/>
			<path class="st1" d="M1037.3,434.5c1-0.7,2.3-0.6,3.2,0.3c0.9,1,0.9,2.5-0.1,3.4c-1,0.9-2.5,0.9-3.4-0.1c-0.9-1-0.9-2.5,0.1-3.4
				l0,0C1037.2,434.6,1037.3,434.6,1037.3,434.5z M1039.8,437.9c0.1,0,0.1-0.1,0.2-0.1c0.7-0.7,0.8-1.8,0.1-2.6
				c-0.7-0.7-1.8-0.8-2.6-0.1l0,0c-0.7,0.7-0.8,1.8-0.1,2.6C1038.1,438.4,1039.1,438.5,1039.8,437.9z"/>
		</g>
		<g>
			
				<ellipse id="Ellipse_155-2_00000029745415812914824430000000773917780200560259_" transform="matrix(0.8089 -0.5879 0.5879 0.8089 -73.3929 655.2039)" class="st1" cx="971.2" cy="440.5" rx="4.2" ry="4.2"/>
			<path class="st1" d="M968.6,436.9c0.5-0.4,1.2-0.7,1.9-0.8c1.2-0.2,2.4,0.1,3.4,0.7c2,1.4,2.5,4.2,1.1,6.3
				c-0.7,1-1.7,1.6-2.9,1.9c-1.2,0.2-2.4-0.1-3.4-0.7l0,0c-1-0.7-1.6-1.7-1.9-2.9c-0.2-1.2,0.1-2.4,0.7-3.4
				C967.8,437.5,968.2,437.1,968.6,436.9z M973.5,443.7c0.3-0.3,0.7-0.6,0.9-0.9c1.2-1.8,0.8-4.2-1-5.4c-0.9-0.6-1.9-0.8-2.9-0.6
				c-1,0.2-1.9,0.8-2.5,1.6c-0.6,0.9-0.8,1.9-0.6,2.9c0.2,1,0.8,1.9,1.6,2.5l0,0c0.9,0.6,1.9,0.8,2.9,0.6
				C972.5,444.3,973.1,444,973.5,443.7z"/>
		</g>
		<g>
			<circle id="Ellipse_156-3_00000085237731279761899660000006802804129065298068_" class="st1" cx="945.8" cy="405.5" r="2.1"/>
			<path class="st1" d="M944.4,403.6c0.2-0.1,0.4-0.2,0.6-0.3c1.3-0.4,2.6,0.2,3.1,1.5c0.2,0.6,0.2,1.3-0.1,1.8
				c-0.3,0.6-0.8,1-1.4,1.2c-0.6,0.2-1.3,0.2-1.8-0.1c-0.6-0.3-1-0.8-1.2-1.4s-0.2-1.3,0.1-1.8C943.8,404.1,944.1,403.8,944.4,403.6
				z M946.9,407c0.2-0.2,0.4-0.4,0.6-0.7c0.2-0.4,0.2-0.9,0.1-1.4c-0.3-0.9-1.4-1.4-2.3-1.1c-0.5,0.2-0.8,0.5-1,0.9
				c-0.2,0.4-0.2,0.9-0.1,1.4c0.2,0.5,0.5,0.8,0.9,1c0.4,0.2,0.9,0.2,1.4,0.1l0,0C946.6,407.2,946.8,407.1,946.9,407z"/>
		</g>
		<circle id="Ellipse_158-2_00000146467537766477349600000001034421332941459338_" class="st2" cx="1006" cy="460.6" r="2.1"/>
		<g>
			<path id="Path_1170-2_00000072984830400312798940000003798802117516451003_" class="st1" d="M942.4,389.8l-0.2,3.6l2.9-1.6
				L942.4,389.8z"/>
			<path class="st1" d="M941.7,388.4l4.7,3.5l-5.1,2.9L941.7,388.4z M943.7,391.7l-0.6-0.5l0,0.8L943.7,391.7z"/>
		</g>
		<g>
			<circle id="Ellipse_163-3_00000016758806803880546640000007701798108731720331_" class="st1" cx="995.7" cy="440.7" r="2.1"/>
			<path class="st1" d="M994.3,438.7c0.2-0.1,0.4-0.3,0.6-0.3c1.3-0.4,2.6,0.2,3.1,1.5c0.2,0.6,0.2,1.3-0.1,1.8
				c-0.3,0.6-0.8,1-1.4,1.2l0,0c-1.3,0.4-2.6-0.2-3.1-1.5c-0.2-0.6-0.2-1.3,0.1-1.8C993.7,439.2,994,438.9,994.3,438.7z
				 M996.8,442.1c0.6-0.5,0.9-1.3,0.6-2c-0.3-0.9-1.4-1.4-2.3-1.1c-0.5,0.2-0.8,0.5-1,0.9c-0.2,0.4-0.2,0.9-0.1,1.4
				c0.3,0.9,1.4,1.4,2.3,1.1l0,0C996.5,442.3,996.6,442.2,996.8,442.1z"/>
		</g>
		<path class="st2" d="M959,416.4l3.5,6.9l-8.3-0.9L959,416.4z M959.9,421.5l-1.2-2.4l-1.7,2.1L959.9,421.5z"/>
		
			<ellipse id="Ellipse_178-2_00000152238792852988541260000004372487577222739107_" transform="matrix(0.8089 -0.5879 0.5879 0.8089 -49.5061 620.0223)" class="st2" cx="929.1" cy="386.2" rx="3.1" ry="3.1"/>
		<path class="st1" d="M983,460.3l12.6,4.4l-9.2,9.7L983,460.3z M992.9,465.3l-7.8-2.7l2.1,8.7L992.9,465.3z"/>
		<path class="st2" d="M1021.9,441.7l7.6,1.1l-5.5,6.3L1021.9,441.7z M1026.6,443.9l-2.6-0.4l0.7,2.6L1026.6,443.9z"/>
	</g>
</g>
</svg>
