<?xml version="1.0" encoding="utf-8"?>
<!-- Generator: Adobe Illustrator 25.2.0, SVG Export Plug-In . SVG Version: 6.00 Build 0)  -->
<svg version="1.1" id="Layer_1" xmlns="http://www.w3.org/2000/svg" xmlns:xlink="http://www.w3.org/1999/xlink" x="0px" y="0px"
	 viewBox="0 0 64 63.8" style="enable-background:new 0 0 64 63.8;" xml:space="preserve">
<style type="text/css">
	.st0{fill:#FFFFFF;}
</style>
<g>
	<g>
		<path class="st0" d="M32,0.9c-8.8,0-15.9,7.2-15.9,16.1c0,8.9,7.1,16.1,15.9,16.1c8.8,0,15.9-7.2,15.9-16.1
			C47.9,8.1,40.7,0.9,32,0.9z M36.6,14.6c1,0,1.8,0.8,1.8,1.8c0,1-0.8,1.8-1.8,1.8c-1,0-1.8-0.8-1.8-1.8
			C34.8,15.4,35.7,14.6,36.6,14.6z M27.2,14.6c1,0,1.8,0.8,1.8,1.8s-0.8,1.8-1.8,1.8s-1.8-0.8-1.8-1.8S26.2,14.6,27.2,14.6z
			 M32,28.4c-3.8,0-7.5-3.3-7.7-3.4l1-1.1c0,0,3.4,3,6.7,3c3.2,0,6.6-3,6.6-3l1,1.1C39.4,25.1,35.8,28.4,32,28.4z"/>
	</g>
	<path class="st0" d="M31.6,37.1c-15.4,0.2-28.1,11.1-31,25.6v0.2h62.9C60.5,48,47.3,36.9,31.6,37.1z"/>
</g>
</svg>
