<?xml version="1.0" encoding="utf-8"?>
<!-- Generator: Adobe Illustrator 26.0.1, SVG Export Plug-In . SVG Version: 6.00 Build 0)  -->
<svg version="1.1" id="Layer_1" xmlns="http://www.w3.org/2000/svg" xmlns:xlink="http://www.w3.org/1999/xlink" x="0px" y="0px"
	 viewBox="0 0 21.4 19" style="enable-background:new 0 0 21.4 19;" xml:space="preserve">
<style type="text/css">
	.st0{fill:#F08119;}
</style>
<g id="Icon_awesome-heart_00000089536349783192803290000010438593305190084268_" transform="translate(157.304 279.968)">
	<path class="st0" d="M-146.6-261C-146.6-261-146.6-261-146.6-261c-0.6,0-1.2-0.3-1.6-0.7l-7.3-7.6c-0.1-0.1-0.2-0.2-0.2-0.3
		c-1.1-1.3-1.7-3-1.5-4.7c0.1-1.7,0.9-3.3,2.2-4.4c2.5-2.1,6.3-1.8,8.5,0.6l0,0l0,0c2.1-2.3,5.6-2.6,8.1-0.8h0l0.3,0.2
		c0.1,0.1,0.2,0.1,0.2,0.2c1.2,1.2,1.9,2.8,2,4.5c0,1.7-0.6,3.3-1.8,4.6l-7.3,7.6C-145.5-261.2-146-261-146.6-261z"/>
</g>
</svg>
